<?xml version="1.0" encoding="UTF-8" standalone="no"?>
<!-- Created with Inkscape (http://www.inkscape.org/) -->

<svg
   xmlns:dc="http://purl.org/dc/elements/1.1/"
   xmlns:cc="http://creativecommons.org/ns#"
   xmlns:rdf="http://www.w3.org/1999/02/22-rdf-syntax-ns#"
   xmlns:svg="http://www.w3.org/2000/svg"
   xmlns="http://www.w3.org/2000/svg"
   xmlns:sodipodi="http://sodipodi.sourceforge.net/DTD/sodipodi-0.dtd"
   xmlns:inkscape="http://www.inkscape.org/namespaces/inkscape"
   width="60"
   height="80"
   viewBox="0 0 60.000001 80.000001"
   id="svg2"
   version="1.1"
   inkscape:version="0.92.0 r15299"
   sodipodi:docname="Assault.svg">
  <defs
     id="defs4" />
  <sodipodi:namedview
     id="base"
     pagecolor="#ffffff"
     bordercolor="#666666"
     borderopacity="1.0"
     inkscape:pageopacity="0.0"
     inkscape:pageshadow="2"
     inkscape:zoom="15.839192"
     inkscape:cx="40.132196"
     inkscape:cy="39.116544"
     inkscape:document-units="px"
     inkscape:current-layer="layer1"
     showgrid="false"
     units="px"
     inkscape:window-width="1366"
     inkscape:window-height="745"
     inkscape:window-x="-8"
     inkscape:window-y="-8"
     inkscape:window-maximized="1" />
  <metadata
     id="metadata7">
    <rdf:RDF>
      <cc:Work
         rdf:about="">
        <dc:format>image/svg+xml</dc:format>
        <dc:type
           rdf:resource="http://purl.org/dc/dcmitype/StillImage" />
        <dc:title />
      </cc:Work>
    </rdf:RDF>
  </metadata>
  <g
     inkscape:label="Layer 1"
     inkscape:groupmode="layer"
     id="layer1"
     transform="translate(0,-972.36216)">
    <path
       sodipodi:type="star"
       style="fill:none;fill-opacity:1;stroke:#000000;stroke-width:5;stroke-miterlimit:4;stroke-dasharray:none;stroke-opacity:1"
       id="path4169"
       sodipodi:sides="3"
       sodipodi:cx="24.285715"
       sodipodi:cy="1013.4336"
       sodipodi:r1="29.104404"
       sodipodi:r2="14.552202"
       sodipodi:arg1="2.0943951"
       sodipodi:arg2="3.1415927"
       inkscape:flatsided="false"
       inkscape:rounded="0"
       inkscape:randomized="0"
       d="m 9.7335129,1038.6387 0,-25.2051 -10e-8,-25.20516 21.8283042,12.60256 21.828303,12.6026 -21.828304,12.6026 z"
       inkscape:transform-center-x="-4.4446554"
       transform="matrix(0.61085675,0,0,0.67823017,14.732782,326.80664)" />
    <circle
       style="fill:none;fill-opacity:1;stroke:#000000;stroke-width:5.60402679;stroke-miterlimit:4;stroke-dasharray:none;stroke-opacity:1"
       id="path4171"
       cx="30.178572"
       cy="1014.6836"
       r="27.019415" />
    <path
       style="fill:#cccccc;stroke-width:0.35714287"
       d="m 22.530883,41.923844 c 0,-7.486877 0.09838,-13.612503 0.218618,-13.612503 0.156949,0 20.333113,12.7921 21.13104,13.397511 0.05481,0.04159 -4.364831,2.933106 -9.821429,6.425598 -5.456597,3.492492 -10.282693,6.586665 -10.724657,6.875941 l -0.803572,0.525957 z"
       id="path11"
       inkscape:connector-curvature="0"
       transform="translate(0,972.36216)" />
    <path
       style="fill:#cccccc;stroke-width:0.35714287"
       d="M 28.245169,66.299755 C 18.257078,65.299819 10.099868,58.631662 7.1135858,49.025626 6.0379459,45.565593 5.9610716,39.301808 6.953601,35.989912 c 1.6532,-5.516439 5.327246,-10.556067 9.923144,-13.611415 13.353239,-8.877216 31.237949,-2.512965 36.243299,12.897129 1.18275,3.641358 1.333236,9.407038 0.340082,13.029611 -1.8948,6.911343 -6.516396,12.484932 -12.893528,15.549436 -3.953198,1.899693 -8.586049,2.819043 -12.321429,2.445082 z m 6.638756,-14.3277 C 43.402862,46.521162 50.328762,41.918706 50.274808,41.744374 50.198026,41.496267 26.605804,26.188347 20.29874,22.294266 l -1.339285,-0.826897 v 20.2077 c 0,11.114235 0.09799,20.2077 0.217745,20.2077 0.11976,0 7.187787,-4.459821 15.706725,-9.910714 z m 6.882958,9.688514 c 1.56534,-0.313068 2.906857,-1.762132 2.906857,-3.139893 0,-2.095035 -0.806482,-2.717943 -4.873991,-3.764553 -1.798861,-0.462861 -2.271051,-1.361524 -1.179725,-2.245226 0.794011,-0.642951 2.351309,-0.823882 3.053824,-0.354802 0.216128,0.144314 0.583389,0.623996 0.816135,1.06596 0.232747,0.441964 0.738947,0.803571 1.124893,0.803571 1.070357,0 0.874386,-1.310853 -0.384118,-2.569355 -1.013832,-1.013833 -1.226096,-1.075694 -3.200902,-0.932849 -2.654413,0.192002 -3.570401,0.922342 -3.570401,2.846767 0,1.763734 0.740118,2.407084 3.847506,3.344462 2.01669,0.608354 2.422279,0.863222 2.525697,1.587132 0.153797,1.076543 -0.761453,1.795272 -2.286157,1.795272 -1.234957,0 -3.015618,-1.175175 -3.015618,-1.990207 0,-0.280386 -0.200893,-0.507332 -0.446428,-0.504325 -2.263818,0.02775 -0.880514,3.125532 1.747339,3.913028 1.324886,0.397036 1.605649,0.410907 2.935089,0.145018 z"
       id="path13"
       inkscape:connector-curvature="0"
       transform="translate(0,972.36216)" />
    <text
       xml:space="preserve"
       style="font-style:normal;font-weight:normal;font-size:13.79231739px;line-height:8.62019825px;font-family:sans-serif;letter-spacing:0px;word-spacing:0px;fill:#000000;fill-opacity:1;stroke:none;stroke-width:0.34480795"
       x="35.062298"
       y="1042.1647"
       id="text3685"
       transform="scale(1.0087683,0.99130792)"><tspan
         sodipodi:role="line"
         id="tspan3683"
         x="35.062298"
         y="1042.1647"
         style="stroke-width:0.34480795">A</tspan></text>
    <path
       style="fill:#cccccc;fill-opacity:1;stroke-width:0.12626907"
       d="m 22.548071,46.112285 c 0.01449,-10.18431 0.123993,-17.461689 0.264859,-17.602292 0.0941,-0.09392 4.127838,2.410498 13.737646,8.529269 6.952993,4.42712 7.192135,4.583035 7.195068,4.691044 0.0027,0.101152 -4.028578,2.732731 -13.445387,8.776913 -3.889087,2.496212 -7.227325,4.64128 -7.418307,4.766817 l -0.34724,0.22825 z"
       id="path3687"
       inkscape:connector-curvature="0"
       transform="translate(0,972.36216)" />
    <path
       style="fill:#cccccc;fill-opacity:1;stroke-width:0.12626907"
       d="m 39.126249,61.548132 c -0.712205,-0.203894 -1.856372,-0.776217 -1.987287,-0.994059 -0.03081,-0.05126 0.08624,-0.476458 0.26011,-0.944881 l 0.316123,-0.851678 0.382709,0.322029 c 1.376116,1.157925 3.206149,1.365707 4.255048,0.483117 0.281731,-0.237061 0.399859,-0.278298 0.442633,-0.154516 0.03209,0.09286 0.168412,0.466132 0.30294,0.829487 l 0.244595,0.660644 -0.404635,0.250078 c -0.533709,0.32985 -1.752516,0.640582 -2.468529,0.629346 -0.315287,-0.0049 -0.919955,-0.108253 -1.343707,-0.229567 z"
       id="path3689"
       inkscape:connector-curvature="0"
       transform="translate(0,972.36216)" />
    <path
       style="fill:#cccccc;fill-opacity:1;stroke-width:0.02232143"
       d="m 29.051049,66.353072 c -2.752744,-0.166881 -5.741964,-0.883438 -8.242332,-1.9758 l -0.206617,-0.09027 0.0057,-1.630714 0.0057,-1.630715 0.323661,-0.200082 c 1.270801,-0.785587 5.686863,-3.577875 9.386161,-5.934895 3.227636,-2.056499 7.816375,-4.995792 8.118194,-5.200068 l 0.127124,-0.08604 h 7.244528 c 3.984491,0 7.244529,0.0039 7.244529,0.0086 0,0.03223 -0.345645,0.972442 -0.500201,1.360636 -1.58946,3.992185 -4.113527,7.394248 -7.445719,10.035708 -2.379204,1.886019 -5.152618,3.327685 -8.181313,4.252781 -2.014587,0.615343 -3.935181,0.966973 -5.915178,1.082976 -0.339172,0.01987 -1.677757,0.02522 -1.964286,0.0079 z m 11.949706,-4.550083 c 0.313908,-0.04462 0.785354,-0.135739 0.986948,-0.190754 0.490868,-0.133959 0.98238,-0.387963 1.393703,-0.720242 l 0.15625,-0.126222 0.61942,-2.84e-4 c 0.363292,-1.56e-4 0.61942,-0.0088 0.61942,-0.02088 0,-0.01133 -0.08971,-0.251384 -0.199346,-0.533457 l -0.199344,-0.512859 0.08719,-0.20225 c 0.217989,-0.505631 0.267621,-1.020513 0.165984,-1.721909 -0.129946,-0.896741 -0.565915,-1.450222 -1.524837,-1.935845 l -0.280354,-0.141979 -0.707471,-1.823811 c -0.389109,-1.003096 -0.704312,-1.827234 -0.70045,-1.831417 0.013,-0.01408 0.239456,0.10892 0.324416,0.17621 0.166751,0.132069 0.54518,0.641019 0.721085,0.969789 0.171314,0.320189 0.429555,0.572597 0.74894,0.732024 0.185319,0.09251 0.191477,0.09387 0.424107,0.09387 0.193192,0 0.254297,-0.0085 0.336504,-0.04694 0.132944,-0.06213 0.217844,-0.150269 0.285148,-0.296026 0.05067,-0.109723 0.05432,-0.138705 0.04367,-0.345982 -0.02942,-0.57258 -0.406139,-1.211402 -1.150985,-1.951786 -0.361429,-0.359264 -0.656975,-0.59805 -0.87793,-0.709321 -0.351945,-0.177237 -0.772571,-0.229412 -1.53082,-0.189885 -2.11445,0.110224 -3.066221,0.367384 -3.677569,0.993645 -0.291924,0.299045 -0.468235,0.672058 -0.559966,1.184692 -0.05621,0.314148 -0.05726,1.116645 -0.0019,1.417411 0.05126,0.278239 0.142541,0.538781 0.263191,0.751209 0.110164,0.193967 0.395502,0.508041 0.585044,0.643964 0.06842,0.04906 0.124713,0.09422 0.125107,0.100363 3.96e-4,0.0061 -0.179149,0.472937 -0.398984,1.03733 l -0.399701,1.026169 -0.143497,0.05813 c -0.07892,0.03197 -0.179858,0.0806 -0.224299,0.108064 -0.120628,0.07455 -0.25287,0.236616 -0.308959,0.378634 -0.08775,0.222176 -0.06456,0.6519 0.05016,0.929622 0.01521,0.03683 0.02641,0.07199 0.02487,0.07813 -0.0015,0.0061 -0.137957,0.357446 -0.303162,0.780684 -0.165205,0.423238 -0.295559,0.777311 -0.289676,0.78683 0.0059,0.0095 0.332045,0.01731 0.724804,0.01731 h 0.714108 l 0.035,-0.08371 c 0.01925,-0.04604 0.0438,-0.106833 0.05456,-0.1351 0.01902,-0.04998 0.02402,-0.04764 0.181499,0.08501 0.346951,0.292244 0.809656,0.571508 1.23348,0.744462 0.38126,0.155584 1.192435,0.379121 1.61819,0.445927 0.144688,0.0227 0.74779,0.01084 0.956401,-0.01881 z"
       id="path3691"
       inkscape:connector-curvature="0"
       transform="translate(0,972.36216)" />
    <path
       style="fill:#cccccc;fill-opacity:1;stroke-width:0.02232143"
       d="m 28.838996,66.344434 c -2.680306,-0.19049 -5.60861,-0.908099 -8.046875,-1.971964 l -0.178572,-0.07791 v -1.635195 -1.635194 l 0.357143,-0.221714 c 2.611055,-1.620942 10.820067,-6.836832 15.967583,-10.145578 l 1.637226,-1.052384 h 7.241122 c 3.982618,0 7.241123,0.0043 7.241123,0.0095 0,0.0052 -0.05409,0.163412 -0.120192,0.351562 -0.995418,2.833168 -2.436235,5.384429 -4.301715,7.617058 -2.551006,3.053078 -5.848746,5.43719 -9.595951,6.937423 -2.0762,0.831229 -4.29281,1.412267 -6.40625,1.679266 -0.964776,0.121884 -1.392621,0.148909 -2.488839,0.157213 -0.564732,0.0043 -1.152344,-0.0011 -1.305803,-0.01205 z m 11.400669,-4.523187 c -0.02148,-0.0056 -0.05664,-0.0056 -0.07813,0 -0.02148,0.0056 -0.0039,0.01021 0.03906,0.01021 0.04297,0 0.06055,-0.0046 0.03906,-0.01021 z m 0.45759,-3.66e-4 c -0.02762,-0.0053 -0.07282,-0.0053 -0.100447,0 -0.02762,0.0053 -0.005,0.0097 0.05022,0.0097 0.05525,0 0.07785,-0.0044 0.05022,-0.0097 z m 0.05011,-0.05206 c 0.516594,-0.04195 1.16851,-0.187274 1.655018,-0.368938 0.261287,-0.09756 0.424732,-0.177795 0.662015,-0.324962 0.0965,-0.05985 0.186565,-0.108818 0.200147,-0.108818 0.01358,0 0.07529,-0.04269 0.13713,-0.09487 l 0.112428,-0.09487 0.618197,-0.01116 c 0.340009,-0.0061 0.623924,-0.0169 0.630922,-0.02391 0.007,-0.007 -0.07727,-0.245279 -0.187255,-0.529482 l -0.19998,-0.516734 0.06276,-0.140161 c 0.199198,-0.44486 0.264904,-0.85507 0.225857,-1.410091 -0.05712,-0.81197 -0.236005,-1.260048 -0.67852,-1.69963 -0.214003,-0.212584 -0.525942,-0.424843 -0.894864,-0.608907 l -0.267857,-0.133641 -0.06141,-0.164035 c -0.03377,-0.09022 -0.351709,-0.912361 -0.706521,-1.826982 -0.354811,-0.91462 -0.642159,-1.666046 -0.638549,-1.669834 0.01315,-0.0138 0.169679,0.06195 0.268456,0.129911 0.187969,0.129326 0.536917,0.587056 0.81287,1.066275 0.16829,0.292252 0.474844,0.574409 0.774466,0.712835 0.115916,0.05355 0.158099,0.06059 0.365418,0.06094 0.200299,3.37e-4 0.249781,-0.0071 0.340341,-0.05138 0.391815,-0.191436 0.435092,-0.708436 0.113203,-1.352351 -0.215558,-0.431208 -0.490337,-0.783154 -1.003482,-1.285284 -0.521157,-0.509973 -0.738972,-0.660572 -1.111558,-0.768544 -0.37313,-0.108128 -0.966599,-0.114794 -2.055022,-0.02308 -1.378811,0.116182 -2.17445,0.351705 -2.723296,0.806144 -0.318702,0.263881 -0.565102,0.709312 -0.669103,1.209572 -0.0931,0.447805 -0.08784,1.267226 0.01076,1.675138 0.122558,0.507069 0.400363,0.934368 0.800152,1.230735 0.07453,0.05524 0.135838,0.105468 0.136251,0.111607 4.13e-4,0.0061 -0.178814,0.472804 -0.398283,1.037035 l -0.399035,1.025875 -0.183283,0.07649 c -0.414625,0.173029 -0.60322,0.524309 -0.537168,1.000537 0.02638,0.190211 0.08667,0.426653 0.11293,0.442881 0.0091,0.0056 -0.03229,0.133395 -0.09189,0.283993 -0.0596,0.150599 -0.197384,0.504843 -0.306194,0.787209 l -0.197836,0.513393 0.102465,0.01479 c 0.05636,0.0081 0.381419,0.01567 0.722363,0.01674 l 0.619898,0.002 0.02102,-0.05022 c 0.01156,-0.02762 0.03615,-0.08837 0.05463,-0.135003 l 0.03361,-0.08478 0.207163,0.168144 c 0.11394,0.09248 0.21882,0.168297 0.233067,0.168485 0.01425,1.79e-4 0.09963,0.04215 0.189732,0.09325 0.374945,0.212632 1.074484,0.511622 1.449559,0.619556 0.36233,0.104266 0.927239,0.209474 1.247752,0.23238 0.05524,0.0039 0.101499,0.0089 0.102785,0.01108 0.0013,0.0021 0.130766,-0.0065 0.287731,-0.01927 z"
       id="path3693"
       inkscape:connector-curvature="0"
       transform="translate(0,972.36216)" />
    <path
       style="fill:#cccccc;fill-opacity:1;stroke-width:0.02232143"
       d="m 28.805513,66.343584 c -2.689654,-0.197268 -5.512774,-0.890556 -8.013392,-1.96789 l -0.178572,-0.07693 v -1.637362 -1.637361 l 0.301339,-0.188519 C 25.087377,58.225198 33.987607,52.56544 38.072917,49.924532 L 38.568,49.604491 h 7.246377 7.246378 l -0.01525,0.05022 c -0.0084,0.02762 -0.08325,0.241071 -0.166364,0.47433 -1.675413,4.702019 -4.686056,8.716067 -8.679018,11.571616 -1.72025,1.23023 -3.684601,2.275831 -5.68479,3.025946 -2.457543,0.921633 -5.041339,1.483448 -7.444197,1.61865 -0.455011,0.0256 -1.908373,0.02453 -2.265625,-0.0017 z M 40.2392,61.823148 c -0.0074,-0.0074 -0.02667,-0.0082 -0.04278,-0.0018 -0.01781,0.0071 -0.01252,0.01241 0.01349,0.01349 0.02353,9.69e-4 0.03671,-0.0043 0.0293,-0.01172 z m 0.424107,0 c -0.0074,-0.0074 -0.02667,-0.0082 -0.04278,-0.0018 -0.01781,0.0071 -0.01252,0.01241 0.01349,0.01349 0.02353,9.69e-4 0.03671,-0.0043 0.0293,-0.01172 z m -0.07825,-0.04753 c -0.0525,-0.0047 -0.132858,-0.0046 -0.178571,1.56e-4 -0.04571,0.0048 -0.0028,0.0087 0.09546,0.0086 0.09821,-8.9e-5 0.135616,-0.004 0.08311,-0.0087 z m -0.32281,-0.02129 c -0.02134,-0.0056 -0.06152,-0.0058 -0.08929,-4.5e-4 -0.02777,0.0053 -0.01031,0.0099 0.0388,0.01016 0.04911,2.47e-4 0.07183,-0.0041 0.05048,-0.0097 z m 0.601993,-1.34e-4 c -0.02172,-0.0057 -0.05185,-0.0053 -0.06696,8.29e-4 -0.01511,0.0061 0.0027,0.01074 0.03949,0.01029 0.03683,-4.56e-4 0.0492,-0.0055 0.02748,-0.01112 z m -0.803571,-0.02232 c -0.02172,-0.0057 -0.05185,-0.0053 -0.06696,8.28e-4 -0.01511,0.0061 0.0027,0.01075 0.03949,0.01029 0.03683,-4.55e-4 0.04919,-0.0055 0.02748,-0.01112 z m 1.004424,0.002 c -0.0074,-0.0074 -0.02667,-0.0082 -0.04278,-0.0018 -0.01781,0.0071 -0.01252,0.01242 0.01349,0.01349 0.02353,9.69e-4 0.03671,-0.0043 0.0293,-0.01172 z m -1.149088,-0.02362 c -0.01535,-0.0062 -0.04046,-0.0062 -0.0558,0 -0.01535,0.0062 -0.0028,0.01126 0.0279,0.01126 0.03069,0 0.04325,-0.0051 0.0279,-0.01126 z m 1.283017,0.0013 c -0.0074,-0.0074 -0.02667,-0.0082 -0.04278,-0.0018 -0.01781,0.0071 -0.01252,0.01241 0.01349,0.01349 0.02353,9.68e-4 0.03671,-0.0043 0.0293,-0.01172 z m -1.416946,-0.02362 c -0.01535,-0.0062 -0.04046,-0.0062 -0.0558,0 -0.01535,0.0062 -0.0028,0.01126 0.0279,0.01126 0.03069,0 0.04325,-0.0051 0.0279,-0.01126 z m 1.684803,-0.02102 c -0.0074,-0.0074 -0.02667,-0.0082 -0.04278,-0.0018 -0.01781,0.0071 -0.01252,0.01241 0.01349,0.01349 0.02353,9.69e-4 0.03671,-0.0043 0.0293,-0.01172 z m -1.897322,-0.02232 c -0.0074,-0.0074 -0.02667,-0.0082 -0.04278,-0.0018 -0.01781,0.0071 -0.01252,0.01241 0.01349,0.01348 0.02353,9.69e-4 0.03671,-0.0043 0.0293,-0.01172 z m 1.986608,0 c -0.0074,-0.0074 -0.02667,-0.0082 -0.04278,-0.0018 -0.01781,0.0071 -0.01252,0.01241 0.01349,0.01348 0.02353,9.69e-4 0.03671,-0.0043 0.0293,-0.01172 z m 0.200892,-0.04464 c -0.0074,-0.0074 -0.02667,-0.0082 -0.04278,-0.0018 -0.01781,0.0071 -0.01252,0.01241 0.01349,0.01349 0.02353,9.68e-4 0.03671,-0.0043 0.0293,-0.01172 z m 0.08929,-0.02232 c -0.0074,-0.0074 -0.02667,-0.0082 -0.04278,-0.0018 -0.01781,0.0071 -0.01252,0.01241 0.01349,0.01349 0.02353,9.69e-4 0.03671,-0.0043 0.0293,-0.01172 z m 0.393904,-0.111793 c 0.0581,-0.0198 0.101772,-0.03985 0.09705,-0.04457 -0.0047,-0.0047 -0.06302,0.01074 -0.129558,0.03436 -0.06654,0.02362 -0.110212,0.04368 -0.09705,0.04457 0.01316,8.97e-4 0.07146,-0.01457 0.129558,-0.03436 z m -4.093216,-0.309989 c -0.03069,-0.01754 -0.06585,-0.0319 -0.07813,-0.0319 -0.01228,0 0.0028,0.01436 0.03348,0.0319 0.03069,0.01754 0.06585,0.0319 0.07813,0.0319 0.01228,0 -0.0028,-0.01436 -0.03348,-0.0319 z m 4.933036,-0.09086 c 0,-0.0061 -0.02009,-4.08e-4 -0.04464,0.01273 -0.02455,0.01314 -0.04464,0.02891 -0.04464,0.03505 0,0.0061 0.02009,4.08e-4 0.04464,-0.01273 0.02455,-0.01314 0.04464,-0.02891 0.04464,-0.03505 z m 0.322511,-0.19935 0.123286,-0.100418 0.396522,-0.0027 c 0.218085,-0.0015 0.498893,-0.009 0.624016,-0.01674 l 0.227498,-0.014 -0.198603,-0.515721 -0.1986,-0.515721 0.09832,-0.243208 c 0.141207,-0.349297 0.189872,-0.616867 0.189872,-1.043937 0,-1.302884 -0.403392,-1.969292 -1.550846,-2.562015 l -0.289685,-0.149639 -0.707473,-1.826398 c -0.38911,-1.004518 -0.698444,-1.829665 -0.687409,-1.83366 0.0474,-0.01716 0.267468,0.129721 0.411753,0.274815 0.174071,0.175047 0.368215,0.441573 0.603152,0.828024 0.17912,0.294637 0.313727,0.456166 0.49883,0.598599 0.284754,0.219113 0.519826,0.292492 0.829078,0.258801 0.237527,-0.02588 0.366328,-0.111258 0.471194,-0.312351 0.07838,-0.150295 0.07264,-0.474046 -0.01305,-0.736607 -0.171321,-0.524953 -0.538178,-1.044984 -1.165263,-1.65179 -0.731025,-0.707389 -1.009002,-0.825889 -1.937358,-0.825889 -0.729987,0 -1.772865,0.09388 -2.378104,0.214078 -1.407177,0.279459 -2.06815,0.873898 -2.243942,2.018065 -0.03798,0.247217 -0.04385,1.022018 -0.0095,1.261161 0.09657,0.673278 0.34897,1.096043 0.922657,1.545429 l 0.06369,0.04989 -0.395905,1.021535 c -0.217748,0.561844 -0.407251,1.032482 -0.421118,1.045863 -0.01387,0.01338 -0.07544,0.0425 -0.13682,0.06471 -0.254967,0.09226 -0.424442,0.251315 -0.520098,0.488136 -0.04436,0.109832 -0.05379,0.171568 -0.05302,0.347393 8.66e-4,0.199825 0.05654,0.498247 0.111175,0.595869 0.01357,0.02425 -0.06717,0.257285 -0.266858,0.77014 -0.157475,0.404453 -0.29214,0.758562 -0.299255,0.78691 l -0.01293,0.05154 0.373393,0.01473 c 0.205366,0.0081 0.527696,0.01473 0.716289,0.01473 0.384872,0 0.33656,0.02149 0.419043,-0.186398 l 0.0341,-0.08595 0.117388,0.09591 c 0.08966,0.07326 0.102172,0.07934 0.05296,0.02575 -0.07514,-0.08183 -0.07282,-0.13147 0.02112,-0.451991 0.06766,-0.230819 0.485274,-1.384015 0.50089,-1.383141 0.0061,3.44e-4 0.131697,0.101861 0.279018,0.225594 0.326171,0.273946 0.71912,0.537799 1.023055,0.686951 0.222586,0.109231 0.638358,0.270788 0.691222,0.268589 0.01474,-6.14e-4 -0.06361,-0.03413 -0.174098,-0.07447 -0.428759,-0.156562 -0.819316,-0.369641 -1.191755,-0.650196 -0.233327,-0.175762 -0.598079,-0.543451 -0.617435,-0.622405 -0.0063,-0.0258 0.01793,-0.12726 0.0539,-0.225474 l 0.0654,-0.178572 h 2.28293 2.282931 l 0.158594,0.436394 0.158594,0.436394 -0.04344,0.077 c -0.02389,0.04235 -0.07509,0.117177 -0.113779,0.166285 -0.106859,0.135649 -0.11584,0.158936 -0.04064,0.105392 0.104435,-0.07437 0.175287,-0.09584 0.214169,-0.0649 0.04113,0.03272 0.580873,1.504032 0.562596,1.533605 -0.0073,0.01174 -0.05788,0.04754 -0.112491,0.07954 -0.05461,0.032 -0.09929,0.06246 -0.09929,0.06768 0,0.02356 0.188543,-0.09024 0.30019,-0.181174 z m -5.701975,0.07655 c -0.236775,-0.150606 -0.421247,-0.254055 -0.363356,-0.203764 0.06388,0.05549 0.356905,0.226872 0.385677,0.225567 0.0061,-2.79e-4 -0.0039,-0.01009 -0.02232,-0.0218 z m 3.359375,-0.847401 c 0.257448,-0.02914 0.570104,-0.112077 0.750874,-0.199171 0.07809,-0.03762 0.121894,-0.06156 0.09734,-0.05318 -0.02455,0.0084 -0.125,0.04297 -0.223214,0.07689 -0.246279,0.08506 -0.485471,0.129845 -0.87413,0.163677 -0.308546,0.02686 -0.318235,0.02903 -0.141495,0.03168 0.104352,0.0016 0.280134,-0.0074 0.390625,-0.0199 z m -0.686849,-0.0127 c -0.0074,-0.0074 -0.02667,-0.0082 -0.04278,-0.0018 -0.01781,0.0071 -0.01252,0.01241 0.01349,0.01348 0.02353,9.69e-4 0.03671,-0.0043 0.0293,-0.01172 z"
       id="path3695"
       inkscape:connector-curvature="0"
       transform="translate(0,972.36216)" />
    <path
       style="fill:#cccccc;fill-opacity:1;stroke-width:0.02232143"
       d="m 28.90596,66.35239 c -0.288183,-0.01699 -0.913711,-0.07918 -1.328125,-0.132048 -2.267017,-0.28922 -4.500143,-0.88567 -6.584822,-1.758752 l -0.379464,-0.158923 -0.0048,-1.640382 -0.0048,-1.640383 0.484692,-0.300248 c 2.591975,-1.605631 13.250923,-8.383376 17.03816,-10.83412 l 0.437397,-0.283043 h 7.246755 c 3.985714,0 7.246755,0.008 7.246755,0.01772 0,0.03616 -0.341616,0.967408 -0.505266,1.377366 -0.50285,1.259689 -1.174955,2.605092 -1.856612,3.716518 -2.575069,4.198598 -6.32479,7.470225 -10.852576,9.468859 -2.785575,1.229596 -5.878793,1.994328 -8.738671,2.160452 -0.342646,0.0199 -1.895744,0.02483 -2.198661,0.007 z m 11.601138,-4.575867 c -0.02172,-0.0057 -0.05185,-0.0053 -0.06696,8.28e-4 -0.01511,0.0061 0.0027,0.01075 0.03949,0.01029 0.03683,-4.55e-4 0.04919,-0.0055 0.02748,-0.01112 z m 2.905587,-0.919922 0.09824,-0.08023 0.630663,-0.02232 0.630661,-0.02232 -0.198819,-0.513393 -0.198817,-0.513393 0.0889,-0.225221 c 0.166161,-0.420941 0.190248,-0.560063 0.189009,-1.091743 -0.0022,-0.958568 -0.184212,-1.465934 -0.704755,-1.964854 -0.221692,-0.212485 -0.46475,-0.378345 -0.846245,-0.577466 L 42.821645,55.69957 42.555567,55.012522 c -0.927166,-2.394062 -1.143356,-2.964625 -1.125768,-2.971097 0.03004,-0.01105 0.233546,0.105624 0.33361,0.191275 0.171702,0.146971 0.473567,0.552953 0.710424,0.955461 0.198951,0.33809 0.459131,0.588272 0.762484,0.733182 0.12485,0.05964 0.174877,0.07036 0.358625,0.07685 0.117446,0.0041 0.254011,-0.0034 0.30348,-0.01667 0.144645,-0.03895 0.263029,-0.139715 0.333598,-0.283954 0.159005,-0.324994 0.01869,-0.894549 -0.358886,-1.456799 -0.199634,-0.297273 -0.374859,-0.502034 -0.747107,-0.873042 -0.804335,-0.801654 -1.094301,-0.916029 -2.244621,-0.885369 -1.071198,0.02855 -2.041418,0.152758 -2.661563,0.340732 -0.794435,0.240804 -1.301661,0.656422 -1.546091,1.266857 -0.163357,0.407963 -0.213018,0.779318 -0.194091,1.451362 0.01366,0.485045 0.04082,0.657395 0.151353,0.960246 0.138199,0.378677 0.42274,0.742454 0.789984,1.009972 l 0.06511,0.04743 -0.40219,1.03364 c -0.221205,0.568501 -0.416525,1.041079 -0.434046,1.050174 -0.01752,0.0091 -0.09939,0.04674 -0.18193,0.08366 -0.187646,0.08393 -0.355297,0.238679 -0.435547,0.402028 -0.05843,0.118928 -0.06163,0.141572 -0.06032,0.426928 0.0012,0.259534 0.0089,0.323016 0.0558,0.45759 l 0.05442,0.15625 -0.285337,0.736607 c -0.156935,0.405134 -0.290744,0.757728 -0.297353,0.783543 -0.01195,0.04666 -0.0081,0.04703 0.65432,0.06304 0.63242,0.01528 0.787745,0.0089 0.787745,-0.03242 0,-0.0099 0.02009,-0.06493 0.04465,-0.122218 l 0.04465,-0.104166 0.09486,0.07346 c 0.05217,0.0404 0.07728,0.05301 0.0558,0.02801 -0.05372,-0.0625 -0.04958,-0.119506 0.02903,-0.399454 0.05656,-0.20144 0.478125,-1.386305 0.503276,-1.414535 0.0042,-0.0048 0.07079,0.04368 0.147864,0.107667 0.466924,0.3876 0.758565,0.589605 1.114911,0.77224 0.13099,0.06714 0.246503,0.121848 0.256697,0.121585 0.01019,-2.64e-4 -0.08631,-0.05565 -0.214461,-0.123081 -0.408842,-0.215134 -0.72507,-0.441976 -1.009789,-0.724362 -0.143353,-0.142178 -0.266935,-0.283582 -0.274628,-0.314231 -0.009,-0.03577 0.0095,-0.119445 0.05145,-0.233617 l 0.06543,-0.177891 h 2.284249 2.284249 l 0.159187,0.439972 0.159188,0.439973 -0.08513,0.129224 c -0.04682,0.07107 -0.100981,0.150701 -0.120349,0.17695 -0.03452,0.04678 -0.03315,0.04668 0.06889,-0.005 0.07211,-0.03651 0.11557,-0.04657 0.141414,-0.03274 0.02052,0.01098 0.06369,0.09358 0.09593,0.183549 0.03224,0.08997 0.156255,0.429132 0.275594,0.753694 l 0.216983,0.590112 -0.06438,0.05361 c -0.05845,0.04867 -0.05924,0.05105 -0.0086,0.02584 0.03069,-0.01528 0.100014,-0.06388 0.154047,-0.10801 z m -5.890654,-0.01106 c 0,-0.0049 -0.03516,-0.0297 -0.07813,-0.05505 -0.04297,-0.02535 -0.07813,-0.04126 -0.07813,-0.03536 0,0.0094 0.136059,0.09906 0.15067,0.09928 0.0031,4.5e-5 0.0056,-0.0039 0.0056,-0.0089 z m 3.692125,-0.774879 c 0.155251,-0.02375 0.583537,-0.148837 0.566826,-0.165548 -0.0047,-0.0047 -0.08501,0.01512 -0.178531,0.04397 -0.19416,0.05991 -0.377326,0.09326 -0.749875,0.136555 l -0.261348,0.03037 0.232303,-0.01057 c 0.127767,-0.0058 0.303548,-0.02147 0.390625,-0.03479 z m -1.828285,-0.242951 c -0.04911,-0.02273 -0.09933,-0.04126 -0.111608,-0.04118 -0.01228,8.9e-5 0.01786,0.01916 0.06697,0.0424 0.04911,0.02324 0.09933,0.04177 0.111607,0.04118 0.01228,-5.9e-4 -0.01786,-0.01967 -0.06696,-0.0424 z"
       id="path3697"
       inkscape:connector-curvature="0"
       transform="translate(0,972.36216)" />
    <path
       style="fill:#cccccc;fill-opacity:1;stroke-width:0.02232143"
       d="m 28.727388,66.342572 c -2.209529,-0.163726 -4.745673,-0.731179 -6.875,-1.538255 -0.426764,-0.161756 -1.116334,-0.442361 -1.209163,-0.492041 -0.039,-0.02088 -0.04081,-0.09518 -0.04032,-1.656114 l 5.13e-4,-1.63426 0.991334,-0.618918 c 2.185953,-1.364754 8.827982,-5.577204 12.087998,-7.666347 0.153459,-0.09834 0.535156,-0.342468 0.848214,-0.542501 0.313058,-0.200033 1.348909,-0.864535 2.301891,-1.47667 l 1.732695,-1.112975 h 7.246099 c 4.364476,0 7.246101,0.0081 7.246101,0.02041 0,0.06275 -0.407362,1.150551 -0.639942,1.708866 -2.008311,4.821016 -5.413353,8.775578 -9.85113,11.440948 -3.389994,2.036062 -7.561016,3.339807 -11.422128,3.570237 -0.448941,0.02679 -2.044646,0.02522 -2.417158,-0.0024 z m 14.690987,-5.494426 0.103933,-0.0825 0.615933,-0.01496 c 0.420248,-0.01021 0.615967,-0.02269 0.616038,-0.03928 0,-0.01338 -0.08577,-0.246486 -0.19073,-0.518021 l -0.190835,-0.4937 0.09158,-0.229878 c 0.162944,-0.409001 0.187139,-0.548361 0.185882,-1.070669 -7.59e-4,-0.315713 -0.0124,-0.524416 -0.03754,-0.673124 -0.147326,-0.8714 -0.555585,-1.374624 -1.534364,-1.891269 L 42.819791,55.6983 42.153863,53.973941 c -0.366261,-0.948398 -0.684226,-1.772072 -0.70659,-1.830387 -0.02311,-0.06025 -0.03084,-0.106027 -0.01792,-0.106027 0.01251,0 0.07123,0.02457 0.130489,0.0546 0.235201,0.119185 0.512014,0.440521 0.844951,0.980854 0.09517,0.154462 0.213224,0.332047 0.262332,0.394635 0.11905,0.151729 0.375968,0.356943 0.560788,0.447929 0.131825,0.0649 0.176267,0.07489 0.367216,0.08256 0.273607,0.01099 0.401964,-0.02706 0.531016,-0.157398 0.132129,-0.133451 0.167698,-0.25866 0.153243,-0.539447 -0.02903,-0.56388 -0.385908,-1.164945 -1.137161,-1.91523 -0.864295,-0.863182 -1.187816,-0.971869 -2.643385,-0.888046 -2.325824,0.133939 -3.326481,0.532087 -3.782384,1.504958 -0.167851,0.358186 -0.24353,0.781656 -0.24353,1.362708 0,0.736356 0.117789,1.195998 0.411439,1.605544 0.09603,0.133932 0.376058,0.417346 0.52449,0.530833 l 0.07655,0.05853 -0.249209,0.643617 c -0.461634,1.192229 -0.555659,1.422813 -0.586983,1.439499 -0.01716,0.0091 -0.09719,0.0469 -0.177836,0.08391 -0.194058,0.08906 -0.331382,0.213672 -0.421232,0.382249 -0.06059,0.11367 -0.07552,0.169988 -0.08477,0.319663 -0.01234,0.199627 0.018,0.441556 0.07808,0.622646 l 0.03884,0.117075 -0.296023,0.768709 c -0.162812,0.42279 -0.288261,0.776471 -0.278774,0.785958 0.02121,0.02121 1.37289,0.03191 1.406515,0.01113 0.01328,-0.0082 0.04178,-0.06253 0.06334,-0.120716 0.02156,-0.05819 0.04186,-0.109403 0.04512,-0.113811 0.0033,-0.0044 0.0348,0.01255 0.0701,0.03769 l 0.06418,0.0457 -0.0089,-0.06047 c -0.0049,-0.03326 0.01276,-0.145211 0.03921,-0.248786 0.06811,-0.266741 0.508054,-1.496027 0.535413,-1.496027 0.0072,0 0.09312,0.06688 0.190918,0.148622 0.400271,0.33456 0.781159,0.594329 1.120256,0.764024 0.230363,0.115281 0.189836,0.07745 -0.05911,-0.05517 -0.390196,-0.207877 -0.681517,-0.419576 -0.965554,-0.701653 -0.143436,-0.142447 -0.267019,-0.283798 -0.274627,-0.314114 -0.0088,-0.03502 0.01003,-0.119993 0.0516,-0.233012 l 0.06543,-0.177891 h 2.284816 2.284816 l 0.09302,0.256697 c 0.05116,0.141183 0.123179,0.33894 0.160038,0.43946 l 0.06702,0.182763 -0.100198,0.152058 c -0.05511,0.08363 -0.104802,0.159279 -0.11043,0.168105 -0.0056,0.0088 0.0319,-0.0028 0.0834,-0.02587 0.0515,-0.02306 0.107519,-0.03659 0.124488,-0.03008 0.0393,0.01508 0.04644,0.03262 0.343941,0.845659 0.246589,0.673897 0.24848,0.680556 0.207011,0.729204 -0.048,0.05631 -0.02031,0.0393 0.129047,-0.07925 z m -5.896344,-0.004 c 0,-0.0057 -0.0226,-0.02133 -0.05022,-0.03471 -0.04823,-0.02337 -0.0485,-0.02296 -0.0069,0.01037 0.04554,0.03649 0.05712,0.04142 0.05712,0.02434 z m 3.252884,-0.739718 c -0.0074,-0.0074 -0.02667,-0.0082 -0.04278,-0.0018 -0.01781,0.0071 -0.01252,0.01241 0.01349,0.01349 0.02353,9.69e-4 0.03671,-0.0043 0.0293,-0.01172 z m 0.587852,-0.06649 c 0.08687,-0.01976 0.153549,-0.04032 0.148175,-0.0457 -0.0054,-0.0054 -0.05882,0.0014 -0.118761,0.0151 -0.05994,0.01368 -0.204413,0.03894 -0.321043,0.05613 l -0.212053,0.03127 0.172867,-0.01044 c 0.09508,-0.0057 0.243944,-0.0266 0.330815,-0.04636 z m 0.277568,-0.07627 c 0.02814,-0.01209 0.03227,-0.01918 0.01116,-0.01918 -0.01842,0 -0.05357,0.0086 -0.07813,0.01918 -0.02814,0.01209 -0.03227,0.01918 -0.01116,0.01918 0.01841,0 0.05357,-0.0086 0.07813,-0.01918 z"
       id="path3699"
       inkscape:connector-curvature="0"
       transform="translate(0,972.36216)" />
    <path
       style="fill:#cccccc;fill-opacity:1;stroke-width:0.02232143"
       d="m 28.716228,66.344395 c -2.615852,-0.208782 -5.460294,-0.905841 -7.80134,-1.911796 l -0.301339,-0.129487 -0.0057,-1.640605 -0.0057,-1.640605 0.463261,-0.289052 c 3.296976,-2.057149 11.33534,-7.166108 16.344957,-10.388398 l 1.149554,-0.739416 7.251303,-2.72e-4 7.251304,-2.73e-4 -0.01532,0.06138 c -0.06143,0.246194 -0.550002,1.505692 -0.833404,2.148438 -1.569402,3.559342 -3.91369,6.627306 -6.923978,9.061398 -3.802747,3.074868 -8.661085,4.998629 -13.76116,5.44902 -0.358377,0.03165 -2.476775,0.04646 -2.8125,0.01966 z m 14.723801,-5.514457 0.08737,-0.0692 0.589574,-0.01227 c 0.324263,-0.0067 0.60121,-0.01946 0.615435,-0.02825 0.01807,-0.01117 -0.03247,-0.167606 -0.167797,-0.519323 l -0.19366,-0.503339 0.07827,-0.197204 c 0.180621,-0.455101 0.182284,-0.465501 0.181393,-1.134704 -7.14e-4,-0.534776 -0.0062,-0.625462 -0.04831,-0.804897 -0.109888,-0.467792 -0.287044,-0.789853 -0.607049,-1.103585 -0.223009,-0.218639 -0.451022,-0.37733 -0.864433,-0.601622 l -0.29291,-0.158915 -0.571341,-1.477991 c -0.314237,-0.812894 -0.63123,-1.633682 -0.704428,-1.823972 -0.0732,-0.19029 -0.124534,-0.349065 -0.114079,-0.352834 0.03942,-0.01421 0.244262,0.109219 0.36616,0.220627 0.16211,0.14816 0.401796,0.467061 0.627832,0.835332 0.129803,0.211482 0.229561,0.342164 0.367837,0.481865 0.316969,0.320233 0.5795,0.438136 0.927418,0.416504 0.260176,-0.01618 0.407134,-0.10368 0.515346,-0.306851 0.06416,-0.120461 0.05833,-0.513582 -0.0109,-0.735392 -0.104603,-0.335134 -0.34721,-0.747205 -0.65123,-1.106126 -0.201554,-0.23795 -0.822273,-0.844034 -1.003851,-0.98018 -0.452971,-0.339638 -0.882153,-0.423854 -1.905232,-0.373856 -2.824299,0.138027 -3.85229,0.666193 -4.134273,2.124125 -0.05789,0.299312 -0.05924,1.193167 -0.0022,1.479679 0.05242,0.26345 0.141866,0.509079 0.261757,0.718815 0.110222,0.192824 0.395887,0.510094 0.582764,0.64724 l 0.121323,0.08904 -0.238305,0.614087 c -0.131067,0.337748 -0.313489,0.804936 -0.405382,1.038195 l -0.167077,0.424107 -0.193022,0.09447 c -0.326187,0.159638 -0.486639,0.369388 -0.517893,0.677015 -0.01739,0.171139 0.01888,0.478694 0.0764,0.647914 l 0.04035,0.118697 -0.121414,0.313544 c -0.414566,1.070584 -0.470393,1.228682 -0.439909,1.245787 0.01673,0.0094 0.339174,0.01441 0.716546,0.01116 l 0.686132,-0.0059 0.04461,-0.111608 c 0.02454,-0.06138 0.0473,-0.115214 0.05059,-0.119622 0.0033,-0.0044 0.03419,0.01195 0.06865,0.03635 l 0.06267,0.04436 0.0036,-0.125631 c 0.0023,-0.07993 0.03941,-0.235254 0.102066,-0.426971 0.133849,-0.40955 0.443959,-1.25 0.461226,-1.25 0.0077,0 0.139431,0.101765 0.292752,0.226144 0.255733,0.207459 0.535463,0.412352 0.535463,0.392209 0,-0.0046 -0.08812,-0.07412 -0.195831,-0.154547 -0.219171,-0.163667 -0.600346,-0.54934 -0.619888,-0.627203 -0.0074,-0.02937 0.01436,-0.125418 0.05163,-0.228253 l 0.06436,-0.177547 h 2.286078 2.286077 l 0.08601,0.234375 c 0.04731,0.128906 0.119248,0.327134 0.15987,0.440506 l 0.07386,0.206131 -0.09689,0.150582 c -0.05329,0.08282 -0.09405,0.153418 -0.09058,0.156885 0.0035,0.0035 0.0451,-0.0099 0.09252,-0.02972 0.08201,-0.03427 0.0879,-0.0339 0.120614,0.0074 0.01892,0.0239 0.15493,0.376265 0.302251,0.783024 0.147322,0.406759 0.271433,0.739776 0.275806,0.740038 0.0044,2.61e-4 0.04726,-0.03066 0.09532,-0.06872 z M 41.02049,60.080094 c -0.02172,-0.0057 -0.05185,-0.0053 -0.06696,8.28e-4 -0.01511,0.0061 0.0027,0.01075 0.03949,0.01029 0.03683,-4.55e-4 0.0492,-0.0055 0.02748,-0.01112 z m 0.262702,-0.02917 c 0.09283,-0.02362 0.0015,-0.02467 -0.111607,-0.0013 -0.07507,0.01553 -0.07862,0.01846 -0.02232,0.01839 0.03683,-4.5e-5 0.0971,-0.0077 0.133929,-0.01711 z m 0.139044,-0.03581 c -0.0074,-0.0074 -0.02667,-0.0082 -0.04278,-0.0018 -0.01781,0.0071 -0.01252,0.01241 0.01349,0.01349 0.02353,9.69e-4 0.03671,-0.0043 0.0293,-0.01172 z m -2.293062,-0.287478 c 0,-0.0059 -0.05022,-0.03623 -0.111607,-0.06734 -0.06138,-0.03111 -0.111607,-0.05156 -0.111607,-0.04545 0,0.0061 0.04771,0.03595 0.106027,0.0663 0.119195,0.06205 0.117187,0.06125 0.117187,0.04649 z m -0.302455,-0.164214 c -0.03802,-0.03362 -0.188616,-0.119132 -0.188616,-0.107105 0,0.0064 0.04269,0.0373 0.09487,0.06857 0.09638,0.05776 0.132114,0.07245 0.09375,0.03853 z"
       id="path3701"
       inkscape:connector-curvature="0"
       transform="translate(0,972.36216)" />
    <path
       style="fill:#cccccc;fill-opacity:1;stroke-width:0.02232143"
       d="m 28.682746,66.344454 c -2.308255,-0.193889 -4.662719,-0.723119 -6.815722,-1.532021 -0.4396,-0.165161 -1.076121,-0.424103 -1.200053,-0.488191 l -0.06458,-0.0334 v -1.63566 -1.635661 l 0.585938,-0.365945 c 3.456491,-2.158735 12.15149,-7.687315 16.722819,-10.632942 l 0.645812,-0.416143 h 7.250393 c 4.53425,0 7.250393,0.0079 7.250393,0.02108 0,0.03862 -0.236726,0.698554 -0.412799,1.150794 -0.944492,2.425905 -2.226746,4.634724 -3.829072,6.595983 -0.939109,1.149476 -2.130118,2.349767 -3.280451,3.306017 -3.823183,3.178138 -8.798547,5.186913 -13.984375,5.64611 -0.358003,0.0317 -2.547219,0.04695 -2.868303,0.01998 z m 15.390669,-5.599268 c 0.294619,-0.0021 0.567346,-0.0094 0.606061,-0.01628 0.08591,-0.01526 0.09489,0.02294 -0.136657,-0.581759 l -0.172558,-0.45065 0.09105,-0.232868 c 0.147168,-0.376406 0.161531,-0.452046 0.174587,-0.919403 0.01962,-0.702329 -0.04091,-1.085031 -0.236544,-1.495536 -0.230434,-0.483526 -0.609389,-0.830659 -1.315855,-1.205357 -0.138882,-0.07366 -0.26068,-0.148996 -0.270662,-0.167411 -0.01859,-0.0343 -1.226199,-3.153321 -1.341717,-3.465402 -0.03522,-0.09515 -0.05391,-0.172991 -0.04153,-0.172991 0.01238,0 0.07407,0.02613 0.137102,0.05807 0.228021,0.115547 0.495423,0.425783 0.843799,0.978964 0.100194,0.159097 0.223952,0.339169 0.275016,0.40016 0.136425,0.162944 0.360708,0.339907 0.549159,0.433295 0.15794,0.07827 0.176355,0.08214 0.390625,0.08205 0.255134,-1.12e-4 0.360352,-0.02854 0.473636,-0.12801 0.14096,-0.123765 0.175038,-0.219142 0.173373,-0.485241 -0.0017,-0.273944 -0.04097,-0.44145 -0.166364,-0.709885 -0.197621,-0.423052 -0.511442,-0.828472 -1.041625,-1.345654 -0.540514,-0.52726 -0.798883,-0.69291 -1.223078,-0.78416 -0.482497,-0.103792 -1.899113,-0.0405 -2.890625,0.129141 -1.328334,0.227272 -2.020473,0.68942 -2.312365,1.543985 -0.122251,0.357909 -0.150095,0.572249 -0.150095,1.155412 0,0.578148 0.02781,0.796158 0.141685,1.110878 0.127409,0.352113 0.423694,0.749053 0.732225,0.980979 l 0.129418,0.09729 -0.343791,0.880875 c -0.189086,0.484481 -0.371022,0.951188 -0.404302,1.037125 l -0.06051,0.15625 -0.184446,0.09145 c -0.21984,0.109003 -0.383111,0.260815 -0.465791,0.4331 -0.05416,0.11286 -0.05873,0.144384 -0.05655,0.390625 0.0019,0.211524 0.01353,0.305798 0.05544,0.448267 l 0.05307,0.180409 -0.184996,0.478073 c -0.350469,0.905695 -0.398738,1.048153 -0.362896,1.071033 0.01831,0.01169 0.325172,0.01822 0.711354,0.01514 l 0.67915,-0.0054 0.04461,-0.111608 c 0.05652,-0.141414 0.04863,-0.134792 0.111516,-0.09359 l 0.05376,0.03523 0.0144,-0.127241 c 0.02078,-0.183703 0.526104,-1.656352 0.568126,-1.655684 0.008,1.34e-4 0.150076,0.108151 0.315812,0.240054 0.319954,0.254639 0.446429,0.349128 0.446429,0.333526 0,-0.0053 -0.07454,-0.06668 -0.165645,-0.13646 -0.229585,-0.175848 -0.593676,-0.558507 -0.591884,-0.622069 7.7e-4,-0.02731 0.02839,-0.124991 0.06138,-0.217067 l 0.05998,-0.167411 2.287946,-0.0054 2.287947,-0.0054 0.161376,0.448123 0.161376,0.448124 -0.08494,0.126454 c -0.129933,0.193427 -0.12888,0.187434 -0.02567,0.146138 0.08072,-0.0323 0.0967,-0.03291 0.12483,-0.0048 0.01774,0.01774 0.146687,0.343076 0.286544,0.722965 0.139857,0.379888 0.265371,0.719407 0.278915,0.754486 l 0.02463,0.06378 0.09455,-0.07748 0.09455,-0.07748 z m -2.874393,-0.68543 c -0.0074,-0.0074 -0.02667,-0.0082 -0.04278,-0.0018 -0.01781,0.0071 -0.01252,0.01241 0.01349,0.01349 0.02353,9.69e-4 0.03671,-0.0043 0.0293,-0.01172 z m 0.111607,-0.02232 c -0.0074,-0.0074 -0.02667,-0.0082 -0.04278,-0.0018 -0.01781,0.0071 -0.01252,0.01241 0.01349,0.01349 0.02353,9.68e-4 0.03671,-0.0043 0.0293,-0.01172 z m -2.270741,-0.354032 c 0,-0.0057 -0.0226,-0.02133 -0.05022,-0.03471 -0.04823,-0.02337 -0.0485,-0.02296 -0.0069,0.01038 0.04554,0.03649 0.05712,0.04142 0.05712,0.02434 z"
       id="path3703"
       inkscape:connector-curvature="0"
       transform="translate(0,972.36216)" />
    <path
       style="fill:#cccccc;fill-opacity:1;stroke-width:0.02232143"
       d="m 28.794353,66.35276 c -2.660017,-0.19399 -5.54789,-0.910469 -8.096871,-2.008828 l -0.09464,-0.04078 -2.27e-4,-1.641944 -2.27e-4,-1.641943 0.440849,-0.276095 C 25.100303,58.202308 33.31739,52.978517 37.786986,50.098785 l 0.767188,-0.494294 h 7.254206 7.254205 l -0.01472,0.06138 c -0.02739,0.114234 -0.328312,0.929307 -0.508779,1.378068 -1.071473,2.664405 -2.555424,5.062223 -4.434366,7.165199 -0.377747,0.422789 -1.228326,1.281639 -1.663174,1.67935 -2.763658,2.52763 -6.047713,4.363269 -9.778893,5.465961 -1.825918,0.539622 -3.797347,0.895867 -5.47991,0.990243 -0.369011,0.0207 -2.133463,0.02666 -2.388393,0.0081 z m 15.272946,-5.609876 c 0.288775,0 0.5574,-0.0065 0.596947,-0.01438 0.09286,-0.01857 0.09315,-0.01721 -0.123322,-0.582783 l -0.170777,-0.446189 0.100416,-0.265154 c 0.14841,-0.391893 0.158089,-0.458103 0.157825,-1.079887 -2.23e-4,-0.467713 -0.0069,-0.57757 -0.04614,-0.758928 -0.169121,-0.781129 -0.562188,-1.24146 -1.491018,-1.746166 l -0.267857,-0.145548 -0.05934,-0.145744 c -0.05943,-0.145957 -1.317126,-3.405758 -1.344199,-3.483999 -0.0123,-0.03554 -0.006,-0.03945 0.04353,-0.02701 0.234151,0.05877 0.518397,0.364169 0.936369,1.006057 0.27321,0.419574 0.340035,0.501362 0.539252,0.659986 0.295136,0.234998 0.543997,0.312492 0.862006,0.268423 0.273264,-0.03787 0.430168,-0.19207 0.461038,-0.453098 0.07237,-0.61191 -0.271223,-1.271192 -1.092187,-2.095697 -0.565371,-0.56781 -0.815272,-0.747135 -1.193573,-0.856488 -0.413677,-0.11958 -1.236369,-0.119005 -2.367186,0.0017 -2.008955,0.214357 -2.865476,0.793015 -3.080916,2.081442 -0.05647,0.337712 -0.03689,1.316965 0.0317,1.585596 0.116103,0.454707 0.398183,0.886582 0.774277,1.18545 l 0.15833,0.12582 -0.404144,1.036402 -0.404145,1.036402 -0.171027,0.08447 c -0.228199,0.112701 -0.378452,0.251074 -0.466222,0.42936 l -0.07021,0.142612 0.01044,0.307942 c 0.0076,0.223432 0.02254,0.344912 0.05453,0.442658 l 0.0441,0.134717 -0.273617,0.713497 c -0.150489,0.392424 -0.280275,0.740491 -0.288415,0.773482 -0.01345,0.05454 -0.008,0.06121 0.05982,0.07343 0.04104,0.0074 0.360141,0.01054 0.709121,0.007 l 0.634507,-0.0065 0.04461,-0.111608 c 0.05651,-0.14139 0.04866,-0.134774 0.111278,-0.09374 l 0.05353,0.03507 0.01257,-0.121817 c 0.01881,-0.182262 0.527122,-1.66129 0.570817,-1.660904 0.0077,6.7e-5 0.08439,0.05646 0.170328,0.125308 0.395195,0.31662 0.409281,0.320616 0.121313,0.03441 -0.215144,-0.213827 -0.288367,-0.300624 -0.287324,-0.340587 7.7e-4,-0.0295 0.02839,-0.128965 0.06138,-0.221041 l 0.05998,-0.167411 2.287946,-0.0056 2.287947,-0.0056 0.16137,0.446324 0.16137,0.446324 -0.08779,0.13885 c -0.04829,0.07637 -0.08486,0.14178 -0.08128,0.14536 0.0036,0.0036 0.03914,-0.0049 0.07902,-0.01877 0.05814,-0.02027 0.07878,-0.01901 0.104156,0.0064 0.02614,0.02614 0.132784,0.304589 0.578413,1.510238 0.0077,0.0207 0.03984,0.0058 0.108156,-0.05022 l 0.09726,-0.0797 z m -5.697053,-1.484375 c -0.01528,-0.01841 -0.03281,-0.03348 -0.03895,-0.03348 -0.0061,0 0.0013,0.01507 0.01663,0.03348 0.01528,0.01842 0.03281,0.03348 0.03895,0.03348 0.0061,0 -0.0013,-0.01507 -0.01663,-0.03348 z"
       id="path3705"
       inkscape:connector-curvature="0"
       transform="translate(0,972.36216)" />
    <path
       style="fill:#cccccc;fill-opacity:1;stroke-width:0.02232143"
       d="m 28.794353,66.354578 c -0.04297,-0.0048 -0.208706,-0.01948 -0.368304,-0.03269 -0.446202,-0.03692 -1.27523,-0.145912 -1.848385,-0.243001 -1.922319,-0.325631 -3.808487,-0.86863 -5.56791,-1.602918 L 20.602388,64.305957 V 62.66127 61.016583 l 0.742188,-0.4645 C 24.819325,58.377399 32.574621,53.447361 37.38453,50.355491 l 1.168301,-0.751 h 7.252457 c 6.143824,0 7.252458,0.0047 7.252458,0.03074 0,0.03379 -0.17138,0.513837 -0.363567,1.018371 -0.916364,2.405648 -2.205744,4.651946 -3.814253,6.645021 -0.508524,0.630103 -0.978993,1.147403 -1.691875,1.860284 -1.225067,1.225067 -2.263529,2.080251 -3.650395,3.006137 -3.437503,2.294914 -7.593996,3.751263 -11.841518,4.149023 -0.292667,0.02741 -0.695693,0.03816 -1.607142,0.04289 -0.669085,0.0035 -1.251675,0.0024 -1.294643,-0.0024 z m 14.665178,-5.544729 0.08455,-0.06697 0.510181,-2.45e-4 c 0.557857,-2.68e-4 0.677592,-0.01081 0.677592,-0.05967 0,-0.01746 -0.08164,-0.244666 -0.181415,-0.504892 l -0.181416,-0.47314 0.04962,-0.133928 c 0.0273,-0.07366 0.08124,-0.219309 0.119884,-0.323661 l 0.07026,-0.189732 2.23e-4,-0.691965 c 2.23e-4,-0.68589 -3.79e-4,-0.693879 -0.06084,-0.910097 -0.19485,-0.696916 -0.620585,-1.162263 -1.476366,-1.613732 -0.217335,-0.114655 -0.246902,-0.137607 -0.28279,-0.219517 -0.05147,-0.117482 -1.285461,-3.311463 -1.340592,-3.469909 l -0.04158,-0.119506 0.06098,0.01522 c 0.232063,0.05792 0.505188,0.351565 0.926812,0.996451 0.11546,0.1766 0.254154,0.373485 0.308208,0.437523 0.125994,0.149262 0.345723,0.324201 0.519714,0.413774 0.124149,0.06391 0.15935,0.07115 0.386141,0.07934 0.228984,0.0083 0.259515,0.0044 0.370689,-0.04645 0.211527,-0.09684 0.28379,-0.240163 0.28379,-0.562852 0,-0.26037 -0.05511,-0.479907 -0.186988,-0.744892 -0.20365,-0.4092 -0.458648,-0.738552 -0.954927,-1.233371 -0.523686,-0.522147 -0.809418,-0.719922 -1.199206,-0.830052 -0.159236,-0.04499 -0.218255,-0.04799 -0.928968,-0.04721 -0.623488,6.85e-4 -0.840591,0.0096 -1.216518,0.04985 -1.005366,0.107701 -1.607135,0.248846 -2.087053,0.489518 -0.260376,0.130574 -0.368,0.204987 -0.555012,0.383739 -0.327719,0.313245 -0.527677,0.725481 -0.606941,1.251277 -0.03744,0.248331 -0.04289,0.983764 -0.0095,1.283575 0.06487,0.582801 0.371268,1.115915 0.861368,1.498733 l 0.114006,0.08905 -0.397103,1.019426 c -0.218406,0.560684 -0.40356,1.029874 -0.411453,1.042645 -0.0079,0.01277 -0.09513,0.06384 -0.193873,0.113481 -0.216294,0.108751 -0.37836,0.263213 -0.457466,0.436004 -0.0547,0.119484 -0.05672,0.138081 -0.04542,0.418209 0.0077,0.191497 0.02671,0.344313 0.05475,0.440652 l 0.04292,0.147487 -0.271984,0.711888 c -0.149592,0.391539 -0.278436,0.738787 -0.286321,0.771663 -0.01389,0.05791 -0.01067,0.06021 0.102873,0.07367 0.06446,0.0076 0.382066,0.01088 0.70578,0.0072 l 0.588571,-0.0067 0.04373,-0.111352 c 0.02405,-0.06124 0.05049,-0.116489 0.05875,-0.122768 0.0083,-0.0063 0.01797,-0.02648 0.02157,-0.0449 0.0036,-0.01841 0.148368,-0.425223 0.321696,-0.904018 0.173329,-0.478795 0.351184,-0.976004 0.395233,-1.104911 l 0.08009,-0.234375 2.289088,-0.0057 2.289089,-0.0057 0.160875,0.447091 0.160874,0.447091 -0.08806,0.138503 c -0.04843,0.07618 -0.0853,0.14126 -0.08193,0.144631 0.0034,0.0034 0.03955,-0.0055 0.0804,-0.01976 0.06529,-0.02276 0.07854,-0.02057 0.109646,0.01815 0.01946,0.02422 0.155916,0.372173 0.303237,0.773222 0.147321,0.40105 0.276455,0.729332 0.286967,0.729516 0.01051,1.79e-4 0.05716,-0.0298 0.103658,-0.06663 z M 37.142225,60.51409 c -2.68e-4,-0.03921 -0.0048,-0.04312 -0.02085,-0.01781 -0.01128,0.01783 -0.01555,0.04043 -0.0095,0.05022 0.01936,0.03133 0.0307,0.01921 0.03035,-0.03242 z m 0.966608,-1.468192 c -0.0517,-0.0488 -0.10562,-0.08873 -0.119821,-0.08873 -0.024,0 0.178058,0.176691 0.202662,0.177217 0.0061,1.34e-4 -0.03114,-0.03969 -0.08284,-0.08849 z"
       id="path3707"
       inkscape:connector-curvature="0"
       transform="translate(0,972.36216)" />
    <path
       style="fill:#cccccc;fill-opacity:1;stroke-width:0.02232143"
       d="m 43.606028,57.706507 c -0.414661,-1.069194 -0.748745,-1.949172 -0.742409,-1.955508 0.01481,-0.01481 0.49273,0.25615 0.696359,0.3948 0.499818,0.340325 0.783038,0.707938 0.962165,1.248871 l 0.06283,0.189732 0.0073,0.725447 0.0073,0.725446 -0.09995,0.287754 c -0.05497,0.158265 -0.108884,0.296685 -0.119799,0.3076 -0.01158,0.01158 -0.333848,-0.7898 -0.773774,-1.924142 z"
       id="path3711"
       inkscape:connector-curvature="0"
       transform="translate(0,972.36216)" />
    <path
       style="fill:#cccccc;fill-opacity:1;stroke-width:0.02232143"
       d="m 41.298431,57.025939 c -0.04073,-0.01769 -0.28682,-0.09837 -0.546875,-0.179297 -1.166974,-0.363139 -2.062448,-0.665848 -2.109806,-0.713206 -0.0094,-0.0094 0.544808,-1.522545 0.566869,-1.547866 0.0037,-0.0043 0.06437,0.0138 0.134793,0.04014 0.07042,0.02635 0.410117,0.123342 0.754888,0.215546 0.649932,0.173814 1.152707,0.315124 1.165027,0.327444 0.0039,0.0039 0.166713,0.431018 0.361783,0.949128 l 0.354673,0.942018 -0.303653,-8.73e-4 c -0.213563,-6.14e-4 -0.325621,-0.01042 -0.377699,-0.03304 z"
       id="path3713"
       inkscape:connector-curvature="0"
       transform="translate(0,972.36216)" />
    <path
       style="fill:#cccccc;fill-opacity:1;stroke-width:0.02232143"
       d="m 37.342793,55.423608 c -0.386396,-0.319247 -0.65487,-0.732695 -0.767183,-1.181457 -0.05578,-0.222871 -0.08463,-0.837718 -0.05906,-1.25841 0.03279,-0.539314 0.144639,-0.912167 0.375068,-1.250274 0.102969,-0.151086 0.355367,-0.405399 0.498693,-0.502477 0.698371,-0.473026 2.046288,-0.727889 3.736629,-0.706519 0.650124,0.0082 0.701412,0.01187 0.848214,0.06034 0.344877,0.113873 0.599057,0.287965 1.041579,0.713393 0.510845,0.491112 0.821293,0.881101 1.02387,1.286199 0.162321,0.324597 0.207573,0.49077 0.209713,0.770089 0.0036,0.467879 -0.193958,0.646161 -0.677249,0.611219 -0.251106,-0.01816 -0.417185,-0.09067 -0.652295,-0.284805 -0.172368,-0.142329 -0.257238,-0.249536 -0.594146,-0.750521 -0.383187,-0.569802 -0.603511,-0.802927 -0.834483,-0.882968 l -0.09735,-0.03374 -0.238029,-0.618657 -0.238029,-0.618658 -0.788757,-0.0055 -0.788756,-0.0055 -0.320576,0.827911 -0.320576,0.827911 -0.240162,0.237903 c -0.197736,0.195876 -0.255063,0.268446 -0.324511,0.410796 -0.115923,0.23761 -0.130845,0.435886 -0.0482,0.640486 l 0.05709,0.141327 -0.313505,0.806129 c -0.172427,0.443371 -0.320267,0.823919 -0.328534,0.845662 -0.01291,0.03395 -0.03542,0.02269 -0.159452,-0.07979 z"
       id="path3715"
       inkscape:connector-curvature="0"
       transform="translate(0,972.36216)" />
    <path
       style="fill:#cccccc;fill-opacity:1;stroke-width:0.06313454"
       d="M 27.959858,66.293896 C 26.47936,66.12419 24.425731,65.682409 23.003797,65.227738 22.320043,65.009103 20.624446,64.354658 20.573118,64.289574 20.555756,64.26756 20.229034,64.098165 19.84707,63.913143 17.240746,62.650645 15.125155,61.119092 13.060108,58.999814 11.192147,57.082799 9.9338246,55.322155 8.7352426,52.948466 7.3663323,50.237456 6.7384914,48.133012 6.418466,45.182918 6.2906827,44.004972 6.3110816,39.800861 6.4498392,38.717057 6.7449239,36.41222 7.3460782,34.489302 8.5141064,32.11407 c 1.2666093,-2.575702 2.8089806,-4.735419 4.8281176,-6.760608 1.144639,-1.148071 1.991588,-1.871639 3.102813,-2.650808 0.732476,-0.513598 2.08777,-1.339894 2.726784,-1.662468 l 0.387543,-0.195631 h 10.58689 10.586889 l 0.70248,0.368967 c 1.251723,0.657447 2.393888,1.412441 3.752276,2.480331 0.903353,0.710166 2.869717,2.682217 3.643025,3.653559 2.541476,3.19232 4.26373,6.91484 4.885451,10.559523 0.265133,1.554277 0.341543,2.582926 0.343505,4.624333 0.0029,2.978462 -0.142283,4.026762 -0.97237,7.022769 -0.297016,1.072012 -1.34138,3.404411 -2.120078,4.734812 -0.515782,0.881213 -1.392429,2.158378 -2.030803,2.958627 -0.728678,0.913453 -2.325203,2.538472 -3.273897,3.332327 -3.729271,3.120607 -8.414267,5.107089 -13.409726,5.685851 -0.928945,0.107626 -3.45561,0.124246 -4.293148,0.02824 z M 19.831962,61.52531 c 0.320825,-0.19618 0.64014,-0.405152 0.709588,-0.46438 0.06945,-0.05923 1.092228,-0.71314 2.272844,-1.453137 2.371163,-1.48622 10.696267,-6.779151 13.769301,-8.754241 1.079729,-0.693959 2.004728,-1.277703 2.055555,-1.297206 0.352093,-0.135111 9.713063,-6.335988 9.713063,-6.434111 0,-0.04145 0.01782,-0.05755 0.0396,-0.03577 0.03511,0.03511 0.455475,-0.222952 0.716591,-0.439925 0.05287,-0.04393 0.337617,-0.246361 0.632771,-0.449842 0.295154,-0.203481 0.536644,-0.394172 0.536644,-0.423757 0,-0.06967 -0.796157,-0.651632 -0.899667,-0.657628 -0.0434,-0.0025 -0.07892,-0.03298 -0.07892,-0.06771 0,-0.03472 -0.04025,-0.06313 -0.08944,-0.06313 -0.04919,0 -0.09891,-0.02296 -0.110486,-0.05103 -0.03107,-0.07534 -0.620822,-0.468096 -0.620822,-0.413449 0,0.02567 -0.03551,0.0019 -0.07892,-0.0528 -0.317133,-0.399712 -28.642157,-18.687882 -29.386488,-18.973508 -0.15715,-0.0603 -0.08106,36.043655 0.08322,39.488647 0.0236,0.494817 0.06751,0.899668 0.09757,0.899668 0.03007,0 0.317164,-0.160512 0.637991,-0.356693 z m 24.271396,-0.779729 c 0.417375,0 0.587152,-0.0221 0.587152,-0.07642 0,-0.13634 -0.342631,-1.139109 -0.556337,-1.628217 -0.112517,-0.257514 -0.748674,-1.894818 -0.895355,-2.30441 -0.07461,-0.208344 -0.159469,-0.435628 -0.188574,-0.505076 -0.0635,-0.151535 -0.1452,-0.366643 -0.155853,-0.410375 -0.0042,-0.01736 -0.04235,-0.09391 -0.08471,-0.170103 -0.06485,-0.116639 -0.910245,-2.291781 -1.676092,-4.312449 l -0.203392,-0.536643 -0.794964,-0.01761 -0.794965,-0.01761 -0.300459,0.775224 c -0.165253,0.426373 -0.349949,0.832045 -0.410436,0.901493 -0.06049,0.06945 -0.09861,0.15701 -0.08472,0.194583 0.04005,0.108312 -0.399092,1.19048 -0.443144,1.092039 -0.02143,-0.04789 -0.02503,-0.0292 -0.008,0.04152 0.01703,0.07072 -0.120936,0.525289 -0.306591,1.010153 -0.185655,0.484863 -0.504228,1.318304 -0.70794,1.85209 -0.33179,0.869389 -0.39365,0.985308 -0.593659,1.112449 -0.459506,0.292096 -0.581553,0.604483 -0.453936,1.161883 0.05838,0.254977 0.04083,0.336282 -0.215922,1.000605 -0.153705,0.397693 -0.279463,0.748681 -0.279463,0.779975 0,0.03129 0.306056,0.0569 0.680123,0.0569 h 0.680123 l 0.102331,-0.205187 c 0.09418,-0.188846 0.688707,-1.850195 0.779464,-2.178142 l 0.03931,-0.142052 h 2.319295 2.319297 l 0.141804,0.440285 c 0.109767,0.340818 0.126336,0.469186 0.07334,0.568211 -0.05389,0.10069 -0.04929,0.127925 0.02161,0.127925 0.06983,0 0.270535,0.352828 0.323232,0.568211 0.02535,0.103632 0.121573,0.373712 0.191183,0.536644 0.04451,0.104171 0.0991,0.243872 0.121317,0.310446 0.03079,0.09225 0.05792,0.103517 0.114087,0.04735 0.0456,-0.0456 0.297511,-0.07369 0.660843,-0.07369 z m 0.507367,-2.633962 c -0.01305,-0.165986 -0.02388,-0.0461 -0.02407,0.266417 -1.9e-4,0.312516 0.01048,0.448323 0.02372,0.301794 0.01324,-0.146529 0.0134,-0.402224 3.79e-4,-0.568211 z m -0.883017,-4.164954 c -0.06077,-0.01588 -0.160204,-0.01588 -0.220971,0 -0.06077,0.01588 -0.01105,0.02887 0.110486,0.02887 0.121534,0 0.171252,-0.01299 0.110485,-0.02887 z m -7.199384,-0.760576 c -0.01451,-0.09597 -0.02677,-0.03244 -0.02725,0.141184 -4.42e-4,0.17362 0.0114,0.25214 0.02638,0.174488 0.01499,-0.07765 0.01537,-0.219704 8.59e-4,-0.315672 z m 1.513053,0.224048 c -0.02015,-0.05036 -0.03511,-0.0354 -0.03814,0.03814 -0.0027,0.06655 0.01218,0.103843 0.03316,0.08286 0.02098,-0.02098 0.02322,-0.07543 0.005,-0.121008 z m 2.467206,-2.872595 c -0.06036,-0.0158 -0.174005,-0.01638 -0.252538,-0.0013 -0.07853,0.0151 -0.02915,0.02803 0.109749,0.02873 0.138896,7.01e-4 0.203151,-0.01166 0.142789,-0.02746 z m 1.167253,-0.0012 c -0.07813,-0.01505 -0.205977,-0.01505 -0.284106,0 -0.07813,0.01505 -0.01421,0.02736 0.142053,0.02736 0.156258,0 0.220182,-0.01231 0.142053,-0.02736 z"
       id="path3825"
       inkscape:connector-curvature="0"
       transform="translate(0,972.36216)" />
    <path
       style="fill:#cccccc;fill-opacity:1;stroke-width:0.06313454"
       d="m 27.738887,66.268885 c -3.048723,-0.39341 -5.661413,-1.19254 -8.207489,-2.51038 -2.546852,-1.318242 -4.11005,-2.436233 -6.020963,-4.306162 C 11.371351,57.359137 9.914801,55.351179 8.6094083,52.695928 7.6429213,50.730032 7.0305559,48.973707 6.7181157,47.271512 6.3792827,45.425527 6.3379114,44.860371 6.3387625,42.089326 c 8.384e-4,-2.729838 0.052048,-3.456574 0.3447899,-4.893085 0.5387724,-2.643801 1.9307718,-5.728656 3.8323446,-8.492981 1.128869,-1.641043 3.219674,-3.901463 4.722352,-5.105451 0.899661,-0.720833 2.438966,-1.743209 3.473548,-2.30706 l 0.818697,-0.446194 h 10.625495 10.625496 l 0.77074,0.41801 c 0.99358,0.538867 2.726461,1.691369 3.611794,2.402126 0.856764,0.687822 2.380759,2.165936 3.146091,3.051376 1.281559,1.482683 2.34908,3.087613 3.296528,4.956061 1.374538,2.710703 2.064931,5.08667 2.375709,8.175922 0.106766,1.061295 0.105376,4.417734 -0.0022,5.42957 -0.44981,4.228885 -2.20569,8.400607 -5.035655,11.963994 -0.69927,0.880495 -2.760979,2.949123 -3.603473,3.615567 -0.894984,0.707965 -1.761979,1.319939 -2.576948,1.818957 -3.097642,1.89673 -6.793263,3.158786 -10.511018,3.589516 -1.039843,0.120474 -3.591395,0.1223 -4.514119,0.0032 z m -7.260471,-5.17557 c 0.381964,-0.250806 1.74567,-1.118353 3.030457,-1.927882 3.146689,-1.98269 7.637759,-4.837529 11.616755,-7.384426 1.805647,-1.155769 3.402959,-2.16898 3.549582,-2.25158 0.717209,-0.404041 9.411035,-6.14274 9.622162,-6.351482 0.04758,-0.04704 0.129124,-0.103058 0.18121,-0.124479 0.191501,-0.07876 1.788201,-1.220855 1.790741,-1.280892 0.0014,-0.03413 -0.1807,-0.18434 -0.404765,-0.333799 -0.224065,-0.149459 -0.457434,-0.31282 -0.518598,-0.363024 -0.06116,-0.0502 -0.124842,-0.09128 -0.141507,-0.09128 -0.01666,0 -0.160568,-0.09944 -0.319786,-0.220971 -0.159219,-0.121534 -0.32756,-0.220971 -0.374093,-0.220971 -0.04653,0 -0.09407,-0.02296 -0.105649,-0.05103 -0.03739,-0.09065 -0.603457,-0.450371 -0.64436,-0.409468 -0.02178,0.02178 -0.0396,0.008 -0.0396,-0.03064 0,-0.06811 -0.304017,-0.275081 -3.251428,-2.213499 C 37.65052,33.353252 23.715026,24.385915 20.099609,22.156121 l -1.073287,-0.661946 -0.05181,0.764261 c -0.02849,0.420343 -0.03578,8.165207 -0.0162,17.210807 0.03292,15.204227 0.09373,22.033281 0.198625,22.306631 0.03822,0.0996 0.06834,0.09433 0.334499,-0.05854 0.160872,-0.0924 0.605011,-0.37321 0.986975,-0.624016 z M 44.650813,60.68105 c 0.06674,-0.06284 -0.225453,-0.881886 -1.193206,-3.344734 -0.655332,-1.667765 -1.77158,-4.545294 -2.326651,-5.997781 l -0.20508,-0.536643 -0.789532,-0.01759 -0.789531,-0.01758 -0.239511,0.617363 c -0.131731,0.33955 -0.291362,0.731005 -0.354736,0.869901 -0.06337,0.138896 -0.375234,0.948596 -0.693023,1.799334 -1.294375,3.465112 -1.323959,3.533934 -1.591771,3.702996 -0.435625,0.274998 -0.570486,0.644484 -0.425607,1.16606 0.0562,0.202333 0.031,0.314373 -0.218841,0.972846 -0.155297,0.409297 -0.267594,0.768068 -0.249547,0.797268 0.01805,0.0292 0.324885,0.05309 0.681864,0.05309 0.646484,0 0.649371,-6.88e-4 0.729426,-0.17362 0.10077,-0.217684 0.615822,-1.650332 0.737669,-2.051872 l 0.091,-0.299889 h 2.319211 2.319209 l 0.147486,0.433209 c 0.11865,0.348511 0.13336,0.459604 0.07523,0.568211 -0.05731,0.107082 -0.05453,0.135001 0.01342,0.135001 0.08763,0 0.287671,0.400918 0.425262,0.852316 0.04234,0.138896 0.101955,0.279529 0.132484,0.312516 0.03053,0.03299 0.05551,0.105019 0.05551,0.160068 0,0.08644 0.08826,0.09677 0.647129,0.07571 0.355921,-0.01341 0.671881,-0.04769 0.702134,-0.07618 z m -0.04344,-2.346419 c -0.02015,-0.05036 -0.03511,-0.03541 -0.03814,0.03814 -0.0027,0.06655 0.01218,0.103843 0.03316,0.08286 0.02098,-0.02098 0.02322,-0.07543 0.005,-0.121008 z"
       id="path3827"
       inkscape:connector-curvature="0"
       transform="translate(0,972.36216)" />
    <path
       style="fill:#cccccc;fill-opacity:1;stroke-width:0.06313454"
       d="m 28.212396,66.328135 c -0.08681,-0.01451 -0.413531,-0.05732 -0.726047,-0.09513 -1.262817,-0.152811 -3.121421,-0.567418 -4.419417,-0.98586 -2.235251,-0.72059 -4.747924,-1.988399 -6.715734,-3.38853 -2.12436,-1.511518 -4.308665,-3.707156 -5.771417,-5.80136 C 9.1978539,54.078764 8.0878277,51.885917 7.3459662,49.668878 6.5201337,47.200893 6.2601025,45.077668 6.3249145,41.331712 c 0.036645,-2.117961 0.096518,-2.814169 0.356874,-4.149763 0.5309999,-2.72396 2.2722139,-6.426267 4.2689235,-9.076922 2.267343,-3.009924 4.792172,-5.21343 7.91138,-6.904534 l 0.656519,-0.355938 h 10.645316 10.645316 l 0.904494,0.506351 c 1.948041,1.090548 3.542943,2.283304 5.147571,3.849639 2.114745,2.064279 3.654904,4.201818 4.935905,6.85039 1.406115,2.907256 2.032598,5.32889 2.245797,8.680999 0.08387,1.318634 0.03408,3.742614 -0.09999,4.868609 -0.509665,4.28028 -2.439438,8.625747 -5.368592,12.08901 -0.70204,0.830053 -2.485366,2.577322 -3.271719,3.205569 -3.491095,2.789171 -7.586465,4.547696 -12.323652,5.291695 -0.66097,0.103809 -1.189471,0.132678 -2.714785,0.148298 -1.04172,0.01067 -1.965063,0.0075 -2.051873,-0.007 z m -8.256018,-4.90589 c 0.724251,-0.462759 2.31255,-1.470679 6.740789,-4.277649 1.788286,-1.133557 5.154935,-3.27699 7.481443,-4.763186 2.326507,-1.486194 4.443093,-2.831268 4.703522,-2.989051 1.557989,-0.943919 8.586297,-5.610192 8.586297,-5.700661 0,-0.04214 0.01766,-0.05897 0.03923,-0.03739 0.02158,0.02158 0.208941,-0.08022 0.41636,-0.226232 0.207419,-0.146007 0.467558,-0.322288 0.578087,-0.391736 0.520663,-0.327144 1.544974,-1.052449 1.649616,-1.168078 0.06982,-0.07715 0.09334,-0.150554 0.05841,-0.18228 -0.09744,-0.08849 -1.664746,-1.143456 -1.698777,-1.143456 -0.01742,0 -0.161951,-0.09944 -0.321169,-0.220971 -0.159218,-0.121534 -0.329927,-0.220971 -0.379354,-0.220971 -0.04943,0 -0.08987,-0.02537 -0.08987,-0.05637 0,-0.194385 -28.364552,-18.505179 -28.665668,-18.505179 -0.100293,0 -0.115535,3.147017 -0.08585,17.725374 0.02869,14.091735 0.09634,22.350881 0.184241,22.493102 0.0678,0.109695 0.178964,0.06326 0.802689,-0.335266 z m 17.149288,-1.169044 c 0.104435,-0.270809 0.308733,-0.839019 0.453996,-1.262691 l 0.264113,-0.77031 h 2.313294 2.313294 l 0.144537,0.403016 c 0.0921,0.256794 0.129495,0.462953 0.103077,0.568211 -0.0228,0.09086 -0.01483,0.165194 0.01772,0.165194 0.0628,0 0.225876,0.346616 0.467836,0.994369 l 0.147393,0.394591 0.600871,-9.66e-4 c 0.330479,-5.05e-4 0.637109,-0.02397 0.6814,-0.05207 0.09851,-0.06252 -0.161106,-0.812951 -1.182942,-3.419361 -0.387982,-0.989634 -1.045802,-2.680061 -1.46182,-3.756505 -0.416018,-1.076443 -0.823022,-2.127633 -0.904453,-2.335977 l -0.148055,-0.378808 -0.783469,-0.01758 -0.783468,-0.01758 -0.57721,1.469672 c -0.317465,0.808319 -0.737493,1.895829 -0.933395,2.416689 -1.112914,2.958992 -1.094304,2.917785 -1.425041,3.155396 -0.380797,0.273575 -0.483459,0.552096 -0.380484,1.032252 0.06616,0.308503 0.05655,0.357614 -0.208669,1.066182 -0.199406,0.53274 -0.257147,0.756064 -0.204192,0.789751 0.04061,0.02583 0.348772,0.0474 0.684807,0.04794 l 0.610973,9.66e-4 z"
       id="path3829"
       inkscape:connector-curvature="0"
       transform="translate(0,972.36216)" />
    <path
       style="fill:#cccccc;fill-opacity:1;stroke-width:0.06313454"
       d="M 22.214615,41.781448 V 27.666274 l 1.057504,0.680542 c 0.581627,0.374298 4.418287,2.834591 8.525912,5.467316 4.107624,2.632726 7.454582,4.800599 7.437685,4.817496 -0.0169,0.0169 -1.502586,-0.905733 -3.301529,-2.050289 C 29.739768,32.640211 23.322385,28.602783 22.930234,28.40004 l -0.199831,-0.103313 -0.03777,0.235606 c -0.100124,0.624516 -0.16068,6.768358 -0.161471,16.382263 -4.79e-4,5.82495 0.01603,10.590819 0.03668,10.590819 0.02065,0 0.738016,-0.450319 1.594147,-1.000709 0.85613,-0.55039 4.184575,-2.686066 7.396545,-4.745946 8.435525,-5.409819 12.178456,-7.852912 12.278146,-8.014214 0.02385,-0.03859 -0.412583,-0.363007 -1.03668,-0.770592 -0.59283,-0.387167 -1.064581,-0.717233 -1.048334,-0.733479 0.03652,-0.03653 2.43508,1.498378 2.430397,1.555279 -0.0024,0.02898 -19.045483,12.254517 -21.762253,13.971212 l -0.205188,0.129655 z"
       id="path3831"
       inkscape:connector-curvature="0"
       transform="translate(0,972.36216)" />
    <path
       style="fill:#cccccc;fill-opacity:1;stroke-width:0.06313454"
       d="m 19.037556,50.202114 c -0.05796,-9.412244 -0.03565,-28.501901 0.03339,-28.570924 0.08336,-0.08334 7.122206,4.382447 17.285803,10.966961 5.172786,3.351203 5.749851,3.730802 5.718784,3.761869 -0.01689,0.01689 -5.164319,-3.261208 -11.438737,-7.284655 -6.274418,-4.023447 -11.432227,-7.324813 -11.461797,-7.336368 -0.02957,-0.01156 -0.06092,8.284323 -0.06966,18.435284 -0.015,17.425416 -0.01879,17.985521 -0.06779,10.027833 z"
       id="path3833"
       inkscape:connector-curvature="0"
       transform="translate(0,972.36216)" />
    <path
       style="fill:#cccccc;fill-opacity:1;stroke-width:0.06313454"
       d="M 24.38872,65.801408 C 21.68494,65.120997 19.301859,64.085273 17.020041,62.598867 10.938302,58.637141 7.013174,52.299158 6.1365527,45.025082 5.9811307,43.735413 5.9812733,40.9236 6.1368248,39.658647 6.8310169,34.013438 9.1787963,29.141592 13.089829,25.230559 19.972322,18.348067 30.210893,16.26699 39.26094,19.911057 c 1.106984,0.445735 2.84709,1.339427 3.838834,1.971567 6.501542,4.144096 10.584421,10.939179 11.192983,18.628339 0.09036,1.141738 0.03988,3.666305 -0.09341,4.671955 -0.574682,4.335559 -2.129838,8.234429 -4.601927,11.537312 -3.040025,4.061685 -7.100201,6.997011 -11.852311,8.568692 -1.274817,0.421624 -2.727685,0.760509 -3.240564,0.755869 l -0.4522,-0.0041 0.91545,-0.21123 c 4.167907,-0.961698 7.831752,-2.764347 10.827573,-5.327276 4.682423,-4.005819 7.717484,-9.727177 8.243777,-15.540246 0.09174,-1.013304 0.09207,-3.707141 5.68e-4,-4.766657 -0.175145,-2.028704 -0.49025,-3.654664 -1.009529,-5.20935 -2.815651,-8.429863 -9.813757,-14.585107 -18.472763,-16.247876 -1.614264,-0.309984 -2.458486,-0.384176 -4.38785,-0.385616 -1.900916,-0.0014 -2.555893,0.04976 -4.103745,0.320645 -3.891078,0.68097 -7.66409,2.374476 -10.732402,4.817208 -3.600885,2.866722 -6.5257168,7.035816 -8.0677354,11.499857 -0.6959064,2.014603 -0.9349928,3.517751 -1.0036489,6.309986 -0.078697,3.200587 0.2375547,5.841314 0.9705416,8.104107 2.6864636,8.293342 9.3469747,14.408139 17.8862267,16.420758 0.81735,0.192641 0.878241,0.215761 0.568211,0.215748 -0.19253,-8e-6 -0.770976,-0.106648 -1.298295,-0.239349 z"
       id="path3835"
       inkscape:connector-curvature="0"
       transform="translate(0,972.36216)" />
    <path
       style="fill:#cccccc;fill-opacity:1;stroke-width:0.06313454"
       d="m 36.085873,58.938429 c -0.02464,-0.02464 -0.0448,-0.19966 -0.0448,-0.38894 0,-0.317672 0.01955,-0.36369 0.254086,-0.59823 0.139747,-0.139747 0.267339,-0.240832 0.283538,-0.224633 0.0162,0.0162 -0.07798,0.30556 -0.209292,0.643024 -0.131309,0.337465 -0.258901,0.593415 -0.283537,0.568779 z"
       id="path3837"
       inkscape:connector-curvature="0"
       transform="translate(0,972.36216)" />
  </g>
</svg>
