<?xml version="1.0" encoding="UTF-8" standalone="no"?>
<!-- Created with Inkscape (http://www.inkscape.org/) -->

<svg
   xmlns:dc="http://purl.org/dc/elements/1.1/"
   xmlns:cc="http://creativecommons.org/ns#"
   xmlns:rdf="http://www.w3.org/1999/02/22-rdf-syntax-ns#"
   xmlns:svg="http://www.w3.org/2000/svg"
   xmlns="http://www.w3.org/2000/svg"
   xmlns:sodipodi="http://sodipodi.sourceforge.net/DTD/sodipodi-0.dtd"
   xmlns:inkscape="http://www.inkscape.org/namespaces/inkscape"
   width="60"
   height="80"
   viewBox="0 0 60.000001 80.000001"
   id="svg2"
   version="1.1"
   inkscape:version="0.92.0 r15299"
   sodipodi:docname="Assault_enemy.svg">
  <defs
     id="defs4" />
  <sodipodi:namedview
     id="base"
     pagecolor="#ffffff"
     bordercolor="#666666"
     borderopacity="1.0"
     inkscape:pageopacity="0.0"
     inkscape:pageshadow="2"
     inkscape:zoom="11.2"
     inkscape:cx="41.530918"
     inkscape:cy="24.351655"
     inkscape:document-units="px"
     inkscape:current-layer="layer1"
     showgrid="false"
     units="px"
     inkscape:window-width="1366"
     inkscape:window-height="745"
     inkscape:window-x="-8"
     inkscape:window-y="-8"
     inkscape:window-maximized="1" />
  <metadata
     id="metadata7">
    <rdf:RDF>
      <cc:Work
         rdf:about="">
        <dc:format>image/svg+xml</dc:format>
        <dc:type
           rdf:resource="http://purl.org/dc/dcmitype/StillImage" />
        <dc:title />
      </cc:Work>
    </rdf:RDF>
  </metadata>
  <g
     inkscape:label="Layer 1"
     inkscape:groupmode="layer"
     id="layer1"
     transform="translate(0,-972.36216)">
    <path
       sodipodi:type="star"
       style="fill:none;fill-opacity:1;stroke:#000000;stroke-width:5;stroke-miterlimit:4;stroke-dasharray:none;stroke-opacity:1"
       id="path4169"
       sodipodi:sides="3"
       sodipodi:cx="24.285715"
       sodipodi:cy="1013.4336"
       sodipodi:r1="29.104404"
       sodipodi:r2="14.552202"
       sodipodi:arg1="2.0943951"
       sodipodi:arg2="3.1415927"
       inkscape:flatsided="false"
       inkscape:rounded="0"
       inkscape:randomized="0"
       d="m 9.7335129,1038.6387 0,-25.2051 -10e-8,-25.20516 21.8283042,12.60256 21.828303,12.6026 -21.828304,12.6026 z"
       inkscape:transform-center-x="-4.4446554"
       transform="matrix(0.61085675,0,0,0.67823017,14.732782,326.80664)" />
    <circle
       style="fill:none;fill-opacity:1;stroke:#000000;stroke-width:5.60402679;stroke-miterlimit:4;stroke-dasharray:none;stroke-opacity:1"
       id="path4171"
       cx="30.178572"
       cy="1014.6836"
       r="27.019415" />
    <path
       style="fill:#cccccc;stroke-width:0.35714287"
       d="m 22.530883,41.923844 c 0,-7.486877 0.09838,-13.612503 0.218618,-13.612503 0.156949,0 20.333113,12.7921 21.13104,13.397511 0.05481,0.04159 -4.364831,2.933106 -9.821429,6.425598 -5.456597,3.492492 -10.282693,6.586665 -10.724657,6.875941 l -0.803572,0.525957 z"
       id="path11"
       inkscape:connector-curvature="0"
       transform="translate(0,972.36216)" />
    <path
       style="fill:#d40000;fill-opacity:1"
       d="M 28.245169,66.299755 C 18.257078,65.299819 10.099868,58.631662 7.1135858,49.025626 6.0379459,45.565593 5.9610716,39.301808 6.953601,35.989912 c 1.6532,-5.516439 5.327246,-10.556067 9.923144,-13.611415 13.353239,-8.877216 31.237949,-2.512965 36.243299,12.897129 1.18275,3.641358 1.333236,9.407038 0.340082,13.029611 -1.8948,6.911343 -6.516396,12.484932 -12.893528,15.549436 -3.953198,1.899693 -8.586049,2.819043 -12.321429,2.445082 z m 6.638756,-14.3277 C 43.402862,46.521162 50.328762,41.918706 50.274808,41.744374 50.198026,41.496267 26.605804,26.188347 20.29874,22.294266 l -1.339285,-0.826897 v 20.2077 c 0,11.114235 0.09799,20.2077 0.217745,20.2077 0.11976,0 7.187787,-4.459821 15.706725,-9.910714 z m 6.882958,9.688514 c 1.56534,-0.313068 2.906857,-1.762132 2.906857,-3.139893 0,-2.095035 -0.806482,-2.717943 -4.873991,-3.764553 -1.798861,-0.462861 -2.271051,-1.361524 -1.179725,-2.245226 0.794011,-0.642951 2.351309,-0.823882 3.053824,-0.354802 0.216128,0.144314 0.583389,0.623996 0.816135,1.06596 0.232747,0.441964 0.738947,0.803571 1.124893,0.803571 1.070357,0 0.874386,-1.310853 -0.384118,-2.569355 -1.013832,-1.013833 -1.226096,-1.075694 -3.200902,-0.932849 -2.654413,0.192002 -3.570401,0.922342 -3.570401,2.846767 0,1.763734 0.740118,2.407084 3.847506,3.344462 2.01669,0.608354 2.422279,0.863222 2.525697,1.587132 0.153797,1.076543 -0.761453,1.795272 -2.286157,1.795272 -1.234957,0 -3.015618,-1.175175 -3.015618,-1.990207 0,-0.280386 -0.200893,-0.507332 -0.446428,-0.504325 -2.263818,0.02775 -0.880514,3.125532 1.747339,3.913028 1.324886,0.397036 1.605649,0.410907 2.935089,0.145018 z"
       id="path13"
       inkscape:connector-curvature="0"
       transform="translate(0,972.36216)" />
    <path
       style="fill:#d40000;fill-opacity:1;stroke-width:0.06313454"
       d=""
       id="path4492"
       inkscape:connector-curvature="0"
       transform="translate(0,972.36216)" />
    <path
       style="fill:#d40000;fill-opacity:1;stroke-width:0.06313454"
       d="m 40.049795,61.797733 c -0.382159,-0.05125 -1.397267,-0.351309 -1.788247,-0.528588 -0.882728,-0.400248 -1.677812,-1.132294 -2.05059,-1.888011 -0.167521,-0.339608 -0.201774,-0.482494 -0.201774,-0.841711 0,-0.406958 0.01199,-0.443379 0.201823,-0.612993 0.206127,-0.184174 0.55373,-0.313408 0.844676,-0.314038 0.199707,-4.42e-4 0.437163,0.239385 0.437163,0.441509 0,0.758536 1.496635,1.848263 2.818163,2.051955 0.383498,0.05911 1.187131,-0.07177 1.612334,-0.262594 0.820801,-0.368353 1.160932,-1.19008 0.793886,-1.917956 -0.225872,-0.447916 -0.566613,-0.621826 -2.410335,-1.230203 -0.905333,-0.298734 -1.910262,-0.672415 -2.233176,-0.830401 -1.238165,-0.605774 -1.659392,-1.34308 -1.574028,-2.755139 0.105097,-1.738469 0.978241,-2.354646 3.644806,-2.572138 1.766946,-0.144118 2.101826,-0.03853 3.071131,0.968306 0.872595,0.906383 1.219515,1.64727 1.008177,2.153074 -0.07221,0.172826 -0.147519,0.236917 -0.349477,0.297425 -0.493503,0.147857 -1.029384,-0.15815 -1.394503,-0.796312 -0.330518,-0.577684 -0.722808,-1.013206 -1.019594,-1.131956 -1.136617,-0.454784 -3.004261,0.172903 -3.370889,1.132904 -0.137272,0.35944 -0.05089,0.634082 0.2988,0.950006 0.346793,0.313307 0.71432,0.465438 1.966646,0.814057 3.586282,0.998338 4.335005,1.631559 4.261972,3.6045 -0.02184,0.590068 -0.04262,0.679146 -0.26198,1.122984 -0.409516,0.828599 -1.258921,1.561994 -2.15841,1.863619 -0.208344,0.06986 -0.680764,0.171799 -1.049823,0.226523 -0.670195,0.09938 -0.740729,0.102926 -1.096751,0.05518 z"
       id="path4494"
       inkscape:connector-curvature="0"
       transform="translate(0,972.36216)" />
    <path
       style="fill:#d40000;fill-opacity:1;stroke-width:0.06313454"
       d="M 28.874982,66.321394 C 24.636326,66.065165 20.109729,64.473021 16.533306,61.980446 14.823571,60.788851 12.783837,58.883168 11.522864,57.299285 9.0304719,54.168644 7.2362941,50.34938 6.6561064,46.939423 6.3883779,45.365894 6.3366768,44.565461 6.3382123,42.01781 c 0.0016,-2.661023 0.079347,-3.632824 0.4100753,-5.126002 0.7571466,-3.418378 3.0203495,-7.64501 5.6645054,-10.578713 l 0.469453,-0.52086 h 3.01559 3.015591 l 0.03853,15.578446 c 0.03528,14.266436 0.09401,20.140026 0.20423,20.427261 0.04975,0.129641 -0.230478,0.288456 2.521459,-1.429004 9.688108,-6.046264 26.737475,-17.065688 26.737475,-17.281086 0,-0.03704 0.02305,-0.05309 0.05123,-0.03568 0.02817,0.01741 0.193405,-0.07595 0.367177,-0.207473 0.173772,-0.131524 0.527159,-0.384682 0.785305,-0.562576 0.663545,-0.457263 0.723828,-0.50967 0.655366,-0.569751 -0.156851,-0.137648 -0.925196,-0.641579 -0.978217,-0.641579 -0.03306,0 -0.06011,-0.02841 -0.06011,-0.06313 0,-0.03472 -0.04025,-0.06313 -0.08944,-0.06313 -0.04919,0 -0.09891,-0.02296 -0.110486,-0.05103 -0.03107,-0.07534 -0.620823,-0.468096 -0.620823,-0.413449 0,0.02567 -0.03551,0.0019 -0.07892,-0.05291 C 48.242533,40.30895 47.080268,39.534326 42.796148,36.734821 38.085885,33.656839 28.350841,27.363218 26.349601,26.102264 l -0.441942,-0.278462 10.776477,-0.01596 10.776476,-0.01597 0.320354,0.338727 c 1.474646,1.559221 2.801421,3.503012 3.884498,5.690983 1.539748,3.110514 2.133972,5.372254 2.374014,9.03599 0.180349,2.752656 -0.08868,5.662722 -0.727055,7.864486 -2.041836,7.042327 -7.063022,12.720727 -13.767705,15.569735 -3.465977,1.472791 -7.424474,2.225778 -10.669736,2.029601 z m 12.680124,-4.60946 c 0.903659,-0.183362 1.450768,-0.461818 2.07026,-1.053677 0.397218,-0.3795 0.553889,-0.585645 0.757726,-0.997006 0.221364,-0.446732 0.261415,-0.591819 0.289059,-1.047144 0.05557,-0.915202 -0.145669,-1.592275 -0.629129,-2.116767 -0.568779,-0.617052 -1.477136,-0.998178 -4.119496,-1.728445 -1.120493,-0.30967 -1.862469,-0.812752 -1.862469,-1.26281 0,-0.601056 0.662009,-1.190246 1.664948,-1.481808 0.510655,-0.148452 1.426979,-0.112972 1.775884,0.06876 0.259891,0.135369 0.773337,0.71411 0.941554,1.061291 0.238941,0.49315 0.747062,0.859042 1.192965,0.859042 0.25695,0 0.336745,-0.03087 0.498881,-0.193008 0.180077,-0.180076 0.190643,-0.215925 0.157703,-0.535087 -0.05775,-0.559578 -0.376056,-1.113005 -1.035163,-1.799828 -0.334852,-0.348933 -0.721819,-0.682971 -0.915451,-0.790236 l -0.335413,-0.185807 -1.26269,0.0077 c -1.010017,0.0062 -1.394013,0.03424 -1.918947,0.140373 -1.616794,0.326878 -2.240698,0.95512 -2.374473,2.390982 -0.08534,0.916 0.165332,1.725321 0.692317,2.235216 0.528297,0.511164 1.27764,0.844431 3.537968,1.573498 1.074229,0.346492 1.690962,0.640278 1.88562,0.898232 0.582917,0.772463 0.125378,1.842019 -0.925604,2.163716 -0.520952,0.159459 -1.210761,0.187135 -1.686063,0.06765 -0.790547,-0.198739 -1.771983,-0.794888 -2.171985,-1.319318 -0.0903,-0.11839 -0.189074,-0.34849 -0.219496,-0.511335 -0.07966,-0.426421 -0.209924,-0.544068 -0.602396,-0.544068 -0.412678,0 -0.720691,0.162936 -0.907543,0.480081 -0.180447,0.306275 -0.155057,0.693402 0.07901,1.204677 0.563917,1.231759 1.82366,2.09201 3.664571,2.502455 0.328471,0.07324 1.173449,0.03126 1.757849,-0.08732 z"
       id="path4496"
       inkscape:connector-curvature="0"
       transform="translate(0,972.36216)" />
    <path
       style="fill:#d40000;fill-opacity:1;stroke-width:0.06313454"
       d="M 28.78028,66.47658 C 27.572825,66.372133 26.921709,66.294235 26.12863,66.159339 20.18208,65.147886 14.806396,61.932516 11.092916,57.165993 8.6565499,54.038739 6.9925782,50.256945 6.3402471,46.364357 6.0786768,44.803515 6.0226713,44.085907 6.0231948,42.301915 c 4.856e-4,-1.654559 0.04898,-2.346891 0.2587009,-3.69337 0.6969961,-4.474944 2.6576398,-8.690388 5.6588723,-12.166749 0.427429,-0.495096 0.597616,-0.649561 0.715675,-0.649561 0.137082,0 0.0831,0.08308 -0.469538,0.722595 -1.961138,2.26945 -3.4786202,4.772085 -4.5767776,7.548029 -1.0509048,2.656497 -1.3336494,4.358238 -1.3322066,8.018085 8.965e-4,2.273961 0.070612,3.260409 0.3435703,4.86136 0.6080442,3.566296 2.542381,7.593983 5.1394079,10.701303 4.400609,5.265289 11.006443,8.52428 17.682294,8.723568 2.402861,0.07173 4.77624,-0.267934 7.410235,-1.060509 7.795404,-2.345656 13.711884,-8.09614 16.263718,-15.807414 0.716921,-2.166428 0.99067,-4.074381 0.991896,-6.913231 0.0018,-4.210954 -0.649112,-7.202255 -2.310578,-10.61808 -0.970455,-1.995167 -2.28447,-3.960228 -3.714182,-5.554424 -0.496094,-0.553167 -0.540042,-0.621282 -0.400858,-0.621282 0.184593,0 0.845923,0.720373 1.72972,1.884149 2.629277,3.462206 4.194655,7.312464 4.784084,11.767102 0.135237,1.022062 0.187215,3.621604 0.09456,4.729325 -0.372333,4.451475 -1.884158,8.629045 -4.395572,12.146117 -1.189294,1.665529 -3.020847,3.615526 -4.511555,4.80331 -3.696333,2.945208 -7.825982,4.673925 -12.500638,5.232906 -0.80294,0.09601 -3.481377,0.175273 -4.103745,0.121436 z"
       id="path4502"
       inkscape:connector-curvature="0"
       transform="translate(0,972.36216)" />
    <path
       style="fill:#d40000;fill-opacity:1;stroke-width:0.06313454"
       d="m 22.532123,47.905105 c 0.0022,-7.842622 0.0848,-17.406225 0.161864,-18.750956 0.02438,-0.425369 0.06938,-0.773398 0.100006,-0.773398 0.142316,0 14.366294,8.978021 19.433943,12.266495 0.746566,0.484457 1.407111,0.912624 1.467878,0.951481 0.06077,0.03886 0.110485,0.0919 0.110485,0.117864 0,0.11406 -3.605408,2.460379 -15.499528,10.086746 -2.777919,1.781169 -5.192436,3.333808 -5.365592,3.450309 -0.173157,0.1165 -0.336517,0.21182 -0.363024,0.21182 -0.02651,0 -0.04722,-3.402163 -0.04603,-7.560361 z"
       id="path4504"
       inkscape:connector-curvature="0"
       transform="translate(0,972.36216)" />
    <path
       style="fill:#d40000;fill-opacity:1;stroke-width:0.06313454"
       d=""
       id="path4506"
       inkscape:connector-curvature="0"
       transform="translate(0,972.36216)" />
    <path
       style="fill:#d40000;fill-opacity:1;stroke-width:0.01578363"
       d="m 23.878679,54.664605 c 0.06511,-0.04179 0.734787,-0.471642 1.488175,-0.955237 0.753389,-0.483594 3.086605,-1.978926 5.184924,-3.322958 5.975532,-3.827497 7.837308,-5.02533 9.604097,-6.179104 0.128223,-0.08373 0.236538,-0.152243 0.2407,-0.152243 0.0042,0 0.0076,0.04812 0.0076,0.106924 v 0.106924 l -8.167862,5.235836 -8.167861,5.235836 -0.15406,-2e-6 -0.154059,-2e-6 z"
       id="path4510"
       inkscape:connector-curvature="0"
       transform="translate(0,972.36216)" />
    <path
       style="fill:#d40000;fill-opacity:1;stroke-width:0.01578363"
       d="m 19.177945,61.833083 c 0.0029,-0.01476 4.571296,-2.953115 10.611705,-6.825371 l 10.606602,-6.799452 0.0048,0.0976 c 0.0042,0.08514 5.05e-4,0.10062 -0.02916,0.121272 -0.0187,0.01302 -0.475452,0.310024 -1.014998,0.660006 -5.024853,3.259412 -16.448138,10.522237 -19.305793,12.274452 -0.803762,0.49284 -0.886166,0.537335 -0.873203,0.471496 z"
       id="path4512"
       inkscape:connector-curvature="0"
       transform="translate(0,972.36216)" />
    <path
       style="fill:#d40000;fill-opacity:1;stroke-width:0.01578363"
       d="m 22.205614,51.575964 v -4.348391 h 0.157836 0.157837 v 4.151096 c 0,2.60337 0.0056,4.151095 0.01495,4.151095 0.0082,0 0.180464,-0.108725 0.382753,-0.241612 0.202289,-0.132888 0.475425,-0.310729 0.606969,-0.395204 l 0.23917,-0.15359 0.145846,0.0046 0.145846,0.0046 -0.917719,0.58794 c -0.504746,0.323367 -0.921268,0.58794 -0.925605,0.58794 -0.0043,0 -0.0079,-1.956776 -0.0079,-4.348391 z"
       id="path4514"
       inkscape:connector-curvature="0"
       transform="translate(0,972.36216)" />
    <path
       style="fill:#d40000;fill-opacity:1;stroke-width:0.01578363"
       d="m 22.205614,42.808156 v -4.419418 h 0.168322 0.168322 l -0.01047,1.124584 c -0.0058,0.618521 -0.01048,2.607259 -0.01049,4.419418 l -1.2e-5,3.294833 H 22.36345 22.205614 Z"
       id="path4516"
       inkscape:connector-curvature="0"
       transform="translate(0,972.36216)" />
    <path
       style="fill:#d40000;fill-opacity:1;stroke-width:0.01578363"
       d="m 22.205614,35.232012 v -3.156727 h 0.196926 0.196926 l -0.0078,0.169674 c -0.01042,0.22567 -0.03591,2.59522 -0.04907,4.56147 l -0.01059,1.582309 h -0.163177 -0.163178 z"
       id="path4518"
       inkscape:connector-curvature="0"
       transform="translate(0,972.36216)" />
    <path
       style="fill:#d40000;fill-opacity:1;stroke-width:0.01578363"
       d="M 39.796474,39.055343 C 33.130639,34.79273 23.297087,28.588927 22.795093,28.329493 c -0.06138,-0.03172 -0.06218,-0.0302 -0.08377,0.15962 -0.03885,0.341628 -0.110967,2.50315 -0.111085,3.329688 l -3.7e-5,0.256484 H 22.40291 22.205614 v -2.219416 -2.219416 l 0.03551,0.0231 c 0.01953,0.0127 4.105323,2.6316 9.079535,5.819772 4.974213,3.188171 9.053362,5.805507 9.064775,5.816303 0.01229,0.01162 0.01873,0.04484 0.01578,0.08144 l -0.005,0.06182 z"
       id="path4520"
       inkscape:connector-curvature="0"
       transform="translate(0,972.36216)" />
    <path
       style="fill:#d40000;fill-opacity:1;stroke-width:0.02232143"
       d="m 40.415007,44.148481 c -0.0051,-0.05709 -0.0086,-0.104332 -0.0077,-0.104989 9.06e-4,-6.57e-4 0.132228,-0.08545 0.291826,-0.188434 0.571887,-0.369016 2.683515,-1.7718 2.929687,-1.946233 0.138114,-0.09786 0.251116,-0.186119 0.251116,-0.196121 0,-0.02306 -0.832913,-0.571464 -2.287946,-1.506412 -0.626116,-0.402318 -1.149477,-0.742885 -1.163025,-0.756815 -0.01355,-0.01393 -0.01857,-0.04796 -0.01116,-0.07563 0.01245,-0.04648 0.156805,0.04149 1.899632,1.157625 1.037389,0.664359 1.899022,1.220023 1.91474,1.23481 0.02268,0.02133 -0.26308,0.213789 -1.383928,0.932064 -0.77688,0.497849 -1.640092,1.051147 -1.91825,1.229552 l -0.505743,0.324374 z"
       id="path4522"
       inkscape:connector-curvature="0"
       transform="translate(0,972.36216)" />
    <path
       style="fill:#d40000;fill-opacity:1;stroke-width:0.02232143"
       d=""
       id="path4524"
       inkscape:connector-curvature="0"
       transform="translate(0,972.36216)" />
    <path
       style="fill:#d40000;fill-opacity:1;stroke-width:0.02232143"
       d="m 30.209228,54.995452 c 0.01166,-0.01112 0.709263,-0.459562 1.550223,-0.996541 8.794944,-5.615844 16.508681,-10.665443 16.658202,-10.904865 0.01465,-0.02347 0.04778,-0.04266 0.07362,-0.04266 0.05151,0 0.224317,-0.106265 0.480072,-0.295209 0.09094,-0.06718 0.391345,-0.280558 0.667573,-0.474168 0.466246,-0.326796 0.669643,-0.487452 0.669643,-0.528927 0,-0.0093 -0.0226,-0.0385 -0.05022,-0.06487 -0.06544,-0.06247 -0.782084,-0.537726 -0.900609,-0.597254 -0.0503,-0.02526 -0.108289,-0.07162 -0.128862,-0.103022 -0.02057,-0.0314 -0.05817,-0.05709 -0.08354,-0.05709 -0.02537,0 -0.09989,-0.04771 -0.165588,-0.106027 -0.137699,-0.122218 -0.486467,-0.346752 -0.545347,-0.35109 -0.02195,-0.0016 -0.08732,-0.04468 -0.145273,-0.09568 -0.05795,-0.05101 -0.27265,-0.207576 -0.477113,-0.347926 -0.84906,-0.582823 -4.713465,-3.117302 -8.662179,-5.68111 l -1.035964,-0.672627 h 7.191891 7.191892 l 0.04556,0.106027 c 0.102021,0.237395 0.402844,1.0682 0.519291,1.434151 0.508614,1.598399 0.783571,3.161304 0.950321,5.401786 0.105116,1.412351 0.08433,3.088126 -0.05634,4.542411 -0.09553,0.987574 -0.288926,2.138908 -0.501116,2.983183 -0.515663,2.051767 -1.457224,4.309121 -2.60556,6.246728 -0.1055,0.178013 -0.235219,0.391462 -0.288262,0.47433 l -0.09644,0.15067 h -4.813845 -4.813844 l -0.526453,-0.147783 c -0.669833,-0.188031 -0.977685,-0.293775 -1.290029,-0.443109 -0.327829,-0.156738 -0.543373,-0.298255 -0.710231,-0.466307 -0.188662,-0.190012 -0.242491,-0.312642 -0.229066,-0.521841 0.03363,-0.523985 0.629758,-1.064707 1.490318,-1.351796 0.321187,-0.10715 0.528856,-0.13641 0.959821,-0.135235 0.436035,0.0012 0.726121,0.0456 0.935494,0.143216 0.264218,0.123189 0.776752,0.696095 0.996266,1.113619 0.278723,0.53014 0.843201,0.873179 1.324816,0.805104 0.160331,-0.02266 0.203222,-0.04461 0.343321,-0.175653 0.154432,-0.144453 0.180667,-0.204876 0.17669,-0.40694 -0.01257,-0.638463 -0.348535,-1.239809 -1.138027,-2.036938 -0.379421,-0.38309 -0.645576,-0.601437 -0.928294,-0.761546 l -0.218462,-0.12372 -0.226929,0.0033 c -0.12481,0.0018 -0.196794,0.0073 -0.159964,0.01218 0.289477,0.03818 0.615124,0.170779 0.881696,0.359004 0.187578,0.132448 0.800605,0.735252 1.032065,1.014853 0.544603,0.657875 0.780991,1.190913 0.7066,1.593331 -0.05631,0.304595 -0.202614,0.43512 -0.547251,0.488225 -0.131078,0.0202 -0.352823,-0.02566 -0.521771,-0.107898 -0.22063,-0.107398 -0.528104,-0.425536 -0.714286,-0.739059 -0.294726,-0.496308 -0.685228,-0.944919 -0.93056,-1.069032 -0.616826,-0.312052 -1.696932,-0.231957 -2.519486,0.186831 -0.54933,0.279681 -0.916763,0.686377 -0.992889,1.098986 -0.05335,0.289158 0.09224,0.567475 0.442393,0.845732 0.30293,0.240728 0.803516,0.44161 1.776015,0.712704 l 0.353597,0.09857 -1.823128,0.0057 -1.823127,0.0057 -0.04213,-0.05035 c -0.09197,-0.109928 -0.269552,-0.503049 -0.321909,-0.712641 -0.152556,-0.610699 -0.10867,-1.526339 0.100644,-2.099874 0.277414,-0.760133 0.920717,-1.194609 2.119866,-1.431724 0.312947,-0.06188 0.865599,-0.134191 1.383929,-0.181077 l 0.345982,-0.0313 -0.435268,0.01115 c -0.505305,0.01295 -0.897758,0.05329 -1.292723,0.132888 -1.501772,0.302661 -2.125954,0.862508 -2.338021,2.097041 -0.05414,0.315191 -0.05444,0.979646 -5.58e-4,1.238839 0.07307,0.351488 0.202175,0.685569 0.363984,0.941891 l 0.05359,0.0849 h -3.352958 c -2.003242,0 -3.344423,-0.0081 -3.331753,-0.02022 z"
       id="path4526"
       inkscape:connector-curvature="0"
       transform="translate(0,972.36216)" />
    <path
       style="fill:#d40000;fill-opacity:1;stroke-width:0.02232143"
       d="m 40.41986,48.347927 c -1.67e-4,-0.02192 -0.006,-0.06098 -0.01291,-0.08682 -0.01119,-0.04168 0.431462,-0.331626 3.930537,-2.574604 2.16873,-1.3902 3.948218,-2.522563 3.954419,-2.516363 0.0062,0.0062 -0.09248,0.0835 -0.219295,0.171767 -0.346671,0.24131 -3.503569,2.344336 -4.471639,2.978866 -1.412023,0.925523 -3.087321,2.016967 -3.135464,2.042733 -0.03768,0.02017 -0.04539,0.01753 -0.04565,-0.01558 z"
       id="path4528"
       inkscape:connector-curvature="0"
       transform="translate(0,972.36216)" />
    <path
       style="fill:#d40000;fill-opacity:1;stroke-width:0.02232143"
       d="m 37.411647,33.446803 -10.765213,-6.902117 0.167929,-0.0065 0.16793,-0.0065 0.240141,0.153992 c 5.430885,3.482572 10.804921,6.959917 15.753535,10.193545 2.895297,1.891906 5.234375,3.438322 5.234375,3.46056 0,0.0059 -0.0075,0.01039 -0.01674,0.01 -0.0092,-4.33e-4 -4.861088,-3.106738 -10.781956,-6.902902 z"
       id="path4530"
       inkscape:connector-curvature="0"
       transform="translate(0,972.36216)" />
    <path
       style="fill:#d40000;fill-opacity:1;stroke-width:0.02232143"
       d="m 25.136479,25.342038 -0.741276,-0.471459 -9.12e-4,-2.914703 -9.12e-4,-2.914703 0.217634,-0.0497 c 1.223305,-0.27934 2.210738,-0.442929 3.309152,-0.54823 1.296629,-0.124304 2.84454,-0.132793 4.151786,-0.02277 5.651067,0.475618 10.9384,2.91942 14.961504,6.915198 l 0.429121,0.426205 -1.305804,0.01502 c -0.718192,0.0083 -5.574777,0.01988 -10.792411,0.02581 l -9.486607,0.01079 z"
       id="path4532"
       inkscape:connector-curvature="0"
       transform="translate(0,972.36216)" />
    <path
       style="fill:#d40000;fill-opacity:1;stroke-width:0.02232143"
       d=""
       id="path4534"
       inkscape:connector-curvature="0"
       transform="translate(0,972.36216)" />
    <path
       style="fill:#d40000;fill-opacity:1;stroke-width:0.02232143"
       d="m 12.702191,25.90099 c 0.05135,-0.129194 -0.03465,-0.162085 -0.174923,-0.0669 -0.04696,0.03187 -0.09043,0.05289 -0.0966,0.04672 -0.03237,-0.03237 1.117026,-1.166457 1.74096,-1.717763 2.652825,-2.344028 5.862975,-4.104618 9.291118,-5.095663 1.660407,-0.48001 3.284874,-0.765751 5.145089,-0.905015 0.51935,-0.03888 2.617536,-0.03935 3.136161,-7e-4 1.273205,0.09488 2.510996,0.27023 3.59375,0.509097 0.388366,0.08568 1.216477,0.293242 1.46379,0.366895 l 0.154513,0.04602 v 0.120248 0.120247 l -0.150669,-0.04381 c -3.025238,-0.879676 -6.200457,-1.156946 -9.291295,-0.811344 -3.676305,0.411065 -7.1713,1.664395 -10.354013,3.713018 -1.400447,0.90143 -2.595866,1.877142 -3.885583,3.17145 -0.324523,0.325678 -0.582057,0.572053 -0.572297,0.547499 z"
       id="path4536"
       inkscape:connector-curvature="0"
       transform="translate(0,972.36216)" />
    <path
       style="fill:#d40000;fill-opacity:1;stroke-width:0.02232143"
       d="m 18.964977,28.724651 c 0,-3.977678 0.0038,-7.232143 0.0084,-7.232143 0.0046,0 0.238152,0.142015 0.518973,0.315588 1.802712,1.114245 3.487337,2.174299 5.722637,3.600983 0.669085,0.427044 1.329182,0.848014 1.466883,0.935488 0.269813,0.171398 0.27533,0.188328 0.06214,0.190675 -0.110689,0.0012 -0.142368,-0.0185 -3.850447,-2.396032 l -3.738839,-2.397259 -0.0056,7.107421 -0.0056,7.107422 h -0.08925 -0.08925 z"
       id="path4538"
       inkscape:connector-curvature="0"
       transform="translate(0,972.36216)" />
    <text
       xml:space="preserve"
       style="font-style:normal;font-weight:normal;font-size:15.91730595px;line-height:9.94831562px;font-family:sans-serif;letter-spacing:0px;word-spacing:0px;fill:#000000;fill-opacity:1;stroke:none;stroke-width:0.39793262"
       x="33.54911"
       y="1060.8939"
       id="text4490"
       transform="scale(1.0266092,0.97408047)"><tspan
         sodipodi:role="line"
         id="tspan4488"
         x="33.54911"
         y="1060.8939"
         style="fill:#000000;fill-opacity:1;stroke-width:0.39793262">A</tspan></text>
  </g>
</svg>
