<?xml version="1.0" encoding="UTF-8" standalone="no"?>
<!-- Created with Inkscape (http://www.inkscape.org/) -->

<svg
   xmlns:dc="http://purl.org/dc/elements/1.1/"
   xmlns:cc="http://creativecommons.org/ns#"
   xmlns:rdf="http://www.w3.org/1999/02/22-rdf-syntax-ns#"
   xmlns:svg="http://www.w3.org/2000/svg"
   xmlns="http://www.w3.org/2000/svg"
   xmlns:sodipodi="http://sodipodi.sourceforge.net/DTD/sodipodi-0.dtd"
   xmlns:inkscape="http://www.inkscape.org/namespaces/inkscape"
   width="60"
   height="80"
   viewBox="0 0 60.000001 80.000001"
   id="svg2"
   version="1.1"
   inkscape:version="0.91 r13725"
   sodipodi:docname="Devastator.svg">
  <defs
     id="defs4" />
  <sodipodi:namedview
     id="base"
     pagecolor="#ffffff"
     bordercolor="#666666"
     borderopacity="1.0"
     inkscape:pageopacity="0.0"
     inkscape:pageshadow="2"
     inkscape:zoom="11.2"
     inkscape:cx="14.006625"
     inkscape:cy="32.37461"
     inkscape:document-units="px"
     inkscape:current-layer="layer1"
     showgrid="false"
     units="px"
     inkscape:window-width="1920"
     inkscape:window-height="1058"
     inkscape:window-x="-8"
     inkscape:window-y="-8"
     inkscape:window-maximized="1" />
  <metadata
     id="metadata7">
    <rdf:RDF>
      <cc:Work
         rdf:about="">
        <dc:format>image/svg+xml</dc:format>
        <dc:type
           rdf:resource="http://purl.org/dc/dcmitype/StillImage" />
        <dc:title></dc:title>
      </cc:Work>
    </rdf:RDF>
  </metadata>
  <g
     inkscape:label="Layer 1"
     inkscape:groupmode="layer"
     id="layer1"
     transform="translate(0,-972.36216)">
    <circle
       style="fill:none;fill-opacity:1;stroke:#000000;stroke-width:5.60402679;stroke-miterlimit:4;stroke-dasharray:none;stroke-opacity:1"
       id="path4171"
       cx="30.178572"
       cy="1014.6836"
       r="27.019415" />
    <path
       style="fill:#000000;fill-opacity:1;stroke:#000000;stroke-width:0.44642857;stroke-miterlimit:4;stroke-dasharray:none;stroke-opacity:1"
       d="m 16.097519,1013.1404 c -1.27099,-4.7723 -2.29254,-8.6953 -2.270111,-8.7177 0.02243,-0.022 1.62483,1.7949 3.560891,4.0385 4.850011,5.6205 4.596183,5.3659 5.012448,5.0288 0.162772,-0.1318 0.203699,-0.274 0.235322,-0.8176 0.02106,-0.3619 -0.01231,-3.9646 -0.07414,-8.006 -0.06183,-4.0414 -0.09756,-7.3627 -0.0794,-7.38074 0.01816,-0.0181 0.652754,2.06305 1.410207,4.62474 1.807716,6.1135 1.865849,6.2922 2.067835,6.3563 0.282141,0.09 1.544089,-0.1241 1.661295,-0.2813 0.05847,-0.078 0.150741,-0.349 0.205038,-0.6014 0.183107,-0.8512 1.335795,-6.9492 2.044527,-10.8161 0.387022,-2.1116 0.727652,-3.77902 0.756955,-3.70535 0.0293,0.0737 1.020002,3.32812 2.201556,7.23215 2.817943,9.3109 2.912371,9.6059 3.142916,9.8207 0.236696,0.2205 0.438808,0.2273 0.682471,0.023 0.191701,-0.1607 0.382556,-0.8444 2.78517,-9.97769 0.503812,-1.91513 0.941202,-3.51167 0.971976,-3.54782 0.03077,-0.0361 0.228498,1.95269 0.439388,4.41961 0.850187,9.9454 0.830947,9.795 1.271651,9.9349 0.377366,0.1198 0.628286,-0.2273 1.751547,-2.4229 0.60041,-1.1735 1.092598,-2.0832 1.09375,-2.0214 0.0021,0.1146 -2.83884,14.9835 -2.89792,15.1669 -0.02337,0.073 -0.165368,0.076 -0.508172,0.014 -0.433619,-0.079 -13.387366,0.081 -20.743599,0.256 l -2.410714,0.057 -2.310892,-8.6769 z"
       id="path4800"
       inkscape:connector-curvature="0" />
    <text
       xml:space="preserve"
       style="font-style:normal;font-variant:normal;font-weight:normal;font-stretch:normal;font-size:15px;line-height:125%;font-family:Arial;-inkscape-font-specification:Arial;letter-spacing:0px;word-spacing:0px;fill:#000000;fill-opacity:1;stroke:none;stroke-width:1px;stroke-linecap:butt;stroke-linejoin:miter;stroke-opacity:1"
       x="25.803572"
       y="1033.6122"
       id="text4802"
       sodipodi:linespacing="125%"><tspan
         sodipodi:role="line"
         id="tspan4804"
         x="25.803572"
         y="1033.6122">D</tspan></text>
  </g>
</svg>
