<?xml version="1.0" encoding="UTF-8" standalone="no"?>
<!-- Created with Inkscape (http://www.inkscape.org/) -->

<svg
   xmlns:dc="http://purl.org/dc/elements/1.1/"
   xmlns:cc="http://creativecommons.org/ns#"
   xmlns:rdf="http://www.w3.org/1999/02/22-rdf-syntax-ns#"
   xmlns:svg="http://www.w3.org/2000/svg"
   xmlns="http://www.w3.org/2000/svg"
   xmlns:sodipodi="http://sodipodi.sourceforge.net/DTD/sodipodi-0.dtd"
   xmlns:inkscape="http://www.inkscape.org/namespaces/inkscape"
   width="60"
   height="80"
   viewBox="0 0 60.000001 80.000001"
   id="svg2"
   version="1.1"
   inkscape:version="0.92.0 r15299"
   sodipodi:docname="Devastator.svg">
  <defs
     id="defs4" />
  <sodipodi:namedview
     id="base"
     pagecolor="#ffffff"
     bordercolor="#666666"
     borderopacity="1.0"
     inkscape:pageopacity="0.0"
     inkscape:pageshadow="2"
     inkscape:zoom="5.6"
     inkscape:cx="16.955103"
     inkscape:cy="35.550118"
     inkscape:document-units="px"
     inkscape:current-layer="layer1"
     showgrid="false"
     units="px"
     inkscape:window-width="1366"
     inkscape:window-height="745"
     inkscape:window-x="-8"
     inkscape:window-y="-8"
     inkscape:window-maximized="1" />
  <metadata
     id="metadata7">
    <rdf:RDF>
      <cc:Work
         rdf:about="">
        <dc:format>image/svg+xml</dc:format>
        <dc:type
           rdf:resource="http://purl.org/dc/dcmitype/StillImage" />
        <dc:title />
      </cc:Work>
    </rdf:RDF>
  </metadata>
  <g
     inkscape:label="Layer 1"
     inkscape:groupmode="layer"
     id="layer1"
     transform="translate(0,-972.36216)">
    <circle
       style="fill:none;fill-opacity:1;stroke:#000000;stroke-width:5.60402679;stroke-miterlimit:4;stroke-dasharray:none;stroke-opacity:1"
       id="path4171"
       cx="30.178572"
       cy="1014.6836"
       r="27.019415" />
    <path
       style="fill:#000000;fill-opacity:1;stroke:#000000;stroke-width:0.44642857;stroke-miterlimit:4;stroke-dasharray:none;stroke-opacity:1"
       d="m 16.097519,1013.1404 c -1.27099,-4.7723 -2.29254,-8.6953 -2.270111,-8.7177 0.02243,-0.022 1.62483,1.7949 3.560891,4.0385 4.850011,5.6205 4.596183,5.3659 5.012448,5.0288 0.162772,-0.1318 0.203699,-0.274 0.235322,-0.8176 0.02106,-0.3619 -0.01231,-3.9646 -0.07414,-8.006 -0.06183,-4.0414 -0.09756,-7.3627 -0.0794,-7.38074 0.01816,-0.0181 0.652754,2.06305 1.410207,4.62474 1.807716,6.1135 1.865849,6.2922 2.067835,6.3563 0.282141,0.09 1.544089,-0.1241 1.661295,-0.2813 0.05847,-0.078 0.150741,-0.349 0.205038,-0.6014 0.183107,-0.8512 1.335795,-6.9492 2.044527,-10.8161 0.387022,-2.1116 0.727652,-3.77902 0.756955,-3.70535 0.0293,0.0737 1.020002,3.32812 2.201556,7.23215 2.817943,9.3109 2.912371,9.6059 3.142916,9.8207 0.236696,0.2205 0.438808,0.2273 0.682471,0.023 0.191701,-0.1607 0.382556,-0.8444 2.78517,-9.97769 0.503812,-1.91513 0.941202,-3.51167 0.971976,-3.54782 0.03077,-0.0361 0.228498,1.95269 0.439388,4.41961 0.850187,9.9454 0.830947,9.795 1.271651,9.9349 0.377366,0.1198 0.628286,-0.2273 1.751547,-2.4229 0.60041,-1.1735 1.092598,-2.0832 1.09375,-2.0214 0.0021,0.1146 -2.83884,14.9835 -2.89792,15.1669 -0.02337,0.073 -0.165368,0.076 -0.508172,0.014 -0.433619,-0.079 -13.387366,0.081 -20.743599,0.256 l -2.410714,0.057 -2.310892,-8.6769 z"
       id="path4800"
       inkscape:connector-curvature="0" />
    <text
       xml:space="preserve"
       style="font-style:normal;font-variant:normal;font-weight:normal;font-stretch:normal;font-size:15px;line-height:125%;font-family:Arial;-inkscape-font-specification:Arial;letter-spacing:0px;word-spacing:0px;fill:#000000;fill-opacity:1;stroke:none;stroke-width:1px;stroke-linecap:butt;stroke-linejoin:miter;stroke-opacity:1"
       x="25.803572"
       y="1033.6122"
       id="text4802"><tspan
         sodipodi:role="line"
         id="tspan4804"
         x="25.803572"
         y="1033.6122">D</tspan></text>
    <path
       style="fill:#cccccc;stroke-width:0.17857143"
       d="M 27.885249,66.334727 C 16.673067,65.19692 7.8756936,56.70847 6.2649762,45.473661 5.9949434,43.590173 6.1469795,39.243407 6.5468718,37.414168 8.6607093,27.744775 16.190415,20.420207 25.919389,18.569431 c 2.457689,-0.467534 6.464644,-0.435298 8.87293,0.07138 4.765273,1.00257 8.892737,3.179802 12.199223,6.435075 3.503998,3.449725 5.730214,7.486682 6.812054,12.352783 0.594551,2.674291 0.594551,7.11813 0,9.792421 -1.905554,8.571166 -7.839122,15.241421 -15.978584,17.962425 -3.096191,1.035048 -6.826745,1.467116 -9.939763,1.151209 z m 5.355568,-5.377993 c 1.470013,-0.65452 2.464704,-2.352593 2.625359,-4.481845 0.191273,-2.535055 -0.657036,-4.587166 -2.268216,-5.486953 -0.753388,-0.420741 -0.990368,-0.452497 -3.794643,-0.508463 l -2.991071,-0.05969 v 5.479832 5.479832 l 2.901785,-0.07221 c 2.112152,-0.05257 3.071861,-0.147941 3.526786,-0.350495 z m 2.320816,-11.504791 c 3.682698,-0.05611 6.721459,-0.12767 6.7528,-0.159011 0.06623,-0.06623 2.616845,-13.353785 2.807956,-14.628204 0.11513,-0.767742 0.09481,-0.850505 -0.195117,-0.794671 -0.190998,0.03678 -0.612869,0.611135 -1.029376,1.401433 -1.421634,2.69746 -1.581168,2.935332 -1.757416,2.620392 -0.113056,-0.202019 -1.399663,-13.053017 -1.399663,-13.980231 0,-0.13143 -0.515082,-0.06819 -0.60298,0.07403 -0.04859,0.07862 -0.856886,3.018758 -1.796215,6.533644 -0.93933,3.514887 -1.781175,6.521688 -1.870767,6.681781 -0.135327,0.241815 -0.21115,0.186252 -0.448004,-0.328287 -0.156809,-0.340652 -1.369912,-4.189238 -2.695784,-8.552413 -1.325873,-4.363176 -2.446716,-7.969086 -2.490762,-8.013132 -0.04405,-0.04405 -0.185666,-0.03957 -0.314709,0.0099 -0.243688,0.09351 -0.272379,0.228641 -2.018593,9.507658 -0.554488,2.946429 -1.0726,5.424696 -1.151361,5.507261 -0.07876,0.08256 -0.411128,0.162922 -0.738591,0.178571 l -0.595389,0.02845 -1.623781,-5.399049 c -0.893079,-2.969476 -1.673237,-5.448505 -1.733684,-5.508952 -0.06045,-0.06045 -0.204695,-0.05132 -0.32055,0.02028 -0.159927,0.09884 -0.178953,2.053622 -0.07902,8.118655 0.08427,5.114369 0.06932,8.026978 -0.04156,8.095505 -0.09525,0.05887 -1.652095,-1.597639 -3.459647,-3.68113 -3.159707,-3.642067 -4.733783,-5.300073 -5.035621,-5.304121 -0.257473,-0.0035 0.218792,1.979289 3.017582,12.56254 l 1.410152,5.3323 5.357143,-0.110616 c 2.946429,-0.06084 8.370261,-0.156527 12.052959,-0.212639 z"
       id="path11"
       inkscape:connector-curvature="0"
       transform="translate(0,972.36216)" />
    <path
       style="fill:#cccccc;stroke-width:0.17857143"
       d="m 28.419389,55.916065 v -4.037611 h 1.684803 c 1.872664,0 2.455935,0.156367 3.187815,0.854614 1.095909,1.045544 1.334809,4.025141 0.449735,5.609172 -0.71108,1.272634 -1.137502,1.468198 -3.367811,1.544537 l -1.954542,0.0669 z"
       id="path13"
       inkscape:connector-curvature="0"
       transform="translate(0,972.36216)" />
    <path
       style="fill:#cccccc;stroke-width:0.17857143"
       d="m 28.419389,55.894933 v -4.07029 l 1.875204,0.106192 c 1.536544,0.08701 2.004262,0.183152 2.589812,0.532332 0.393034,0.234377 0.66269,0.478056 0.599237,0.54151 -0.06345,0.06345 0.0162,0.16586 0.177019,0.227571 0.160815,0.06171 0.252099,0.177394 0.202853,0.257075 -0.04925,0.07968 3.03e-4,0.3726 0.110114,0.650931 0.3661,0.927952 0.19571,3.066645 -0.334507,4.198639 -0.261225,0.557706 -0.517976,1.006783 -0.570558,0.99795 -0.05258,-0.0088 -0.311156,0.07322 -0.57461,0.182339 -0.263454,0.109121 -1.288008,0.25412 -2.276786,0.322221 l -1.797778,0.12382 z"
       id="path15"
       inkscape:connector-curvature="0"
       transform="translate(0,972.36216)" />
    <path
       style="fill:#cccccc;stroke-width:0.17857143"
       d="m 28.521833,66.385859 c -0.02528,-0.02539 -0.440371,-0.08596 -0.922421,-0.134602 -0.482048,-0.04864 -1.238059,-0.161514 -1.680023,-0.250836 -0.441965,-0.08932 -0.836358,-0.129896 -0.876427,-0.09016 -0.04007,0.03973 -0.167977,-0.0067 -0.284238,-0.103191 -0.11626,-0.09649 -0.445082,-0.205759 -0.730716,-0.242828 -0.285634,-0.03707 -0.639869,-0.116802 -0.787191,-0.177186 -0.888755,-0.364277 -1.767983,-0.609663 -1.858855,-0.518791 -0.05799,0.05799 -0.105431,0.02039 -0.105431,-0.08355 0,-0.162334 -0.852646,-0.491253 -1.051463,-0.405618 -0.03813,0.01643 -0.118484,-0.047 -0.178572,-0.140932 -0.126523,-0.197793 -2.412361,-1.373068 -2.467635,-1.268746 -0.02032,0.03836 -0.158395,-0.09097 -0.306821,-0.287395 -0.148425,-0.196428 -0.27242,-0.281516 -0.275544,-0.189084 -0.0031,0.09243 -0.123659,0.01207 -0.267857,-0.178571 -0.144198,-0.190647 -0.264733,-0.29322 -0.267857,-0.22794 -0.0031,0.06528 -0.279591,-0.123814 -0.614372,-0.420205 -0.334781,-0.296393 -0.676299,-0.550691 -0.758928,-0.565109 -0.08263,-0.01441 -0.378944,-0.286694 -0.658476,-0.605064 C 14.149475,60.177682 13.709862,59.81607 13.452089,59.69247 13.194317,59.568868 12.890026,59.280384 12.775888,59.051393 12.66175,58.822402 12.331896,58.380438 12.042878,58.06925 11.203716,57.165716 10.489648,56.178113 9.5679855,54.646311 9.0952328,53.860597 8.6365364,53.168577 8.5486602,53.108489 8.4607837,53.0484 8.401368,52.9461 8.4166252,52.881154 8.4767098,52.625382 8.0242005,51.521311 7.8592869,51.521311 c -0.096394,0 -0.1328758,-0.06858 -0.081071,-0.152404 0.1161895,-0.187998 -0.2792866,-1.276168 -0.4638009,-1.276168 -0.073599,0 -0.087563,-0.120535 -0.031031,-0.267857 0.056533,-0.147321 0.00909,-0.267857 -0.1054289,-0.267857 -0.1145184,0 -0.1682958,-0.06459 -0.1195053,-0.143536 C 7.1377788,49.285132 6.750017,47.383447 6.5051345,46.699882 6.3293816,46.209286 6.298429,45.562422 6.3000622,42.414168 c 0.00186,-3.580171 0.031113,-3.95155 0.4360915,-5.535714 0.1631996,-0.638393 0.3207446,-1.321429 0.3500999,-1.517857 0.029355,-0.196429 0.069586,-0.397322 0.089401,-0.446429 0.019815,-0.04911 0.026512,-0.149554 0.014881,-0.223214 -0.011631,-0.07366 0.067808,-0.133929 0.1765299,-0.133929 0.1087221,0 0.1534149,-0.115344 0.099317,-0.25632 -0.054098,-0.140976 -0.018946,-0.282791 0.078115,-0.315145 0.097061,-0.03235 0.1900041,-0.238438 0.2065405,-0.457965 0.016536,-0.219528 0.084612,-0.399141 0.1512784,-0.399141 0.1269507,0 0.4184375,-0.88452 0.3677932,-1.116072 -0.016111,-0.07366 0.055807,-0.133928 0.1598177,-0.133928 0.1040105,0 0.1394468,-0.08036 0.078747,-0.178572 -0.0607,-0.09821 -0.020521,-0.178571 0.089286,-0.178571 0.1098069,0 0.1542273,-0.07349 0.098712,-0.16332 -0.055515,-0.08983 -0.037,-0.190272 0.041145,-0.223214 0.199326,-0.08403 1.3124397,-1.934895 1.163648,-1.934895 -0.066971,0 0.034218,-0.11798 0.2248657,-0.262178 0.190645,-0.144198 0.295614,-0.264733 0.233259,-0.267857 -0.06235,-0.0031 0.157525,-0.301426 0.488617,-0.662895 0.331093,-0.361469 0.569839,-0.689365 0.530547,-0.728656 -0.03929,-0.03929 0.242398,-0.354973 0.625978,-0.701513 0.383578,-0.346541 0.660643,-0.689573 0.615698,-0.762295 -0.08144,-0.131768 0.783781,-0.98223 1.00419,-0.987063 0.06377,-0.0014 0.60618,-0.451612 1.205358,-1.000473 0.599176,-0.548862 1.089411,-0.969597 1.089411,-0.934967 0,0.03463 0.321428,-0.149747 0.714285,-0.409727 0.392857,-0.259981 0.714286,-0.547113 0.714286,-0.638073 0,-0.09096 0.07743,-0.117528 0.172058,-0.05904 0.09463,0.05848 0.335704,-0.05731 0.535714,-0.257319 0.200011,-0.200011 0.363657,-0.322124 0.363657,-0.271362 0,0.103801 1.825325,-0.791934 1.964285,-0.963927 0.04911,-0.06078 0.25,-0.138631 0.446429,-0.173001 0.196428,-0.03437 0.41618,-0.154906 0.488337,-0.267857 0.07216,-0.112951 0.132424,-0.149885 0.133928,-0.08208 0.0015,0.06781 0.561533,-0.06677 1.244508,-0.299064 2.316846,-0.78801 4.946913,-1.195798 7.564186,-1.172816 2.379909,0.0209 3.169535,0.09744 4.676184,0.453279 0.6875,0.162373 1.410714,0.318961 1.607143,0.347973 0.358384,0.05293 0.611661,0.143072 2.388301,0.84999 0.52785,0.210029 1.070262,0.381872 1.205357,0.381872 0.135095,0 0.245628,0.07171 0.245628,0.159348 0,0.08764 0.08036,0.109685 0.178572,0.04899 0.09821,-0.0607 0.178571,-0.02052 0.178571,0.08929 0,0.109807 0.08036,0.149985 0.178572,0.08929 0.09821,-0.0607 0.178571,-0.02052 0.178571,0.08929 0,0.109807 0.08036,0.149986 0.178571,0.08929 0.09822,-0.0607 0.178572,-0.02052 0.178572,0.08929 0,0.109806 0.07349,0.154227 0.163319,0.09871 0.08982,-0.05551 0.190272,-0.03487 0.223215,0.04588 0.05847,0.143312 2.52231,1.779972 2.784752,1.849828 0.07276,0.01937 0.279344,0.222168 0.459083,0.45067 0.179742,0.228501 0.380634,0.394177 0.446429,0.368168 0.126334,-0.04994 3.219702,3.045005 3.131557,3.133151 -0.02825,0.02825 0.255641,0.387215 0.630866,0.797705 0.375223,0.41049 0.652495,0.776076 0.616157,0.812413 -0.03634,0.03634 0.115534,0.26202 0.337491,0.501516 0.221958,0.239496 0.422992,0.513251 0.446742,0.608345 0.02375,0.09509 0.163587,0.313524 0.310751,0.485399 0.147165,0.171875 0.226825,0.3125 0.177025,0.3125 -0.133491,0 0.825922,1.856252 1.02557,1.984251 0.09372,0.06009 0.154296,0.140445 0.134609,0.178571 -0.07962,0.154194 0.429286,1.587178 0.563666,1.587178 0.07959,0 0.09845,0.120536 0.04192,0.267857 -0.05653,0.147322 -0.0091,0.267858 0.105429,0.267858 0.114517,0 0.167737,0.06549 0.118264,0.145542 -0.07823,0.126585 0.25992,1.571725 0.550928,2.354458 0.261556,0.703512 0.399513,2.46091 0.399513,5.089285 0,2.628375 -0.137957,4.385773 -0.399513,5.089286 -0.291008,0.782732 -0.629162,2.227871 -0.550928,2.354457 0.04947,0.08005 -0.0038,0.145543 -0.118264,0.145543 -0.114518,0 -0.161963,0.120536 -0.105429,0.267857 0.05653,0.147322 0.03781,0.267857 -0.0416,0.267857 -0.15072,0 -0.640725,1.320559 -0.569214,1.534029 0.02256,0.06736 -0.03566,0.171632 -0.129377,0.231721 -0.09372,0.06009 -0.3928,0.55009 -0.664616,1.088893 -0.271816,0.538805 -0.685148,1.282109 -0.918516,1.651786 -0.233368,0.369678 -0.387648,0.672143 -0.342847,0.672143 0.0448,0 -0.152925,0.256619 -0.439398,0.570266 -0.286471,0.313646 -0.485559,0.605564 -0.442418,0.648707 0.04314,0.04314 -0.120493,0.23492 -0.363634,0.426175 -0.243141,0.191255 -0.420794,0.40157 -0.394785,0.467364 0.02601,0.0658 -0.656261,0.808375 -1.516156,1.650175 -0.859894,0.8418 -1.563444,1.507966 -1.563444,1.480372 0,-0.05104 -2.116681,1.508125 -2.767857,2.038826 -0.196429,0.160088 -0.376583,0.276081 -0.400342,0.257761 -0.106903,-0.08242 -0.938944,0.391902 -0.938944,0.53527 0,0.08825 -0.08036,0.110784 -0.178572,0.05008 -0.09821,-0.0607 -0.178571,-0.02052 -0.178571,0.08929 0,0.109808 -0.08036,0.149986 -0.178571,0.08929 -0.09822,-0.0607 -0.178572,-0.01188 -0.178572,0.108509 0,0.12038 -0.04524,0.173636 -0.100523,0.118348 -0.05529,-0.05529 -0.777339,0.172391 -1.604559,0.505952 -0.82722,0.333563 -1.625734,0.606477 -1.774477,0.606477 -0.148743,0 -0.270498,0.06027 -0.270568,0.133928 -6.8e-5,0.07366 -0.201262,0.145536 -0.447096,0.159724 -0.245832,0.01418 -0.587295,0.0868 -0.758802,0.161371 -0.171507,0.07457 -0.445337,0.119384 -0.608512,0.09959 -0.163175,-0.0198 -0.346552,0.0447 -0.407506,0.143329 -0.06095,0.09862 -0.228785,0.13405 -0.372962,0.07872 -0.144175,-0.05533 -0.402763,-0.0442 -0.574638,0.02472 -0.442839,0.177582 -5.156952,0.456155 -5.299341,0.313157 z m 4.862309,-5.471321 c 0.822677,-0.425424 1.765588,-1.647777 2.150657,-2.788031 0.484475,-1.434605 0.429443,-3.860775 -0.113994,-5.025764 -0.333377,-0.714673 -1.668393,-2.266359 -1.985191,-2.30738 -0.05803,-0.0075 -0.266225,-0.05647 -0.462654,-0.108791 -0.196429,-0.05232 -1.642857,-0.134349 -3.214286,-0.182284 l -2.857143,-0.08716 v 5.508447 5.508448 l 2.973749,-0.120384 c 2.141884,-0.08671 3.123437,-0.197793 3.508862,-0.397103 z M 25.47296,49.652523 c 17.155502,-0.249821 16.931261,-0.239594 16.974368,-0.774069 0.0056,-0.06875 0.06743,-0.366072 0.137525,-0.660715 0.07009,-0.294642 0.170993,-0.816964 0.224219,-1.160714 0.05323,-0.34375 0.133929,-0.805587 0.179338,-1.026307 0.102516,-0.498296 0.258966,-1.297086 0.323611,-1.652264 0.02681,-0.147322 0.143698,-0.709822 0.259741,-1.25 0.116043,-0.540179 0.255616,-1.263393 0.31016,-1.607143 0.153284,-0.966034 0.182204,-1.122127 0.314297,-1.696429 0.06777,-0.294643 0.16677,-0.816964 0.219996,-1.160714 0.05323,-0.34375 0.130547,-0.785714 0.171824,-0.982143 0.3612,-1.718955 0.458067,-2.240298 0.536632,-2.888172 0.05213,-0.429846 0.01059,-0.794635 -0.09815,-0.861836 -0.248098,-0.153334 -0.801796,0.526542 -1.199261,1.472553 -0.175219,0.417043 -0.383592,0.75856 -0.46305,0.758928 -0.07946,3.57e-4 -0.0948,0.08103 -0.0341,0.179241 0.0607,0.09821 0.01187,0.178572 -0.108509,0.178572 -0.12038,0 -0.171902,0.04697 -0.114495,0.104378 0.05741,0.05741 -0.008,0.238211 -0.145418,0.401786 -0.137389,0.163573 -0.369303,0.458122 -0.515366,0.65455 -0.257371,0.346118 -0.265743,0.341984 -0.271248,-0.133928 -0.0031,-0.27009 -0.0699,-0.491072 -0.148393,-0.491072 -0.07849,0 -0.109925,-0.280862 -0.06985,-0.624137 0.04008,-0.343275 0.01677,-0.765151 -0.05179,-0.9375 -0.06856,-0.17235 -0.149539,-0.67497 -0.179954,-1.116934 -0.03041,-0.441965 -0.09899,-1.245536 -0.152401,-1.785715 -0.05341,-0.540178 -0.138616,-1.424107 -0.189354,-1.964285 -0.05074,-0.540179 -0.13088,-1.34375 -0.178093,-1.785715 -0.210143,-1.967145 -0.333877,-3.514342 -0.311686,-3.897332 0.02672,-0.461017 -0.261033,-1.102668 -0.494491,-1.102668 -0.149087,0 -0.537385,0.799587 -0.618062,1.272718 -0.02299,0.134827 -0.134973,0.52639 -0.248848,0.87014 -0.113877,0.34375 -0.254341,0.866071 -0.312143,1.160714 -0.160898,0.820159 -0.177488,0.879814 -0.298354,1.072788 -0.06198,0.09896 -0.176632,0.500748 -0.254778,0.892858 -0.175532,0.880746 -0.19082,0.948276 -0.252359,1.114711 -0.02724,0.07366 -0.06514,0.214286 -0.08423,0.3125 -0.01909,0.09821 -0.08298,0.299107 -0.141979,0.446429 -0.263211,0.657211 -0.652366,2.211791 -0.573434,2.290723 0.04792,0.04792 0.01532,0.174881 -0.07243,0.282132 -0.08776,0.107251 -0.253841,0.556609 -0.369071,0.998573 -0.520879,1.997841 -0.755754,2.67648 -0.896265,2.589641 -0.08323,-0.05144 -0.329051,-0.635059 -0.546282,-1.296937 -0.217228,-0.66188 -0.439441,-1.280376 -0.493803,-1.374436 -0.05436,-0.09406 -0.117265,-0.335131 -0.139782,-0.535714 -0.02252,-0.200583 -0.141352,-0.605768 -0.264075,-0.900411 -0.257583,-0.618418 -0.230393,-0.531681 -0.419822,-1.339286 -0.08063,-0.34375 -0.230073,-0.825893 -0.332098,-1.071428 -0.216614,-0.521308 -0.195418,-0.451665 -0.380436,-1.25 -0.07967,-0.34375 -0.194434,-0.705357 -0.255041,-0.803572 -0.06061,-0.09821 -0.121471,-0.238839 -0.135252,-0.3125 -0.01379,-0.07366 -0.04514,-0.174107 -0.0697,-0.223214 -0.04971,-0.09941 -0.0513,-0.105553 -0.253916,-0.982143 -0.07946,-0.34375 -0.225384,-0.725446 -0.324284,-0.848214 -0.0989,-0.122768 -0.133362,-0.223214 -0.07659,-0.223214 0.05678,0 -0.02069,-0.341518 -0.172146,-0.758929 -0.151457,-0.417411 -0.302459,-0.879464 -0.335559,-1.026786 -0.0331,-0.147321 -0.06633,-0.287946 -0.07385,-0.3125 -0.0075,-0.02455 -0.01684,-0.0837 -0.02071,-0.131443 -0.0039,-0.04774 -0.131357,-0.429437 -0.283296,-0.848214 -0.151939,-0.418778 -0.303336,-0.88195 -0.336436,-1.029271 -0.0331,-0.147322 -0.0723,-0.267857 -0.08712,-0.267857 -0.0148,0 -0.06274,-0.194587 -0.106502,-0.432414 -0.08599,-0.467311 -0.385539,-0.906872 -0.618008,-0.906872 -0.191922,0 -0.31684,0.396611 -0.6051,1.921174 -0.04194,0.221825 -0.119479,0.543253 -0.172304,0.714286 -0.05282,0.171033 -0.144095,0.632397 -0.202821,1.025254 -0.135083,0.903629 -0.181047,1.144525 -0.323695,1.696429 -0.06346,0.245535 -0.161154,0.767857 -0.217091,1.160714 -0.125457,0.881087 -0.17217,1.129799 -0.318623,1.696429 -0.06346,0.245535 -0.154204,0.727678 -0.201649,1.071428 -0.04745,0.34375 -0.24885,1.381058 -0.447564,2.305129 -0.198716,0.924071 -0.321182,1.720249 -0.272146,1.769284 0.04903,0.04903 5.35e-4,0.195972 -0.107845,0.326526 -0.10835,0.130553 -0.150354,0.358929 -0.09334,0.507501 0.05701,0.148572 0.0352,0.270132 -0.04848,0.270132 -0.08368,0 -0.194168,0.160714 -0.245536,0.357142 -0.162114,0.619929 -1.361682,0.439704 -1.485704,-0.223214 -0.01378,-0.07366 -0.04171,-0.154018 -0.06206,-0.178571 -0.02035,-0.02455 -0.07374,-0.268712 -0.118634,-0.542574 -0.0449,-0.273861 -0.17139,-0.715825 -0.281095,-0.982142 -0.109705,-0.266317 -0.230241,-0.668103 -0.267857,-0.892858 -0.03762,-0.224754 -0.158152,-0.62654 -0.267857,-0.892857 -0.109706,-0.266316 -0.230241,-0.668102 -0.267857,-0.892857 -0.03762,-0.224754 -0.158943,-0.62654 -0.269616,-0.892857 -0.234049,-0.563201 -0.210474,-0.486567 -0.396159,-1.287784 -0.07967,-0.34375 -0.193406,-0.705357 -0.252756,-0.803571 -0.05935,-0.09821 -0.122705,-0.276014 -0.140791,-0.395111 -0.116147,-0.764825 -0.848755,-2.558415 -1.021507,-2.500882 -0.149989,0.04995 -0.219655,2.213212 -0.257386,7.992309 -0.02845,4.358102 -0.07962,7.951707 -0.113707,7.985791 -0.06638,0.06638 -2.564208,-2.442359 -2.644042,-2.655586 -0.192761,-0.514841 -5.621707,-6.161997 -5.775777,-6.007928 -0.06037,0.06037 -0.01988,0.497128 0.08996,0.970582 0.109845,0.473453 0.241889,1.061718 0.293432,1.307253 0.05154,0.245536 0.183818,0.767857 0.293943,1.160715 0.267577,0.954548 0.282234,1.008871 0.397486,1.473214 0.142843,0.575505 0.260857,1.120457 0.38714,1.787687 0.06062,0.320281 0.182773,0.627172 0.271456,0.681981 0.08868,0.05481 0.115009,0.174457 0.0585,0.265885 -0.0565,0.09143 -0.03999,0.266679 0.03671,0.389447 0.07669,0.122768 0.15611,0.333373 0.176477,0.468014 0.0831,0.5493 0.473674,2.088689 0.572198,2.2552 0.05811,0.09821 0.109049,0.258929 0.113191,0.357143 0.01667,0.395329 0.505138,2.155587 0.648744,2.337859 0.0845,0.10725 0.114429,0.234211 0.06651,0.282132 -0.07748,0.07747 0.297609,1.586121 0.569529,2.290723 0.05685,0.147322 0.132862,0.493891 0.168905,0.770156 0.108251,0.829734 0.390978,1.207444 0.832153,1.111725 0.217053,-0.04709 3.287499,-0.127752 6.823213,-0.17924 z"
       id="path17"
       inkscape:connector-curvature="0"
       transform="translate(0,972.36216)" />
  </g>
</svg>
