<?xml version="1.0" encoding="UTF-8" standalone="no"?>
<!-- Created with Inkscape (http://www.inkscape.org/) -->

<svg
   xmlns:dc="http://purl.org/dc/elements/1.1/"
   xmlns:cc="http://creativecommons.org/ns#"
   xmlns:rdf="http://www.w3.org/1999/02/22-rdf-syntax-ns#"
   xmlns:svg="http://www.w3.org/2000/svg"
   xmlns="http://www.w3.org/2000/svg"
   xmlns:sodipodi="http://sodipodi.sourceforge.net/DTD/sodipodi-0.dtd"
   xmlns:inkscape="http://www.inkscape.org/namespaces/inkscape"
   width="60"
   height="80"
   viewBox="0 0 60.000001 80.000001"
   id="svg2"
   version="1.1"
   inkscape:version="0.92.0 r15299"
   sodipodi:docname="Marine_enemy.svg">
  <defs
     id="defs4" />
  <sodipodi:namedview
     id="base"
     pagecolor="#ffffff"
     bordercolor="#666666"
     borderopacity="1.0"
     inkscape:pageopacity="0.0"
     inkscape:pageshadow="2"
     inkscape:zoom="2.8"
     inkscape:cx="-116.29055"
     inkscape:cy="-25.239912"
     inkscape:document-units="px"
     inkscape:current-layer="layer1"
     showgrid="false"
     units="px"
     inkscape:window-width="1366"
     inkscape:window-height="745"
     inkscape:window-x="-8"
     inkscape:window-y="-8"
     inkscape:window-maximized="1" />
  <metadata
     id="metadata7">
    <rdf:RDF>
      <cc:Work
         rdf:about="">
        <dc:format>image/svg+xml</dc:format>
        <dc:type
           rdf:resource="http://purl.org/dc/dcmitype/StillImage" />
        <dc:title></dc:title>
      </cc:Work>
    </rdf:RDF>
  </metadata>
  <g
     inkscape:label="Layer 1"
     inkscape:groupmode="layer"
     id="layer1"
     transform="translate(0,-972.36216)">
    <path
       sodipodi:type="star"
       style="fill:none;fill-opacity:1;stroke:#000000;stroke-width:5;stroke-miterlimit:4;stroke-dasharray:none;stroke-opacity:1"
       id="path4169"
       sodipodi:sides="3"
       sodipodi:cx="24.285715"
       sodipodi:cy="1013.4336"
       sodipodi:r1="29.104404"
       sodipodi:r2="14.552202"
       sodipodi:arg1="2.0943951"
       sodipodi:arg2="3.1415927"
       inkscape:flatsided="false"
       inkscape:rounded="0"
       inkscape:randomized="0"
       d="m 9.7335129,1038.6387 0,-25.2051 -10e-8,-25.20516 21.8283042,12.60256 21.828303,12.6026 -21.828304,12.6026 z"
       inkscape:transform-center-x="-4.4446554"
       transform="matrix(0.61085675,0,0,0.67823017,14.732782,326.80664)" />
    <circle
       style="fill:none;fill-opacity:1;stroke:#000000;stroke-width:5.60402679;stroke-miterlimit:4;stroke-dasharray:none;stroke-opacity:1"
       id="path4171"
       cx="30.178572"
       cy="1014.6836"
       r="27.019415" />
    <text
       xml:space="preserve"
       style="font-style:normal;font-variant:normal;font-weight:normal;font-stretch:normal;font-size:15px;line-height:125%;font-family:Arial;-inkscape-font-specification:Arial;letter-spacing:0px;word-spacing:0px;fill:#000000;fill-opacity:1;stroke:none;stroke-width:1px;stroke-linecap:butt;stroke-linejoin:miter;stroke-opacity:1"
       x="36.785713"
       y="1033.7906"
       id="text4184"><tspan
         sodipodi:role="line"
         id="tspan4186"
         x="36.785713"
         y="1033.7906">T</tspan></text>
    <path
       style="fill:#cccccc;stroke-width:0.35714287"
       d="M 26.935541,66.137351 C 21.803182,65.45563 17.166136,63.101187 13.257155,59.192208 8.6125146,54.547566 6.6190338,49.955354 6.3592676,43.302129 6.1676542,38.394457 6.6741876,35.948055 8.7606475,31.704198 11.154698,26.834701 14.786597,23.199941 19.673736,20.782514 c 6.943989,-3.434851 14.969848,-3.253076 22.142857,0.501505 3.079378,1.611844 7.868168,6.502397 9.573711,9.777149 5.41086,10.389227 2.588957,23.329237 -6.606147,30.292876 -5.09991,3.862268 -11.622591,5.6103 -17.848616,4.783307 z m 1.665271,-10.150389 c 4.438586,-2.846591 8.1431,-5.175621 8.232254,-5.175621 0.08915,0 0.162098,0.321428 0.162098,0.714285 0,0.619048 0.238096,0.714286 1.785715,0.714286 h 1.785714 v 4.642857 4.642857 h 0.892857 0.892857 v -4.642857 -4.642857 h 1.785714 c 1.666668,0 1.785715,-0.05952 1.785715,-0.892857 v -0.892857 h -4.35355 -4.353547 l 6.228547,-3.966 c 3.425703,-2.1813 6.431353,-4.1577 6.679225,-4.392 0.432525,-0.408847 -3.720011,-3.177211 -27.496122,-18.33079 l -3.490268,-2.224504 v 20.183498 c 0,19.899214 0.0098,20.178249 0.696318,19.810842 0.382974,-0.204964 4.327887,-2.701689 8.766473,-5.548282 z"
       id="path11"
       inkscape:connector-curvature="0"
       transform="translate(0,972.36216)" />
    <path
       style="fill:#d40000;stroke-width:0.35714287"
       d="m 22.352307,41.709447 v -13.74475 l 1.002346,0.61975 c 0.551291,0.340863 5.375059,3.424172 10.719485,6.851797 7.64098,4.900512 9.620643,6.322539 9.265511,6.655585 -0.513313,0.481387 -20.59577,13.362369 -20.832978,13.362369 -0.0849,0 -0.154364,-6.185138 -0.154364,-13.744751 z"
       id="path13"
       inkscape:connector-curvature="0"
       transform="translate(0,972.36216)" />
    <path
       style="fill:#d40000;stroke-width:0.35714287"
       d="m 27.072384,66.083037 c -0.533543,-0.145211 -1.458118,-0.315432 -2.054611,-0.378271 -0.596494,-0.06284 -1.239352,-0.204175 -1.428572,-0.314083 -0.603922,-0.350785 -3.191115,-1.157082 -3.469037,-1.081125 -0.147321,0.04027 -0.267857,-0.09699 -0.267857,-0.30501 0,-0.208022 -0.160714,-0.278893 -0.357143,-0.157493 -0.196428,0.1214 -0.357143,0.04104 -0.357143,-0.178572 0,-0.219614 -0.160714,-0.299971 -0.357142,-0.178571 -0.196429,0.1214 -0.357143,0.07724 -0.357143,-0.09813 0,-0.175372 -0.88868,-0.930914 -1.974845,-1.678982 C 14.298302,60.23163 11.361112,57.189301 9.8942714,54.923555 9.3837964,54.135051 8.8039168,53.371837 8.6056497,53.227524 8.4073827,53.08321 8.3698272,52.962674 8.5221929,52.959667 8.6745586,52.956659 8.5205808,52.431876 8.1800199,51.793483 7.839459,51.155091 7.5339925,50.512233 7.5012055,50.364912 7.4684186,50.217591 7.4100474,50.056876 7.3714918,50.007769 7.3329362,49.958662 7.2246562,49.275626 7.1308696,48.489912 7.0370831,47.704198 6.8465182,47.020786 6.7073922,46.971219 6.5682662,46.921652 6.5099959,46.182522 6.5779026,45.328706 6.6458093,44.474891 6.5312099,43.160048 6.3232372,42.406833 6.104285,41.613853 6.0769652,40.877022 6.2583391,40.656489 6.4306177,40.447014 6.6385925,39.391698 6.7205053,38.311341 6.802418,37.230983 7.1409071,35.7197 7.4727032,34.952933 c 0.3317962,-0.766766 0.528452,-1.468935 0.4370131,-1.560374 -0.091439,-0.09144 0.026987,-0.377117 0.2631691,-0.63484 0.236182,-0.257724 0.9649717,-1.420121 1.6195328,-2.583105 1.1457338,-2.035669 4.7412518,-6.47894 5.3164668,-6.569987 0.543946,-0.0861 2.957708,-1.821484 2.957708,-2.12646 0,-0.170326 0.120536,-0.277842 0.267857,-0.238925 0.429734,0.113522 1.875,-0.451566 1.875,-0.73311 0,-0.141391 0.359227,-0.284134 0.798282,-0.317207 0.439055,-0.03307 0.854567,-0.228989 0.923361,-0.435369 0.06879,-0.206381 0.25858,-0.292729 0.421748,-0.191886 0.163168,0.100844 0.75212,-0.0036 1.308782,-0.232171 0.556662,-0.228537 1.279125,-0.382711 1.605473,-0.342608 0.326349,0.0401 0.67598,-0.06077 0.77696,-0.224155 0.278947,-0.451346 9.241228,-0.152397 10.088793,0.336525 0.610174,0.351983 4.253803,1.502947 4.52303,1.428753 0.147321,-0.0406 0.267857,0.09638 0.267857,0.304404 0,0.208021 0.160714,0.278894 0.357143,0.157494 0.196428,-0.1214 0.357142,-0.06136 0.357142,0.133427 0,0.194784 0.36099,0.468727 0.8022,0.608762 0.441211,0.140035 0.9986,0.512472 1.238643,0.827638 0.240043,0.315167 0.44155,0.45792 0.4478,0.317229 0.01836,-0.413727 5.586704,5.62467 6.299418,6.831199 0.358411,0.606746 0.787207,1.103174 0.952875,1.103174 0.165672,0 0.2099,0.147757 0.09829,0.32835 -0.111614,0.180592 -7.14e-4,0.542199 0.246779,0.803571 0.247339,0.261372 0.504611,0.79665 0.571711,1.189507 0.0671,0.392857 0.258968,0.764848 0.426368,0.826646 0.1674,0.0618 0.215839,0.343048 0.107642,0.625 -0.108192,0.281952 -0.0093,0.51264 0.219715,0.51264 0.229035,0 0.336589,0.129187 0.239003,0.287083 -0.09758,0.157895 -0.0079,1.001645 0.199368,1.875 0.393597,1.658709 0.619382,9.266488 0.275018,9.266488 -0.172532,0 -0.908943,2.747941 -1.148514,4.285715 -0.0459,0.294642 -0.182404,0.616071 -0.30334,0.714285 -0.411728,0.334379 -1.760014,3.214286 -1.504828,3.214286 0.13975,0 -0.05788,0.235961 -0.439172,0.524357 -0.381292,0.288393 -0.570928,0.529464 -0.421407,0.535714 0.588029,0.02457 -4.607946,5.093136 -6.48886,6.329747 -1.098504,0.722214 -2.095604,1.457971 -2.215779,1.635011 -0.120179,0.177042 -0.321793,0.305285 -0.448036,0.284989 -0.542733,-0.08726 -2.012035,0.436836 -2.012035,0.717689 0,0.168972 -0.241072,0.214711 -0.535715,0.101647 -0.294643,-0.113068 -0.535714,-0.01818 -0.535714,0.210857 0,0.229035 -0.124203,0.339668 -0.276007,0.245846 -0.151804,-0.09382 -1.316983,0.07082 -2.589286,0.365861 -2.598628,0.602611 -6.309134,0.789482 -7.771774,0.391407 z m -5.83366,-5.345771 c 0.710685,-0.433597 1.345726,-0.91574 1.411202,-1.071429 0.06548,-0.155686 0.333334,-0.283068 0.595238,-0.283068 0.261905,0 0.529762,-0.120536 0.595238,-0.267857 0.06548,-0.147321 0.714285,-0.570407 1.441798,-0.940193 0.727512,-0.369782 1.644899,-0.972461 2.038638,-1.339286 0.393738,-0.366821 0.845289,-0.66695 1.003446,-0.66695 0.365765,0 4.133743,-2.509449 4.425096,-2.947085 0.120175,-0.180514 0.361247,-0.331252 0.535714,-0.334974 0.174467,-0.0037 1.029603,-0.424255 1.900301,-0.934518 1.078623,-0.632115 1.628689,-0.790949 1.726191,-0.498444 0.08557,0.256699 0.849102,0.429307 1.899054,0.429307 h 1.755953 v 4.846268 c 0,4.821479 0.0041,4.845686 0.803571,4.732143 0.781636,-0.111011 0.8063,-0.244232 0.903457,-4.880022 l 0.09989,-4.765897 1.68645,0.12304 c 1.547421,0.112896 1.6864,0.05679 1.685828,-0.680532 -6.1e-4,-0.785677 -0.0901,-0.803571 -4.018482,-0.803571 -2.209821,0 -4.013711,-0.120536 -4.008643,-0.267857 0.0051,-0.147322 0.614884,-0.546558 1.355147,-0.887193 0.740264,-0.340634 1.693683,-0.943312 2.11871,-1.339285 0.425025,-0.395973 0.902179,-0.719951 1.060333,-0.719951 0.390803,0 4.141342,-2.522638 4.468985,-3.005868 0.144315,-0.212844 0.26485,-0.258733 0.267857,-0.101975 0.0069,0.358559 3.219754,-1.830063 3.219754,-2.193309 0,-0.338778 -5.224111,-3.984562 -5.70955,-3.984562 -0.199036,0 -0.361879,-0.160715 -0.361879,-0.357143 0,-0.196429 -0.167435,-0.357143 -0.372075,-0.357143 -0.204642,0 -0.694228,-0.300128 -1.087964,-0.666951 -0.393739,-0.366824 -1.311128,-0.969503 -2.038639,-1.339286 -0.727513,-0.369784 -1.403107,-0.764754 -1.501322,-0.877711 -0.477523,-0.549205 -4.643562,-3.177829 -4.648326,-2.932931 -0.003,0.154641 -0.123543,0.109844 -0.267857,-0.09955 -0.463848,-0.673024 -3.556587,-2.634611 -3.78839,-2.402808 -0.123199,0.123199 -0.223998,0.0365 -0.223998,-0.192669 0,-0.229166 -0.167434,-0.416666 -0.372076,-0.416666 -0.204642,0 -0.694226,-0.300129 -1.087965,-0.666952 -0.393739,-0.366823 -1.311126,-0.969502 -2.038638,-1.339286 -0.727512,-0.369784 -1.376321,-0.79287 -1.441797,-0.940191 -0.06548,-0.147321 -0.273089,-0.267857 -0.461362,-0.267857 -0.188273,0 -0.664464,-0.300128 -1.058203,-0.666952 -0.393739,-0.366823 -1.308674,-0.969502 -2.03319,-1.339285 -0.724515,-0.369784 -1.532125,-0.873227 -1.794688,-1.118763 -0.262563,-0.245536 -0.546265,-0.446429 -0.630449,-0.446429 -0.08418,0 -0.153061,9 -0.153061,20 0,14.649654 0.10815,20 0.404274,20 0.22235,0 0.985743,-0.35476 1.696429,-0.788359 z"
       id="path31"
       inkscape:connector-curvature="0"
       transform="translate(0,972.36216)" />
  </g>
</svg>
