<?xml version="1.0" encoding="UTF-8" standalone="no"?>
<!-- Created with Inkscape (http://www.inkscape.org/) -->

<svg
   xmlns:dc="http://purl.org/dc/elements/1.1/"
   xmlns:cc="http://creativecommons.org/ns#"
   xmlns:rdf="http://www.w3.org/1999/02/22-rdf-syntax-ns#"
   xmlns:svg="http://www.w3.org/2000/svg"
   xmlns="http://www.w3.org/2000/svg"
   xmlns:sodipodi="http://sodipodi.sourceforge.net/DTD/sodipodi-0.dtd"
   xmlns:inkscape="http://www.inkscape.org/namespaces/inkscape"
   width="60"
   height="80"
   viewBox="0 0 60.000001 80.000001"
   id="svg2"
   version="1.1"
   inkscape:version="0.92.0 r15299"
   sodipodi:docname="Marine.svg">
  <defs
     id="defs4" />
  <sodipodi:namedview
     id="base"
     pagecolor="#ffffff"
     bordercolor="#666666"
     borderopacity="1.0"
     inkscape:pageopacity="0.0"
     inkscape:pageshadow="2"
     inkscape:zoom="2.8"
     inkscape:cx="-116.29055"
     inkscape:cy="-25.239912"
     inkscape:document-units="px"
     inkscape:current-layer="layer1"
     showgrid="false"
     units="px"
     inkscape:window-width="1366"
     inkscape:window-height="745"
     inkscape:window-x="-8"
     inkscape:window-y="-8"
     inkscape:window-maximized="1" />
  <metadata
     id="metadata7">
    <rdf:RDF>
      <cc:Work
         rdf:about="">
        <dc:format>image/svg+xml</dc:format>
        <dc:type
           rdf:resource="http://purl.org/dc/dcmitype/StillImage" />
        <dc:title />
      </cc:Work>
    </rdf:RDF>
  </metadata>
  <g
     inkscape:label="Layer 1"
     inkscape:groupmode="layer"
     id="layer1"
     transform="translate(0,-972.36216)">
    <path
       sodipodi:type="star"
       style="fill:none;fill-opacity:1;stroke:#000000;stroke-width:5;stroke-miterlimit:4;stroke-dasharray:none;stroke-opacity:1"
       id="path4169"
       sodipodi:sides="3"
       sodipodi:cx="24.285715"
       sodipodi:cy="1013.4336"
       sodipodi:r1="29.104404"
       sodipodi:r2="14.552202"
       sodipodi:arg1="2.0943951"
       sodipodi:arg2="3.1415927"
       inkscape:flatsided="false"
       inkscape:rounded="0"
       inkscape:randomized="0"
       d="m 9.7335129,1038.6387 0,-25.2051 -10e-8,-25.20516 21.8283042,12.60256 21.828303,12.6026 -21.828304,12.6026 z"
       inkscape:transform-center-x="-4.4446554"
       transform="matrix(0.61085675,0,0,0.67823017,14.732782,326.80664)" />
    <circle
       style="fill:none;fill-opacity:1;stroke:#000000;stroke-width:5.60402679;stroke-miterlimit:4;stroke-dasharray:none;stroke-opacity:1"
       id="path4171"
       cx="30.178572"
       cy="1014.6836"
       r="27.019415" />
    <text
       xml:space="preserve"
       style="font-style:normal;font-variant:normal;font-weight:normal;font-stretch:normal;font-size:15px;line-height:125%;font-family:Arial;-inkscape-font-specification:Arial;letter-spacing:0px;word-spacing:0px;fill:#000000;fill-opacity:1;stroke:none;stroke-width:1px;stroke-linecap:butt;stroke-linejoin:miter;stroke-opacity:1"
       x="36.785713"
       y="1033.7906"
       id="text4184"><tspan
         sodipodi:role="line"
         id="tspan4186"
         x="36.785713"
         y="1033.7906">T</tspan></text>
    <path
       style="fill:#cccccc;stroke-width:0.35714287"
       d="M 26.935541,66.137351 C 21.803182,65.45563 17.166136,63.101187 13.257155,59.192208 8.6125146,54.547566 6.6190338,49.955354 6.3592676,43.302129 6.1676542,38.394457 6.6741876,35.948055 8.7606475,31.704198 11.154698,26.834701 14.786597,23.199941 19.673736,20.782514 c 6.943989,-3.434851 14.969848,-3.253076 22.142857,0.501505 3.079378,1.611844 7.868168,6.502397 9.573711,9.777149 5.41086,10.389227 2.588957,23.329237 -6.606147,30.292876 -5.09991,3.862268 -11.622591,5.6103 -17.848616,4.783307 z m 1.665271,-10.150389 c 4.438586,-2.846591 8.1431,-5.175621 8.232254,-5.175621 0.08915,0 0.162098,0.321428 0.162098,0.714285 0,0.619048 0.238096,0.714286 1.785715,0.714286 h 1.785714 v 4.642857 4.642857 h 0.892857 0.892857 v -4.642857 -4.642857 h 1.785714 c 1.666668,0 1.785715,-0.05952 1.785715,-0.892857 v -0.892857 h -4.35355 -4.353547 l 6.228547,-3.966 c 3.425703,-2.1813 6.431353,-4.1577 6.679225,-4.392 0.432525,-0.408847 -3.720011,-3.177211 -27.496122,-18.33079 l -3.490268,-2.224504 v 20.183498 c 0,19.899214 0.0098,20.178249 0.696318,19.810842 0.382974,-0.204964 4.327887,-2.701689 8.766473,-5.548282 z"
       id="path11"
       inkscape:connector-curvature="0"
       transform="translate(0,972.36216)" />
    <path
       style="fill:#cccccc;stroke-width:0.35714287"
       d="m 22.352307,41.709447 v -13.74475 l 1.002346,0.61975 c 0.551291,0.340863 5.375059,3.424172 10.719485,6.851797 7.64098,4.900512 9.620643,6.322539 9.265511,6.655585 -0.513313,0.481387 -20.59577,13.362369 -20.832978,13.362369 -0.0849,0 -0.154364,-6.185138 -0.154364,-13.744751 z"
       id="path13"
       inkscape:connector-curvature="0"
       transform="translate(0,972.36216)" />
  </g>
</svg>
