<?xml version="1.0" encoding="UTF-8" standalone="no"?>
<!-- Created with Inkscape (http://www.inkscape.org/) -->

<svg
   xmlns:dc="http://purl.org/dc/elements/1.1/"
   xmlns:cc="http://creativecommons.org/ns#"
   xmlns:rdf="http://www.w3.org/1999/02/22-rdf-syntax-ns#"
   xmlns:svg="http://www.w3.org/2000/svg"
   xmlns="http://www.w3.org/2000/svg"
   xmlns:sodipodi="http://sodipodi.sourceforge.net/DTD/sodipodi-0.dtd"
   xmlns:inkscape="http://www.inkscape.org/namespaces/inkscape"
   width="60"
   height="80"
   viewBox="0 0 60.000001 80.000001"
   id="svg2"
   version="1.1"
   inkscape:version="0.92.0 r15299"
   sodipodi:docname="Rhino_enemy.svg">
  <defs
     id="defs4" />
  <sodipodi:namedview
     id="base"
     pagecolor="#ffffff"
     bordercolor="#666666"
     borderopacity="1.0"
     inkscape:pageopacity="0.0"
     inkscape:pageshadow="2"
     inkscape:zoom="7.9195959"
     inkscape:cx="2.1025288"
     inkscape:cy="40.455885"
     inkscape:document-units="px"
     inkscape:current-layer="layer1"
     showgrid="false"
     units="px"
     inkscape:window-width="1366"
     inkscape:window-height="745"
     inkscape:window-x="-8"
     inkscape:window-y="-8"
     inkscape:window-maximized="1" />
  <metadata
     id="metadata7">
    <rdf:RDF>
      <cc:Work
         rdf:about="">
        <dc:format>image/svg+xml</dc:format>
        <dc:type
           rdf:resource="http://purl.org/dc/dcmitype/StillImage" />
        <dc:title />
      </cc:Work>
    </rdf:RDF>
  </metadata>
  <g
     inkscape:label="Layer 1"
     inkscape:groupmode="layer"
     id="layer1"
     transform="translate(0,-972.36216)">
    <path
       sodipodi:type="star"
       style="fill:none;fill-opacity:1;stroke:#000000;stroke-width:5;stroke-miterlimit:4;stroke-dasharray:none;stroke-opacity:1"
       id="path4169"
       sodipodi:sides="3"
       sodipodi:cx="24.285715"
       sodipodi:cy="1013.4336"
       sodipodi:r1="29.104404"
       sodipodi:r2="14.552202"
       sodipodi:arg1="2.0943951"
       sodipodi:arg2="3.1415927"
       inkscape:flatsided="false"
       inkscape:rounded="0"
       inkscape:randomized="0"
       d="m 9.7335129,1038.6387 0,-25.2051 -10e-8,-25.20516 21.8283042,12.60256 21.828303,12.6026 -21.828304,12.6026 z"
       inkscape:transform-center-x="-4.4446554"
       transform="matrix(0.61085675,0,0,0.67823017,14.732782,326.80664)" />
    <circle
       style="fill:none;fill-opacity:1;stroke:#000000;stroke-width:5.60402679;stroke-miterlimit:4;stroke-dasharray:none;stroke-opacity:1"
       id="path4171"
       cx="30.178572"
       cy="1014.6836"
       r="27.019415" />
    <text
       xml:space="preserve"
       style="font-style:normal;font-variant:normal;font-weight:normal;font-stretch:normal;font-size:15px;line-height:125%;font-family:Arial;-inkscape-font-specification:Arial;letter-spacing:0px;word-spacing:0px;fill:#000000;fill-opacity:1;stroke:none;stroke-width:1px;stroke-linecap:butt;stroke-linejoin:miter;stroke-opacity:1"
       x="35.357143"
       y="1033.7908"
       id="text4173"><tspan
         sodipodi:role="line"
         id="tspan4175"
         x="35.357143"
         y="1033.7908">S</tspan></text>
    <path
       style="fill:#cccccc;stroke-width:0.35714287"
       d="m 22.530883,41.923844 c 0,-7.486877 0.09838,-13.612503 0.218618,-13.612503 0.156949,0 20.333113,12.7921 21.13104,13.397511 0.05481,0.04159 -4.364831,2.933106 -9.821429,6.425598 -5.456597,3.492492 -10.282693,6.586665 -10.724657,6.875941 l -0.803572,0.525957 z"
       id="path11"
       inkscape:connector-curvature="0"
       transform="translate(0,972.36216)" />
    <path
       style="fill:#cccccc;stroke-width:0.35714287"
       d="M 28.245169,66.299755 C 18.257078,65.299819 10.099868,58.631662 7.1135858,49.025626 6.0379459,45.565593 5.9610716,39.301808 6.953601,35.989912 c 1.6532,-5.516439 5.327246,-10.556067 9.923144,-13.611415 13.353239,-8.877216 31.237949,-2.512965 36.243299,12.897129 1.18275,3.641358 1.333236,9.407038 0.340082,13.029611 -1.8948,6.911343 -6.516396,12.484932 -12.893528,15.549436 -3.953198,1.899693 -8.586049,2.819043 -12.321429,2.445082 z m 6.638756,-14.3277 C 43.402862,46.521162 50.328762,41.918706 50.274808,41.744374 50.198026,41.496267 26.605804,26.188347 20.29874,22.294266 l -1.339285,-0.826897 v 20.2077 c 0,11.114235 0.09799,20.2077 0.217745,20.2077 0.11976,0 7.187787,-4.459821 15.706725,-9.910714 z m 6.882958,9.688514 c 1.56534,-0.313068 2.906857,-1.762132 2.906857,-3.139893 0,-2.095035 -0.806482,-2.717943 -4.873991,-3.764553 -1.798861,-0.462861 -2.271051,-1.361524 -1.179725,-2.245226 0.794011,-0.642951 2.351309,-0.823882 3.053824,-0.354802 0.216128,0.144314 0.583389,0.623996 0.816135,1.06596 0.232747,0.441964 0.738947,0.803571 1.124893,0.803571 1.070357,0 0.874386,-1.310853 -0.384118,-2.569355 -1.013832,-1.013833 -1.226096,-1.075694 -3.200902,-0.932849 -2.654413,0.192002 -3.570401,0.922342 -3.570401,2.846767 0,1.763734 0.740118,2.407084 3.847506,3.344462 2.01669,0.608354 2.422279,0.863222 2.525697,1.587132 0.153797,1.076543 -0.761453,1.795272 -2.286157,1.795272 -1.234957,0 -3.015618,-1.175175 -3.015618,-1.990207 0,-0.280386 -0.200893,-0.507332 -0.446428,-0.504325 -2.263818,0.02775 -0.880514,3.125532 1.747339,3.913028 1.324886,0.397036 1.605649,0.410907 2.935089,0.145018 z"
       id="path13"
       inkscape:connector-curvature="0"
       transform="translate(0,972.36216)" />
    <path
       style="fill:#800000;fill-opacity:1;stroke-width:0.12626907"
       d="m 22.602209,41.981676 c 0.02436,-7.398859 0.08172,-13.489886 0.127458,-13.535613 0.135214,-0.135182 20.931389,13.014069 20.966985,13.257253 0.01017,0.06945 -1.312694,0.995893 -2.939688,2.058768 -2.628198,1.716936 -17.595001,11.325571 -18.028486,11.574225 -0.142905,0.08197 -0.163383,-2.083804 -0.126269,-13.354633 z"
       id="path4488"
       inkscape:connector-curvature="0"
       transform="translate(0,972.36216)" />
    <path
       style="fill:#ff0000;fill-opacity:1;stroke-width:0.12626907"
       d="M 28.287639,66.253029 C 24.55658,65.892823 20.693163,64.576435 17.469474,62.566938 11.831333,59.052385 7.575632,52.726342 6.5830687,46.384437 6.2742125,44.411025 6.2810339,39.565774 6.5951699,37.788975 7.4287525,33.074111 10.666474,27.561485 14.581521,24.191211 c 3.340314,-2.875513 7.355114,-4.746706 11.916192,-5.553822 1.448691,-0.256356 6.06386,-0.221746 7.576144,0.05682 7.800336,1.436817 14.068874,6.127018 17.588738,13.160124 1.703106,3.403009 2.361775,6.402354 2.361775,10.7547 0,3.468803 -0.385786,5.530034 -1.601837,8.558519 -3.410518,8.493635 -11.380912,14.256034 -20.874058,15.091427 -1.600766,0.140867 -1.742807,0.140608 -3.260836,-0.0059 z m -8.629501,-4.630768 c 0.127322,-0.121534 0.291618,-0.23312 0.365103,-0.247969 0.56971,-0.115125 27.561406,-17.478733 27.561406,-17.730101 0,-0.06048 0.08523,-0.109974 0.189404,-0.109974 0.104172,0 0.189403,-0.05682 0.189403,-0.126269 0,-0.06945 0.05865,-0.126269 0.130325,-0.126269 0.168616,0 2.142519,-1.381648 2.142519,-1.499672 0,-0.114452 -2.235356,-1.657054 -2.401205,-1.657054 -0.0683,0 -0.124177,-0.05682 -0.124177,-0.126269 0,-0.06945 -0.0805,-0.12627 -0.178881,-0.12627 -0.09838,0 -0.197821,-0.04592 -0.220971,-0.102051 -0.06215,-0.150681 -1.241646,-0.936192 -1.241646,-0.826899 0,0.05133 -0.07103,0.0013 -0.157836,-0.111282 -0.276383,-0.3583 -22.333314,-14.607441 -26.516504,-17.1301 l -0.473509,-0.285548 0.03089,17.340728 0.03089,17.340728 0.06449,-17.172594 0.06449,-17.172593 0.03089,20.045215 c 0.02043,13.258704 0.07364,20.045214 0.157157,20.045214 0.06945,0 0.230441,-0.09944 0.357762,-0.220971 z m 22.017215,0.08217 c 0.36802,-0.07634 0.901165,-0.272072 1.184765,-0.434956 0.617893,-0.354878 1.401988,-1.194792 1.634187,-1.750521 0.223515,-0.534946 0.213743,-1.784677 -0.0183,-2.340026 -0.45182,-1.081358 -1.056586,-1.404304 -4.604387,-2.458754 -1.644398,-0.488736 -2.117964,-1.096754 -1.482974,-1.904013 0.413708,-0.525944 1.171096,-0.815926 2.13947,-0.819141 0.949969,-0.0032 1.289659,0.184976 1.76568,0.977883 0.395799,0.659282 0.868163,1.029784 1.319687,1.035108 1.041319,0.01227 0.908512,-1.066844 -0.302469,-2.457706 -0.767121,-0.88107 -1.195577,-1.071902 -2.408287,-1.07264 -1.29437,-7.58e-4 -2.568587,0.205448 -3.182753,0.515138 -0.548715,0.276687 -1.160125,0.967213 -1.068291,1.206528 0.03624,0.09445 0.01086,0.171723 -0.05641,0.171723 -0.06727,0 -0.122307,0.396228 -0.122307,0.880506 0,1.167528 0.334071,1.870344 1.136048,2.390007 0.323227,0.209445 1.464115,0.678012 2.535306,1.041261 2.250641,0.76321 2.6421,1.038196 2.6421,1.855984 0,1.30898 -1.925408,1.929115 -3.577875,1.152363 -0.85952,-0.40402 -1.451497,-0.963377 -1.5989,-1.510788 -0.14241,-0.52887 -0.435601,-0.709049 -0.915708,-0.562741 -0.497736,0.151682 -0.684261,0.413294 -0.706088,0.990334 -0.01668,0.441016 0.0646,0.676743 0.402354,1.166909 0.410008,0.595022 1.674376,1.607004 1.862512,1.490729 0.051,-0.03152 0.114297,0.0074 0.140672,0.08656 0.02638,0.07913 0.229973,0.150506 0.452439,0.158624 0.222466,0.0081 0.404614,0.05321 0.404772,0.100202 7.57e-4,0.236627 1.45962,0.291633 2.424752,0.09143 z"
       id="path4490"
       inkscape:connector-curvature="0"
       transform="translate(0,972.36216)" />
    <path
       style="fill:#d40000;fill-opacity:1;stroke-width:0.12626907"
       d="m 22.687706,53.10298 c -0.05572,-5.542865 0.06091,-24.29096 0.151723,-24.388604 0.115157,-0.123827 0.890759,0.330067 5.804858,3.397085 9.193426,5.737859 14.945987,9.478022 14.840412,9.648845 -0.181854,0.294248 -3.8808,2.715707 -15.534892,10.169687 -2.08344,1.332572 -4.114793,2.632591 -4.514119,2.888933 l -0.726047,0.466075 z"
       id="path4492"
       inkscape:connector-curvature="0"
       transform="translate(0,972.36216)" />
    <path
       style="fill:#d40000;fill-opacity:1;stroke-width:0.12626907"
       d="M 27.949807,66.176453 C 22.368452,65.463947 17.213987,63.011115 13.506529,59.303396 11.392254,57.188972 10.031409,55.285554 8.6871048,52.562456 7.7332612,50.630297 7.2023016,49.128475 6.7748507,47.153639 6.5256628,46.002385 6.4963819,45.493046 6.490558,42.208392 6.485108,39.134503 6.520808,38.37427 6.7129123,37.473302 7.7577685,32.572947 10.967968,27.29356 14.889599,24.026195 c 3.347245,-2.788807 7.782599,-4.784955 11.901356,-5.35625 1.237538,-0.171654 4.955748,-0.176256 6.462153,-0.008 3.147926,0.351606 7.048592,1.802749 9.972078,3.709857 5.278609,3.443448 9.280861,9.38051 10.367157,15.378951 0.447646,2.471875 0.44161,7.22198 -0.01202,9.464062 -0.723993,3.578301 -2.82597,7.756289 -5.388299,10.710035 -3.794304,4.373913 -9.493601,7.359952 -15.545156,8.144591 -1.352166,0.175319 -3.736453,0.22964 -4.697055,0.107011 z m -8.17081,-4.565392 c 0.18817,-0.127693 0.853518,-0.535082 1.478549,-0.90531 2.671084,-1.58217 18.449809,-11.705136 23.419641,-15.025055 5.838356,-3.900107 5.66241,-3.771218 5.50212,-4.030573 -0.0433,-0.07007 -0.744252,-0.571331 -1.557666,-1.113926 -0.813416,-0.542595 -1.649399,-1.103809 -1.857743,-1.247144 -4.263364,-2.933092 -27.466882,-17.851922 -27.765406,-17.851922 -0.04231,0 -0.06504,7.486177 -0.05051,16.635949 0.01453,9.149773 0.05946,15.783634 0.09985,14.741914 0.04814,-1.241435 0.08254,-0.04137 0.09985,3.482921 0.01453,2.957328 0.0643,5.41484 0.110596,5.461138 0.117807,0.117807 0.137115,0.11232 0.52071,-0.147992 z M 42.49623,61.474698 c 0.702076,-0.30856 1.841587,-1.398342 2.05838,-1.96855 0.228225,-0.600279 0.151969,-1.948643 -0.144886,-2.561864 -0.376099,-0.776916 -1.050275,-1.164207 -3.248588,-1.866205 -2.575208,-0.822352 -3.022005,-1.100557 -2.924761,-1.821143 0.04193,-0.310713 0.646841,-0.867974 1.107064,-1.01986 0.554926,-0.183144 1.820936,-0.182615 2.163841,8.83e-4 0.146669,0.0785 0.494999,0.451795 0.774066,0.829554 0.564884,0.764655 0.826501,0.947926 1.349092,0.945085 0.513224,-0.0028 0.711806,-0.174581 0.699563,-0.60518 -0.02698,-0.948864 -1.471923,-2.706201 -2.362509,-2.873277 -0.738504,-0.138543 -3.215004,0.02443 -3.863558,0.254252 -0.31831,0.112798 -0.797193,0.428797 -1.064186,0.702223 -0.471779,0.483147 -0.487018,0.527195 -0.541497,1.565143 -0.04828,0.919831 -0.01676,1.149178 0.227167,1.653066 0.378415,0.781704 0.826921,1.053659 3.223923,1.954854 1.108983,0.416942 2.155326,0.86182 2.325208,0.988619 0.7335,0.547482 0.522984,1.627239 -0.398824,2.045614 -1.462078,0.663582 -3.466477,-0.06265 -4.207167,-1.524332 -0.267194,-0.527264 -0.371467,-0.623496 -0.675612,-0.623496 -0.197808,0 -0.515651,0.12271 -0.706317,0.272688 -0.317302,0.24959 -0.34192,0.329911 -0.290643,0.948259 0.04223,0.509259 0.149485,0.791838 0.435665,1.147841 0.530443,0.65986 1.484728,1.358556 2.1056,1.541648 0.288328,0.08503 0.609466,0.206093 0.713638,0.269037 0.104172,0.06294 0.729203,0.0963 1.388959,0.07413 0.909371,-0.03056 1.35845,-0.110147 1.856382,-0.328989 z"
       id="path4494"
       inkscape:connector-curvature="0"
       transform="translate(0,972.36216)" />
  </g>
</svg>
