<?xml version="1.0" encoding="UTF-8" standalone="no"?>
<!-- Created with Inkscape (http://www.inkscape.org/) -->

<svg
   xmlns:dc="http://purl.org/dc/elements/1.1/"
   xmlns:cc="http://creativecommons.org/ns#"
   xmlns:rdf="http://www.w3.org/1999/02/22-rdf-syntax-ns#"
   xmlns:svg="http://www.w3.org/2000/svg"
   xmlns="http://www.w3.org/2000/svg"
   xmlns:sodipodi="http://sodipodi.sourceforge.net/DTD/sodipodi-0.dtd"
   xmlns:inkscape="http://www.inkscape.org/namespaces/inkscape"
   width="60"
   height="80"
   viewBox="0 0 60.000001 80.000001"
   id="svg2"
   version="1.1"
   inkscape:version="0.92.0 r15299"
   sodipodi:docname="Scout.svg">
  <defs
     id="defs4" />
  <sodipodi:namedview
     id="base"
     pagecolor="#ffffff"
     bordercolor="#666666"
     borderopacity="1.0"
     inkscape:pageopacity="0.0"
     inkscape:pageshadow="2"
     inkscape:zoom="2.8"
     inkscape:cx="-63.254831"
     inkscape:cy="-25.239912"
     inkscape:document-units="px"
     inkscape:current-layer="layer1"
     showgrid="false"
     units="px"
     inkscape:window-width="1366"
     inkscape:window-height="745"
     inkscape:window-x="-8"
     inkscape:window-y="-8"
     inkscape:window-maximized="1" />
  <metadata
     id="metadata7">
    <rdf:RDF>
      <cc:Work
         rdf:about="">
        <dc:format>image/svg+xml</dc:format>
        <dc:type
           rdf:resource="http://purl.org/dc/dcmitype/StillImage" />
        <dc:title />
      </cc:Work>
    </rdf:RDF>
  </metadata>
  <g
     inkscape:label="Layer 1"
     inkscape:groupmode="layer"
     id="layer1"
     transform="translate(0,-972.36216)">
    <path
       sodipodi:type="star"
       style="fill:none;fill-opacity:1;stroke:#000000;stroke-width:5;stroke-miterlimit:4;stroke-dasharray:none;stroke-opacity:1"
       id="path4169"
       sodipodi:sides="3"
       sodipodi:cx="24.285715"
       sodipodi:cy="1013.4336"
       sodipodi:r1="29.104404"
       sodipodi:r2="14.552202"
       sodipodi:arg1="2.0943951"
       sodipodi:arg2="3.1415927"
       inkscape:flatsided="false"
       inkscape:rounded="0"
       inkscape:randomized="0"
       d="m 9.7335129,1038.6387 0,-25.2051 -10e-8,-25.20516 21.8283042,12.60256 21.828303,12.6026 -21.828304,12.6026 z"
       inkscape:transform-center-x="-4.4446554"
       transform="matrix(0.61085675,0,0,0.67823017,14.732782,326.80664)" />
    <circle
       style="fill:none;fill-opacity:1;stroke:#000000;stroke-width:5.60402679;stroke-miterlimit:4;stroke-dasharray:none;stroke-opacity:1"
       id="path4171"
       cx="30.178572"
       cy="1014.6836"
       r="27.019415" />
    <text
       xml:space="preserve"
       style="font-style:normal;font-variant:normal;font-weight:normal;font-stretch:normal;font-size:15px;line-height:125%;font-family:Arial;-inkscape-font-specification:Arial;letter-spacing:0px;word-spacing:0px;fill:#000000;fill-opacity:1;stroke:none;stroke-width:1px;stroke-linecap:butt;stroke-linejoin:miter;stroke-opacity:1"
       x="35.357143"
       y="1033.7908"
       id="text4173"><tspan
         sodipodi:role="line"
         id="tspan4175"
         x="35.357143"
         y="1033.7908">S</tspan></text>
    <path
       style="fill:#cccccc;stroke-width:0.35714287"
       d="m 22.530883,41.923844 c 0,-7.486877 0.09838,-13.612503 0.218618,-13.612503 0.156949,0 20.333113,12.7921 21.13104,13.397511 0.05481,0.04159 -4.364831,2.933106 -9.821429,6.425598 -5.456597,3.492492 -10.282693,6.586665 -10.724657,6.875941 l -0.803572,0.525957 z"
       id="path11"
       inkscape:connector-curvature="0"
       transform="translate(0,972.36216)" />
    <path
       style="fill:#cccccc;stroke-width:0.35714287"
       d="M 28.245169,66.299755 C 18.257078,65.299819 10.099868,58.631662 7.1135858,49.025626 6.0379459,45.565593 5.9610716,39.301808 6.953601,35.989912 c 1.6532,-5.516439 5.327246,-10.556067 9.923144,-13.611415 13.353239,-8.877216 31.237949,-2.512965 36.243299,12.897129 1.18275,3.641358 1.333236,9.407038 0.340082,13.029611 -1.8948,6.911343 -6.516396,12.484932 -12.893528,15.549436 -3.953198,1.899693 -8.586049,2.819043 -12.321429,2.445082 z m 6.638756,-14.3277 C 43.402862,46.521162 50.328762,41.918706 50.274808,41.744374 50.198026,41.496267 26.605804,26.188347 20.29874,22.294266 l -1.339285,-0.826897 v 20.2077 c 0,11.114235 0.09799,20.2077 0.217745,20.2077 0.11976,0 7.187787,-4.459821 15.706725,-9.910714 z m 6.882958,9.688514 c 1.56534,-0.313068 2.906857,-1.762132 2.906857,-3.139893 0,-2.095035 -0.806482,-2.717943 -4.873991,-3.764553 -1.798861,-0.462861 -2.271051,-1.361524 -1.179725,-2.245226 0.794011,-0.642951 2.351309,-0.823882 3.053824,-0.354802 0.216128,0.144314 0.583389,0.623996 0.816135,1.06596 0.232747,0.441964 0.738947,0.803571 1.124893,0.803571 1.070357,0 0.874386,-1.310853 -0.384118,-2.569355 -1.013832,-1.013833 -1.226096,-1.075694 -3.200902,-0.932849 -2.654413,0.192002 -3.570401,0.922342 -3.570401,2.846767 0,1.763734 0.740118,2.407084 3.847506,3.344462 2.01669,0.608354 2.422279,0.863222 2.525697,1.587132 0.153797,1.076543 -0.761453,1.795272 -2.286157,1.795272 -1.234957,0 -3.015618,-1.175175 -3.015618,-1.990207 0,-0.280386 -0.200893,-0.507332 -0.446428,-0.504325 -2.263818,0.02775 -0.880514,3.125532 1.747339,3.913028 1.324886,0.397036 1.605649,0.410907 2.935089,0.145018 z"
       id="path13"
       inkscape:connector-curvature="0"
       transform="translate(0,972.36216)" />
  </g>
</svg>
