<?xml version="1.0" encoding="UTF-8" standalone="no"?>
<!-- Created with Inkscape (http://www.inkscape.org/) -->

<svg
   xmlns:dc="http://purl.org/dc/elements/1.1/"
   xmlns:cc="http://creativecommons.org/ns#"
   xmlns:rdf="http://www.w3.org/1999/02/22-rdf-syntax-ns#"
   xmlns:svg="http://www.w3.org/2000/svg"
   xmlns="http://www.w3.org/2000/svg"
   xmlns:sodipodi="http://sodipodi.sourceforge.net/DTD/sodipodi-0.dtd"
   xmlns:inkscape="http://www.inkscape.org/namespaces/inkscape"
   width="60"
   height="80"
   viewBox="0 0 60.000001 80.000001"
   id="svg2"
   version="1.1"
   inkscape:version="0.92.0 r15299"
   sodipodi:docname="Scout_enemy.svg">
  <defs
     id="defs4" />
  <sodipodi:namedview
     id="base"
     pagecolor="#ffffff"
     bordercolor="#666666"
     borderopacity="1.0"
     inkscape:pageopacity="0.0"
     inkscape:pageshadow="2"
     inkscape:zoom="2.8"
     inkscape:cx="-63.254831"
     inkscape:cy="-25.239912"
     inkscape:document-units="px"
     inkscape:current-layer="layer1"
     showgrid="false"
     units="px"
     inkscape:window-width="1366"
     inkscape:window-height="745"
     inkscape:window-x="-8"
     inkscape:window-y="-8"
     inkscape:window-maximized="1" />
  <metadata
     id="metadata7">
    <rdf:RDF>
      <cc:Work
         rdf:about="">
        <dc:format>image/svg+xml</dc:format>
        <dc:type
           rdf:resource="http://purl.org/dc/dcmitype/StillImage" />
        <dc:title></dc:title>
      </cc:Work>
    </rdf:RDF>
  </metadata>
  <g
     inkscape:label="Layer 1"
     inkscape:groupmode="layer"
     id="layer1"
     transform="translate(0,-972.36216)">
    <path
       sodipodi:type="star"
       style="fill:none;fill-opacity:1;stroke:#000000;stroke-width:5;stroke-miterlimit:4;stroke-dasharray:none;stroke-opacity:1"
       id="path4169"
       sodipodi:sides="3"
       sodipodi:cx="24.285715"
       sodipodi:cy="1013.4336"
       sodipodi:r1="29.104404"
       sodipodi:r2="14.552202"
       sodipodi:arg1="2.0943951"
       sodipodi:arg2="3.1415927"
       inkscape:flatsided="false"
       inkscape:rounded="0"
       inkscape:randomized="0"
       d="m 9.7335129,1038.6387 0,-25.2051 -10e-8,-25.20516 21.8283042,12.60256 21.828303,12.6026 -21.828304,12.6026 z"
       inkscape:transform-center-x="-4.4446554"
       transform="matrix(0.61085675,0,0,0.67823017,14.732782,326.80664)" />
    <circle
       style="fill:none;fill-opacity:1;stroke:#000000;stroke-width:5.60402679;stroke-miterlimit:4;stroke-dasharray:none;stroke-opacity:1"
       id="path4171"
       cx="30.178572"
       cy="1014.6836"
       r="27.019415" />
    <text
       xml:space="preserve"
       style="font-style:normal;font-variant:normal;font-weight:normal;font-stretch:normal;font-size:15px;line-height:125%;font-family:Arial;-inkscape-font-specification:Arial;letter-spacing:0px;word-spacing:0px;fill:#000000;fill-opacity:1;stroke:none;stroke-width:1px;stroke-linecap:butt;stroke-linejoin:miter;stroke-opacity:1"
       x="35.357143"
       y="1033.7908"
       id="text4173"><tspan
         sodipodi:role="line"
         id="tspan4175"
         x="35.357143"
         y="1033.7908">S</tspan></text>
    <path
       style="fill:#cccccc;stroke-width:0.35714287"
       d="m 22.530883,41.923844 c 0,-7.486877 0.09838,-13.612503 0.218618,-13.612503 0.156949,0 20.333113,12.7921 21.13104,13.397511 0.05481,0.04159 -4.364831,2.933106 -9.821429,6.425598 -5.456597,3.492492 -10.282693,6.586665 -10.724657,6.875941 l -0.803572,0.525957 z"
       id="path11"
       inkscape:connector-curvature="0"
       transform="translate(0,972.36216)" />
    <path
       style="fill:#cccccc;stroke-width:0.35714287"
       d="M 28.245169,66.299755 C 18.257078,65.299819 10.099868,58.631662 7.1135858,49.025626 6.0379459,45.565593 5.9610716,39.301808 6.953601,35.989912 c 1.6532,-5.516439 5.327246,-10.556067 9.923144,-13.611415 13.353239,-8.877216 31.237949,-2.512965 36.243299,12.897129 1.18275,3.641358 1.333236,9.407038 0.340082,13.029611 -1.8948,6.911343 -6.516396,12.484932 -12.893528,15.549436 -3.953198,1.899693 -8.586049,2.819043 -12.321429,2.445082 z m 6.638756,-14.3277 C 43.402862,46.521162 50.328762,41.918706 50.274808,41.744374 50.198026,41.496267 26.605804,26.188347 20.29874,22.294266 l -1.339285,-0.826897 v 20.2077 c 0,11.114235 0.09799,20.2077 0.217745,20.2077 0.11976,0 7.187787,-4.459821 15.706725,-9.910714 z m 6.882958,9.688514 c 1.56534,-0.313068 2.906857,-1.762132 2.906857,-3.139893 0,-2.095035 -0.806482,-2.717943 -4.873991,-3.764553 -1.798861,-0.462861 -2.271051,-1.361524 -1.179725,-2.245226 0.794011,-0.642951 2.351309,-0.823882 3.053824,-0.354802 0.216128,0.144314 0.583389,0.623996 0.816135,1.06596 0.232747,0.441964 0.738947,0.803571 1.124893,0.803571 1.070357,0 0.874386,-1.310853 -0.384118,-2.569355 -1.013832,-1.013833 -1.226096,-1.075694 -3.200902,-0.932849 -2.654413,0.192002 -3.570401,0.922342 -3.570401,2.846767 0,1.763734 0.740118,2.407084 3.847506,3.344462 2.01669,0.608354 2.422279,0.863222 2.525697,1.587132 0.153797,1.076543 -0.761453,1.795272 -2.286157,1.795272 -1.234957,0 -3.015618,-1.175175 -3.015618,-1.990207 0,-0.280386 -0.200893,-0.507332 -0.446428,-0.504325 -2.263818,0.02775 -0.880514,3.125532 1.747339,3.913028 1.324886,0.397036 1.605649,0.410907 2.935089,0.145018 z"
       id="path13"
       inkscape:connector-curvature="0"
       transform="translate(0,972.36216)" />
    <path
       style="fill:#ff0000;stroke-width:0.35714287"
       d="m 22.58397,42.269539 c 0.06902,-7.251562 0.242137,-13.30125 0.384711,-13.44375 0.142575,-0.142501 0.47879,-0.07687 0.747146,0.145846 0.268356,0.222715 0.593669,0.299189 0.722917,0.16994 0.129248,-0.129248 0.234996,-0.07034 0.234996,0.130907 0,0.340014 3.93459,2.96743 4.443765,2.96743 0.125928,0 0.551109,0.300128 0.944848,0.666951 0.393739,0.366824 1.311126,0.969503 2.038638,1.339286 0.727512,0.369784 1.376321,0.79287 1.441797,0.940192 0.06548,0.147321 0.273089,0.267857 0.461362,0.267857 0.188273,0 0.694003,0.327648 1.123845,0.728107 0.429843,0.400458 1.146337,0.819667 1.59221,0.931574 0.445873,0.111907 0.810678,0.346759 0.810678,0.521893 0,0.175134 0.241072,0.318426 0.535715,0.318426 0.294642,0 0.535714,0.160714 0.535714,0.357143 0,0.196428 0.241071,0.357142 0.535714,0.357142 0.294643,0 0.535714,0.134859 0.535714,0.299686 0,0.164827 0.641014,0.606791 1.424474,0.982143 0.783461,0.375351 1.426318,0.802993 1.428572,0.950314 0.0023,0.147322 0.245169,0.267857 0.539812,0.267857 0.294642,0 0.535714,0.102107 0.535714,0.226904 0,0.319027 -1.783195,1.937475 -1.797073,1.631043 -0.0062,-0.137942 -0.247318,0.06116 -0.535714,0.442457 -0.288396,0.381293 -0.524356,0.574465 -0.524356,0.429271 0,-0.309128 -3.336131,1.912633 -3.511905,2.338821 -0.06548,0.158756 -0.346726,0.288647 -0.625,0.288647 -0.278274,0 -0.505952,0.1875 -0.505952,0.416667 0,0.229166 -0.100799,0.315868 -0.223998,0.192668 -0.187987,-0.187986 -3.138626,1.583587 -3.704574,2.224237 -0.09821,0.111179 -0.773808,0.504693 -1.501321,0.874477 -0.727512,0.369783 -1.644899,0.972462 -2.038638,1.339286 -0.393738,0.366823 -0.869929,0.666951 -1.058202,0.666951 -0.188273,0 -0.395886,0.120536 -0.461362,0.267857 -0.06548,0.147322 -0.714285,0.570408 -1.441798,0.940192 -0.727512,0.369783 -1.644899,0.972462 -2.038638,1.339285 -0.393738,0.366823 -0.819255,0.666952 -0.945592,0.666952 -0.126337,0 -0.173235,-5.933097 -0.104219,-13.184659 z"
       id="path44"
       inkscape:connector-curvature="0"
       transform="translate(0,972.36216)" />
    <path
       style="fill:#d40000;stroke-width:0.35714287"
       d="m 27.699191,66.217783 c -0.07108,-0.0711 -0.579991,-0.172457 -1.130914,-0.225235 -0.550924,-0.05278 -1.242751,-0.183293 -1.537394,-0.290029 -0.294643,-0.106736 -1.178571,-0.389075 -1.964285,-0.627418 -2.077,-0.630043 -5.155073,-2.23391 -7.171258,-3.736668 -1.52178,-1.134253 -5.636613,-5.16995 -5.271328,-5.16995 0.229305,0 -1.7562851,-3.025666 -2.1643752,-3.298102 -0.2161716,-0.144314 -0.2703467,-0.264849 -0.1203892,-0.267857 0.1499575,-0.003 0.01923,-0.608148 -0.2905048,-1.344755 -1.0214769,-2.42926 -1.5603285,-5.574276 -1.5756711,-9.196428 -0.00832,-1.964286 0.060387,-3.973215 0.1526833,-4.464286 0.2395395,-1.274497 0.4816381,-2.306918 0.5653028,-2.410714 0.039583,-0.04911 0.099856,-0.209822 0.13394,-0.357143 0.034084,-0.147322 0.5788086,-1.272322 1.2104983,-2.5 0.6316897,-1.227679 1.0803572,-2.232143 0.997039,-2.232143 -0.2085818,0 1.3240089,-1.806042 3.9804909,-4.690707 1.227679,-1.333132 2.232143,-2.338937 2.232143,-2.235123 0,0.103815 0.469357,-0.145457 1.043015,-0.553938 1.783117,-1.269691 5.117508,-2.787683 7.534517,-3.430112 2.369604,-0.629828 9.000251,-0.941617 9.993897,-0.469936 0.650773,0.30892 3.966992,1.201244 4.464285,1.201244 0.196429,0 0.4375,0.09895 0.535715,0.219881 0.25345,0.312082 3.214285,1.790817 3.214285,1.605317 0,-0.08448 0.508947,0.273858 1.13099,0.796313 1.961639,1.647581 5.644182,5.057061 5.462078,5.057061 -0.09605,0 0.250793,0.642857 0.770754,1.428571 0.51996,0.785715 1.094225,1.428572 1.276143,1.428572 0.181921,0 0.239442,0.147757 0.127832,0.32835 -0.111615,0.180592 0.0511,0.582378 0.361575,0.892857 0.310478,0.310479 0.478143,0.564507 0.372585,0.564507 -0.16306,0 0.128311,0.909666 1.487136,4.642857 0.107247,0.294643 0.1588,0.753154 0.114564,1.018914 -0.04424,0.265759 0.02379,0.747902 0.151154,1.071428 0.38955,0.989487 0.267657,5.917842 -0.201225,8.135641 -0.243654,1.152495 -0.446461,2.296339 -0.450679,2.541874 -0.0042,0.245536 -0.141596,0.446429 -0.305289,0.446429 -0.163689,0 -0.297618,0.181012 -0.297618,0.402248 0,0.221237 -0.498153,1.386415 -1.10701,2.589286 -2.020375,3.991509 -5.524215,7.642223 -9.492725,9.890644 -1.14336,0.64779 -2.159193,1.268768 -2.257408,1.379954 -0.09821,0.111186 -0.419642,0.228018 -0.714285,0.259629 -0.294643,0.03161 -1.821429,0.398825 -3.392857,0.816032 -2.483935,0.659471 -7.492543,1.15791 -7.867407,0.782935 z m -4.454022,-6.797425 c 0.09821,-0.12265 0.79209,-0.542889 1.541946,-0.933864 0.749856,-0.390978 1.667243,-0.992118 2.038638,-1.335868 0.371395,-0.34375 0.829305,-0.625 1.017578,-0.625 0.188273,0 0.395886,-0.120535 0.461362,-0.267857 0.06548,-0.147321 0.714285,-0.570407 1.441797,-0.940193 0.727512,-0.369782 1.644899,-0.97246 2.038638,-1.339285 0.393739,-0.366822 0.883323,-0.66695 1.087965,-0.66695 0.204642,0 0.372076,-0.1875 0.372076,-0.416667 0,-0.229167 0.100799,-0.315868 0.223998,-0.192668 0.231803,0.231802 3.324542,-1.729785 3.78839,-2.402809 0.144314,-0.209393 0.26485,-0.252457 0.267857,-0.0957 0.0062,0.321713 3.332867,-1.870433 3.517374,-2.317796 0.06548,-0.158756 0.346727,-0.288647 0.624999,-0.288647 0.278275,0 0.505953,-0.160714 0.505953,-0.357143 0,-0.196429 0.158804,-0.357143 0.352893,-0.357143 0.194093,0 2.047168,-1.149481 4.11795,-2.554402 l 3.765054,-2.554402 -2.600089,-1.710135 c -1.43005,-0.940574 -2.794204,-1.880378 -3.031447,-2.088455 -0.237246,-0.208076 -0.598853,-0.37832 -0.803571,-0.37832 -0.204722,0 -0.372218,-0.160714 -0.372218,-0.357143 0,-0.196429 -0.241072,-0.357143 -0.535714,-0.357143 -0.294643,0 -0.535715,-0.134858 -0.535715,-0.299685 0,-0.164827 -0.641014,-0.606791 -1.424475,-0.982143 -0.783459,-0.375352 -1.426316,-0.802993 -1.42857,-0.950315 -0.0023,-0.147321 -0.231776,-0.267857 -0.51005,-0.267857 -0.278274,0 -0.559524,-0.129891 -0.625,-0.288647 -0.211501,-0.512814 -3.413671,-2.547682 -3.645049,-2.316304 -0.123199,0.1232 -0.223999,0.0365 -0.223999,-0.192668 0,-0.229167 -0.227678,-0.416667 -0.505952,-0.416667 -0.278274,0 -0.559524,-0.129891 -0.625,-0.288647 -0.184507,-0.447363 -3.5112,-2.639509 -3.517374,-2.317796 -0.003,0.156758 -0.123543,0.113694 -0.267857,-0.0957 -0.463848,-0.673024 -3.556587,-2.634611 -3.78839,-2.402808 -0.123199,0.123199 -0.223998,0.0365 -0.223998,-0.192669 0,-0.229166 -0.167434,-0.416666 -0.372076,-0.416666 -0.204642,0 -0.694226,-0.300129 -1.087965,-0.666952 -0.393739,-0.366823 -1.311126,-0.969502 -2.038638,-1.339285 -0.727512,-0.369784 -1.376321,-0.79287 -1.441797,-0.940192 -0.06548,-0.147321 -0.346726,-0.267857 -0.625,-0.267857 -0.278274,0 -0.505953,-0.160714 -0.505953,-0.357143 0,-0.196428 -0.160714,-0.357143 -0.357142,-0.357143 -0.233889,0 -0.357143,6.97565 -0.357143,20.212664 v 20.212665 l 2.053571,-1.1538 c 1.129464,-0.634589 2.133929,-1.254147 2.232143,-1.376797 z m 20.380579,1.189961 c 0.875332,-0.838621 1.066835,-1.286925 0.98005,-2.29425 -0.14385,-1.66965 -0.880618,-2.324111 -3.710886,-3.296318 -1.305822,-0.448553 -2.458191,-1.028907 -2.56082,-1.289675 -0.243866,-0.619635 0.559036,-1.38315 1.765352,-1.678749 0.77531,-0.189984 1.169596,-0.02262 2.03685,0.864563 0.663046,0.678288 1.287268,1.018861 1.627868,0.888161 0.837775,-0.321483 0.666846,-1.093778 -0.516032,-2.331547 -1.02419,-1.071717 -1.158804,-1.109858 -3.248352,-0.920385 -2.570442,0.23308 -3.540323,1.018641 -3.540323,2.867507 0,1.506315 0.610818,2.065861 3.552575,3.254361 1.266418,0.511646 2.420382,1.120882 2.564368,1.353854 0.397417,0.643032 -0.272836,1.602053 -1.299811,1.859807 -1.10065,0.276246 -3.277524,-0.663832 -3.553947,-1.534765 -0.241027,-0.759407 -1.494323,-0.885042 -1.766013,-0.177032 -0.111871,0.291532 0.06916,0.946036 0.402286,1.454454 1.579575,2.410736 5.255974,2.906539 7.266835,0.980014 z"
       id="path46"
       inkscape:connector-curvature="0"
       transform="translate(0,972.36216)" />
    <path
       style="fill:#d40000;stroke-width:0.35714287"
       d="m 22.972874,42.134348 c 0.09159,-12.635259 0.109745,-12.927351 0.796199,-12.807417 0.386362,0.0675 1.350648,0.572677 2.142857,1.122608 2.134019,1.48138 10.522544,6.790373 10.729194,6.790373 0.09811,0 1.479256,0.875805 3.069206,1.946234 1.589949,1.070429 3.0759,2.00858 3.302114,2.084778 0.645375,0.217393 -0.394823,1.266607 -2.434053,2.455151 -0.988629,0.576213 -2.549886,1.562371 -3.469459,2.191463 -0.919573,0.629091 -2.366002,1.564469 -3.214285,2.078617 -0.848284,0.514148 -3.673797,2.314859 -6.278916,4.001579 l -4.736581,3.066765 z"
       id="path48"
       inkscape:connector-curvature="0"
       transform="translate(0,972.36216)" />
  </g>
</svg>
